<svg width="109" height="40" viewBox="0 0 109 40" fill="none" xmlns="http://www.w3.org/2000/svg">
<g filter="url(#filter0_b_1_4674)">
<path d="M0 0H89C100.046 0 109 8.95431 109 20C109 31.0457 100.046 40 89 40H0V0Z" fill="#DDDBF6"/>
<path d="M31.25 11.75V11C31.25 10.8011 31.329 10.6103 31.4697 10.4697C31.6103 10.329 31.8011 10.25 32 10.25C32.1989 10.25 32.3897 10.329 32.5303 10.4697C32.671 10.6103 32.75 10.8011 32.75 11V11.75C32.75 11.9489 32.671 12.1397 32.5303 12.2803C32.3897 12.421 32.1989 12.5 32 12.5C31.8011 12.5 31.6103 12.421 31.4697 12.2803C31.329 12.1397 31.25 11.9489 31.25 11.75ZM32 14C30.8133 14 29.6533 14.3519 28.6666 15.0112C27.6799 15.6705 26.9108 16.6075 26.4567 17.7039C26.0026 18.8003 25.8838 20.0067 26.1153 21.1705C26.3468 22.3344 26.9182 23.4035 27.7574 24.2426C28.5965 25.0818 29.6656 25.6532 30.8295 25.8847C31.9933 26.1162 33.1997 25.9974 34.2961 25.5433C35.3925 25.0892 36.3295 24.3201 36.9888 23.3334C37.6481 22.3467 38 21.1867 38 20C37.9983 18.4092 37.3656 16.8841 36.2407 15.7593C35.1159 14.6344 33.5908 14.0017 32 14ZM25.4694 14.5306C25.6101 14.6714 25.801 14.7504 26 14.7504C26.199 14.7504 26.3899 14.6714 26.5306 14.5306C26.6714 14.3899 26.7504 14.199 26.7504 14C26.7504 13.801 26.6714 13.6101 26.5306 13.4694L25.7806 12.7194C25.6399 12.5786 25.449 12.4996 25.25 12.4996C25.051 12.4996 24.8601 12.5786 24.7194 12.7194C24.5786 12.8601 24.4996 13.051 24.4996 13.25C24.4996 13.449 24.5786 13.6399 24.7194 13.7806L25.4694 14.5306ZM25.4694 25.4694L24.7194 26.2194C24.5786 26.3601 24.4996 26.551 24.4996 26.75C24.4996 26.949 24.5786 27.1399 24.7194 27.2806C24.8601 27.4214 25.051 27.5004 25.25 27.5004C25.449 27.5004 25.6399 27.4214 25.7806 27.2806L26.5306 26.5306C26.6003 26.4609 26.6556 26.3782 26.6933 26.2872C26.731 26.1961 26.7504 26.0985 26.7504 26C26.7504 25.9015 26.731 25.8039 26.6933 25.7128C26.6556 25.6218 26.6003 25.5391 26.5306 25.4694C26.4609 25.3997 26.3782 25.3444 26.2872 25.3067C26.1961 25.269 26.0985 25.2496 26 25.2496C25.9015 25.2496 25.8039 25.269 25.7128 25.3067C25.6218 25.3444 25.5391 25.3997 25.4694 25.4694ZM38 14.75C38.0985 14.7501 38.1961 14.7307 38.2871 14.6931C38.3782 14.6555 38.4609 14.6003 38.5306 14.5306L39.2806 13.7806C39.4214 13.6399 39.5004 13.449 39.5004 13.25C39.5004 13.051 39.4214 12.8601 39.2806 12.7194C39.1399 12.5786 38.949 12.4996 38.75 12.4996C38.551 12.4996 38.3601 12.5786 38.2194 12.7194L37.4694 13.4694C37.3644 13.5743 37.2928 13.708 37.2639 13.8535C37.2349 13.9991 37.2497 14.15 37.3065 14.2871C37.3633 14.4242 37.4596 14.5414 37.583 14.6238C37.7065 14.7062 37.8516 14.7501 38 14.75ZM38.5306 25.4694C38.3899 25.3286 38.199 25.2496 38 25.2496C37.801 25.2496 37.6101 25.3286 37.4694 25.4694C37.3286 25.6101 37.2496 25.801 37.2496 26C37.2496 26.199 37.3286 26.3899 37.4694 26.5306L38.2194 27.2806C38.2891 27.3503 38.3718 27.4056 38.4628 27.4433C38.5539 27.481 38.6515 27.5004 38.75 27.5004C38.8485 27.5004 38.9461 27.481 39.0372 27.4433C39.1282 27.4056 39.2109 27.3503 39.2806 27.2806C39.3503 27.2109 39.4056 27.1282 39.4433 27.0372C39.481 26.9461 39.5004 26.8485 39.5004 26.75C39.5004 26.6515 39.481 26.5539 39.4433 26.4628C39.4056 26.3718 39.3503 26.2891 39.2806 26.2194L38.5306 25.4694ZM23.75 19.25H23C22.8011 19.25 22.6103 19.329 22.4697 19.4697C22.329 19.6103 22.25 19.8011 22.25 20C22.25 20.1989 22.329 20.3897 22.4697 20.5303C22.6103 20.671 22.8011 20.75 23 20.75H23.75C23.9489 20.75 24.1397 20.671 24.2803 20.5303C24.421 20.3897 24.5 20.1989 24.5 20C24.5 19.8011 24.421 19.6103 24.2803 19.4697C24.1397 19.329 23.9489 19.25 23.75 19.25ZM32 27.5C31.8011 27.5 31.6103 27.579 31.4697 27.7197C31.329 27.8603 31.25 28.0511 31.25 28.25V29C31.25 29.1989 31.329 29.3897 31.4697 29.5303C31.6103 29.671 31.8011 29.75 32 29.75C32.1989 29.75 32.3897 29.671 32.5303 29.5303C32.671 29.3897 32.75 29.1989 32.75 29V28.25C32.75 28.0511 32.671 27.8603 32.5303 27.7197C32.3897 27.579 32.1989 27.5 32 27.5ZM41 19.25H40.25C40.0511 19.25 39.8603 19.329 39.7197 19.4697C39.579 19.6103 39.5 19.8011 39.5 20C39.5 20.1989 39.579 20.3897 39.7197 20.5303C39.8603 20.671 40.0511 20.75 40.25 20.75H41C41.1989 20.75 41.3897 20.671 41.5303 20.5303C41.671 20.3897 41.75 20.1989 41.75 20C41.75 19.8011 41.671 19.6103 41.5303 19.4697C41.3897 19.329 41.1989 19.25 41 19.25Z" fill="#362071"/>
<path d="M56.336 25L61.792 14.008H64.896L70.352 25H67.344L66.384 23.016H60.128L59.168 25H56.336ZM61.136 20.888H65.376L64.208 18.376C64.1653 18.2693 64.096 18.1093 64 17.896C63.904 17.6827 63.808 17.464 63.712 17.24C63.6267 17.016 63.5467 16.8133 63.472 16.632C63.3973 16.4507 63.3493 16.3387 63.328 16.296H63.2C63.1147 16.5093 63.0133 16.7493 62.896 17.016C62.7787 17.2827 62.6667 17.544 62.56 17.8C62.464 18.0453 62.3787 18.2427 62.304 18.392L61.136 20.888ZM72.1595 25V14.008H76.4635L78.7195 19.304C78.8048 19.4853 78.9008 19.7253 79.0075 20.024C79.1248 20.3227 79.2422 20.6373 79.3595 20.968C79.4875 21.2987 79.5995 21.592 79.6955 21.848H79.8075C79.8928 21.6133 79.9942 21.3413 80.1115 21.032C80.2288 20.7227 80.3462 20.4133 80.4635 20.104C80.5808 19.7947 80.6822 19.5333 80.7675 19.32L83.0395 14.008H87.2315V25H84.4795V18.696C84.4795 18.4933 84.4795 18.2693 84.4795 18.024C84.4902 17.7787 84.5008 17.5387 84.5115 17.304C84.5222 17.0693 84.5275 16.8613 84.5275 16.68H84.3995C84.3462 16.8613 84.2715 17.0747 84.1755 17.32C84.0902 17.5653 84.0048 17.8107 83.9195 18.056C83.8342 18.3013 83.7542 18.5147 83.6795 18.696L80.9595 25H78.3355L75.6155 18.696C75.5088 18.4507 75.4075 18.2053 75.3115 17.96C75.2155 17.704 75.1302 17.464 75.0555 17.24C74.9915 17.016 74.9328 16.8293 74.8795 16.68H74.7515C74.7622 16.8187 74.7675 17 74.7675 17.224C74.7782 17.448 74.7835 17.688 74.7835 17.944C74.7942 18.2 74.7995 18.4507 74.7995 18.696V25H72.1595Z" fill="#362071"/>
</g>
<defs>
<filter id="filter0_b_1_4674" x="-80" y="-80" width="269" height="200" filterUnits="userSpaceOnUse" color-interpolation-filters="sRGB">
<feFlood flood-opacity="0" result="BackgroundImageFix"/>
<feGaussianBlur in="BackgroundImageFix" stdDeviation="40"/>
<feComposite in2="SourceAlpha" operator="in" result="effect1_backgroundBlur_1_4674"/>
<feBlend mode="normal" in="SourceGraphic" in2="effect1_backgroundBlur_1_4674" result="shape"/>
</filter>
</defs>
</svg>
