<svg width="27" height="17" viewBox="0 0 27 17" fill="none" xmlns="http://www.w3.org/2000/svg">
<path d="M7.5 3.49756L2.5 3.5" stroke="#010101" stroke-width="1.5" stroke-linecap="round" stroke-linejoin="round"/>
<path d="M7.5 3.49756L2.5 3.5" stroke="black" stroke-opacity="0.2" stroke-width="1.5" stroke-linecap="round" stroke-linejoin="round"/>
<path d="M7.5 3.49756L2.5 3.5" stroke="black" stroke-opacity="0.2" stroke-width="1.5" stroke-linecap="round" stroke-linejoin="round"/>
<path d="M7.5 3.49756L2.5 3.5" stroke="black" stroke-opacity="0.2" stroke-width="1.5" stroke-linecap="round" stroke-linejoin="round"/>
<path d="M7.5 3.49756L2.5 3.5" stroke="black" stroke-opacity="0.2" stroke-width="1.5" stroke-linecap="round" stroke-linejoin="round"/>
<path d="M7.5 3.49756L2.5 3.5" stroke="black" stroke-opacity="0.2" stroke-width="1.5" stroke-linecap="round" stroke-linejoin="round"/>
<path d="M6.5 7.4978L3.5 7.5" stroke="#010101" stroke-width="1.5" stroke-linecap="round" stroke-linejoin="round"/>
<path d="M6.5 7.4978L3.5 7.5" stroke="black" stroke-opacity="0.2" stroke-width="1.5" stroke-linecap="round" stroke-linejoin="round"/>
<path d="M6.5 7.4978L3.5 7.5" stroke="black" stroke-opacity="0.2" stroke-width="1.5" stroke-linecap="round" stroke-linejoin="round"/>
<path d="M6.5 7.4978L3.5 7.5" stroke="black" stroke-opacity="0.2" stroke-width="1.5" stroke-linecap="round" stroke-linejoin="round"/>
<path d="M6.5 7.4978L3.5 7.5" stroke="black" stroke-opacity="0.2" stroke-width="1.5" stroke-linecap="round" stroke-linejoin="round"/>
<path d="M6.5 7.4978L3.5 7.5" stroke="black" stroke-opacity="0.2" stroke-width="1.5" stroke-linecap="round" stroke-linejoin="round"/>
<path d="M21.5 3.5H11.5L9.5 11.1696H19.5L21.5 3.5Z" stroke="#010101" stroke-width="1.5" stroke-linecap="round" stroke-linejoin="round"/>
<path d="M21.5 3.5H11.5L9.5 11.1696H19.5L21.5 3.5Z" stroke="black" stroke-opacity="0.2" stroke-width="1.5" stroke-linecap="round" stroke-linejoin="round"/>
<path d="M21.5 3.5H11.5L9.5 11.1696H19.5L21.5 3.5Z" stroke="black" stroke-opacity="0.2" stroke-width="1.5" stroke-linecap="round" stroke-linejoin="round"/>
<path d="M21.5 3.5H11.5L9.5 11.1696H19.5L21.5 3.5Z" stroke="black" stroke-opacity="0.2" stroke-width="1.5" stroke-linecap="round" stroke-linejoin="round"/>
<path d="M21.5 3.5H11.5L9.5 11.1696H19.5L21.5 3.5Z" stroke="black" stroke-opacity="0.2" stroke-width="1.5" stroke-linecap="round" stroke-linejoin="round"/>
<path d="M21.5 3.5H11.5L9.5 11.1696H19.5L21.5 3.5Z" stroke="black" stroke-opacity="0.2" stroke-width="1.5" stroke-linecap="round" stroke-linejoin="round"/>
<path d="M20.97 5.83643H22.1667L24.1667 7.83643V11.1698H19.5L20.97 5.83643Z" stroke="#010101" stroke-width="1.5" stroke-linecap="round" stroke-linejoin="round"/>
<path d="M20.97 5.83643H22.1667L24.1667 7.83643V11.1698H19.5L20.97 5.83643Z" stroke="black" stroke-opacity="0.2" stroke-width="1.5" stroke-linecap="round" stroke-linejoin="round"/>
<path d="M20.97 5.83643H22.1667L24.1667 7.83643V11.1698H19.5L20.97 5.83643Z" stroke="black" stroke-opacity="0.2" stroke-width="1.5" stroke-linecap="round" stroke-linejoin="round"/>
<path d="M20.97 5.83643H22.1667L24.1667 7.83643V11.1698H19.5L20.97 5.83643Z" stroke="black" stroke-opacity="0.2" stroke-width="1.5" stroke-linecap="round" stroke-linejoin="round"/>
<path d="M20.97 5.83643H22.1667L24.1667 7.83643V11.1698H19.5L20.97 5.83643Z" stroke="black" stroke-opacity="0.2" stroke-width="1.5" stroke-linecap="round" stroke-linejoin="round"/>
<path d="M20.97 5.83643H22.1667L24.1667 7.83643V11.1698H19.5L20.97 5.83643Z" stroke="black" stroke-opacity="0.2" stroke-width="1.5" stroke-linecap="round" stroke-linejoin="round"/>
<path d="M12.5002 14.5028C13.4206 14.5028 14.1668 13.7566 14.1668 12.8361C14.1668 11.9156 13.4206 11.1694 12.5002 11.1694C11.5797 11.1694 10.8335 11.9156 10.8335 12.8361C10.8335 13.7566 11.5797 14.5028 12.5002 14.5028Z" stroke="#010101" stroke-width="1.5" stroke-linecap="round" stroke-linejoin="round"/>
<path d="M12.5002 14.5028C13.4206 14.5028 14.1668 13.7566 14.1668 12.8361C14.1668 11.9156 13.4206 11.1694 12.5002 11.1694C11.5797 11.1694 10.8335 11.9156 10.8335 12.8361C10.8335 13.7566 11.5797 14.5028 12.5002 14.5028Z" stroke="black" stroke-opacity="0.2" stroke-width="1.5" stroke-linecap="round" stroke-linejoin="round"/>
<path d="M12.5002 14.5028C13.4206 14.5028 14.1668 13.7566 14.1668 12.8361C14.1668 11.9156 13.4206 11.1694 12.5002 11.1694C11.5797 11.1694 10.8335 11.9156 10.8335 12.8361C10.8335 13.7566 11.5797 14.5028 12.5002 14.5028Z" stroke="black" stroke-opacity="0.2" stroke-width="1.5" stroke-linecap="round" stroke-linejoin="round"/>
<path d="M12.5002 14.5028C13.4206 14.5028 14.1668 13.7566 14.1668 12.8361C14.1668 11.9156 13.4206 11.1694 12.5002 11.1694C11.5797 11.1694 10.8335 11.9156 10.8335 12.8361C10.8335 13.7566 11.5797 14.5028 12.5002 14.5028Z" stroke="black" stroke-opacity="0.2" stroke-width="1.5" stroke-linecap="round" stroke-linejoin="round"/>
<path d="M12.5002 14.5028C13.4206 14.5028 14.1668 13.7566 14.1668 12.8361C14.1668 11.9156 13.4206 11.1694 12.5002 11.1694C11.5797 11.1694 10.8335 11.9156 10.8335 12.8361C10.8335 13.7566 11.5797 14.5028 12.5002 14.5028Z" stroke="black" stroke-opacity="0.2" stroke-width="1.5" stroke-linecap="round" stroke-linejoin="round"/>
<path d="M12.5002 14.5028C13.4206 14.5028 14.1668 13.7566 14.1668 12.8361C14.1668 11.9156 13.4206 11.1694 12.5002 11.1694C11.5797 11.1694 10.8335 11.9156 10.8335 12.8361C10.8335 13.7566 11.5797 14.5028 12.5002 14.5028Z" stroke="black" stroke-opacity="0.2" stroke-width="1.5" stroke-linecap="round" stroke-linejoin="round"/>
<path d="M21.1667 14.5028C22.0871 14.5028 22.8333 13.7566 22.8333 12.8361C22.8333 11.9156 22.0871 11.1694 21.1667 11.1694C20.2462 11.1694 19.5 11.9156 19.5 12.8361C19.5 13.7566 20.2462 14.5028 21.1667 14.5028Z" stroke="#010101" stroke-width="1.5" stroke-linecap="round" stroke-linejoin="round"/>
<path d="M21.1667 14.5028C22.0871 14.5028 22.8333 13.7566 22.8333 12.8361C22.8333 11.9156 22.0871 11.1694 21.1667 11.1694C20.2462 11.1694 19.5 11.9156 19.5 12.8361C19.5 13.7566 20.2462 14.5028 21.1667 14.5028Z" stroke="black" stroke-opacity="0.2" stroke-width="1.5" stroke-linecap="round" stroke-linejoin="round"/>
<path d="M21.1667 14.5028C22.0871 14.5028 22.8333 13.7566 22.8333 12.8361C22.8333 11.9156 22.0871 11.1694 21.1667 11.1694C20.2462 11.1694 19.5 11.9156 19.5 12.8361C19.5 13.7566 20.2462 14.5028 21.1667 14.5028Z" stroke="black" stroke-opacity="0.2" stroke-width="1.5" stroke-linecap="round" stroke-linejoin="round"/>
<path d="M21.1667 14.5028C22.0871 14.5028 22.8333 13.7566 22.8333 12.8361C22.8333 11.9156 22.0871 11.1694 21.1667 11.1694C20.2462 11.1694 19.5 11.9156 19.5 12.8361C19.5 13.7566 20.2462 14.5028 21.1667 14.5028Z" stroke="black" stroke-opacity="0.2" stroke-width="1.5" stroke-linecap="round" stroke-linejoin="round"/>
<path d="M21.1667 14.5028C22.0871 14.5028 22.8333 13.7566 22.8333 12.8361C22.8333 11.9156 22.0871 11.1694 21.1667 11.1694C20.2462 11.1694 19.5 11.9156 19.5 12.8361C19.5 13.7566 20.2462 14.5028 21.1667 14.5028Z" stroke="black" stroke-opacity="0.2" stroke-width="1.5" stroke-linecap="round" stroke-linejoin="round"/>
<path d="M21.1667 14.5028C22.0871 14.5028 22.8333 13.7566 22.8333 12.8361C22.8333 11.9156 22.0871 11.1694 21.1667 11.1694C20.2462 11.1694 19.5 11.9156 19.5 12.8361C19.5 13.7566 20.2462 14.5028 21.1667 14.5028Z" stroke="black" stroke-opacity="0.2" stroke-width="1.5" stroke-linecap="round" stroke-linejoin="round"/>
</svg>
