<svg width="25" height="24" viewBox="0 0 25 24" fill="none" xmlns="http://www.w3.org/2000/svg">
<path d="M8.89998 8.3999L4.65276 10.5235C4.31398 10.6929 4.09998 11.0392 4.09998 11.4179V19.3999C4.09998 19.9522 4.54769 20.3999 5.09998 20.3999H10.1M8.89998 8.3999V4.5999C8.89998 4.04762 9.34769 3.5999 9.89998 3.5999H12.5M8.89998 8.3999L9.80708 9.30701C9.99462 9.49455 10.1 9.7489 10.1 10.0141V20.3999M12.5 3.5999V2.3999M12.5 3.5999H15.1C15.6523 3.5999 16.1 4.04762 16.1 4.5999V9.5999M16.1 9.5999H19.9C20.4523 9.5999 20.9 10.0476 20.9 10.5999V19.3999C20.9 19.9522 20.4523 20.3999 19.9 20.3999H14.9M16.1 9.5999H15.9C15.3477 9.5999 14.9 10.0476 14.9 10.5999V20.3999M14.9 20.3999H10.1" stroke="#8D8D8D" stroke-width="1.5" stroke-linecap="round"/>
</svg>
