<svg width="232" height="40" viewBox="0 0 232 40" fill="none" xmlns="http://www.w3.org/2000/svg">
<path d="M6.86865 19.9868C6.86865 27.6594 13.1175 33.9082 20.7901 33.9082C28.4627 33.9082 34.7115 27.6594 34.7115 19.9868C34.7115 12.3142 28.4627 6.06543 20.7901 6.06543C13.1175 6.06543 6.86865 12.3142 6.86865 19.9868ZM20.7901 6.64549C28.1463 6.64549 34.1578 12.6306 34.1578 20.0132C34.1578 27.3958 28.1726 33.3809 20.7901 33.3809C13.4075 33.3809 7.42232 27.3958 7.42232 20.0132C7.42232 12.6306 13.4075 6.64549 20.7901 6.64549Z" fill="#E0D5F7"/>
<path d="M40.6703 17.7457C40.0375 12.2615 37.2426 7.54195 33.2613 4.35162C29.2537 1.1613 24.0331 -0.499791 18.5489 0.133C13.0647 0.765792 8.34517 3.56061 5.15485 7.54193C1.96453 11.5496 0.303432 16.7701 0.936223 22.2543C1.56901 27.7385 4.36384 32.4581 8.34515 35.6484C12.3528 38.8387 17.5734 40.4998 23.0576 39.867C28.5418 39.2342 33.2613 36.4394 36.4516 32.4581C39.642 28.4504 41.3031 23.2299 40.6703 17.7457ZM36.188 32.2471C33.0504 36.2021 28.4099 38.9442 23.0048 39.5506C17.5997 40.157 12.4583 38.5224 8.52973 35.4111C4.60115 32.2735 1.83272 27.6331 1.22629 22.228C0.619869 16.8229 2.25452 11.6814 5.36574 7.75286C8.50333 3.82428 13.1438 1.05583 18.5489 0.449403C23.954 -0.157022 29.0955 1.47767 33.0241 4.61526C36.9526 7.75285 39.6947 12.3933 40.3275 17.7984C40.9339 23.2035 39.2992 28.345 36.188 32.2735V32.2471Z" fill="#E0D5F7"/>
<path d="M20.7904 32.7744C27.8565 32.7744 33.578 27.0529 33.578 19.9868C33.578 12.9206 27.8565 7.1991 20.7904 7.1991C13.7242 7.1991 8.00269 12.9206 8.00269 19.9868C8.00269 27.0529 13.7242 32.7744 20.7904 32.7744ZM26.5646 15.5836H29.4122C30.2559 15.5836 30.915 15.8209 31.3633 16.3219C31.8115 16.8228 32.0488 17.5347 32.0488 18.4575C32.0488 19.3803 31.8115 20.0922 31.3633 20.5932C30.915 21.0941 30.2559 21.3314 29.4122 21.3314H28.2784V24.3899H26.5646V15.5573V15.5836ZM17.4419 15.5836H19.6302L21.1595 20.3032L22.6887 15.5836H24.8772V24.4163H23.2424V17.9566L21.7132 22.7288H20.6322L19.103 17.9566V24.4163H17.4682V15.5836H17.4419ZM13.2232 15.4254C13.6715 15.4254 14.0934 15.4781 14.4889 15.5836C14.9107 15.6891 15.2798 15.8473 15.649 16.0846V17.9038C15.2798 17.6138 14.9107 17.4029 14.5416 17.271C14.1724 17.1392 13.8033 17.0601 13.4341 17.0601C12.7486 17.0601 12.2214 17.3238 11.8522 17.8248C11.4831 18.3257 11.2985 19.0639 11.2985 19.9868C11.2985 20.9096 11.4831 21.6479 11.8258 22.1488C12.195 22.6498 12.6959 22.9134 13.355 22.9134C13.5396 22.9134 13.6978 22.9134 13.856 22.8607C14.0142 22.8343 14.146 22.7816 14.2779 22.7288V21.0151H13.2232V19.4858H15.9126V23.7308C15.4907 24.0208 15.0425 24.2054 14.5679 24.3636C14.1197 24.4954 13.6187 24.5745 13.1441 24.5745C12.0368 24.5745 11.1403 24.1527 10.5075 23.3353C9.84836 22.5179 9.53198 21.4106 9.53198 19.9868C9.53198 18.563 9.87475 17.4556 10.5339 16.6382C11.1931 15.8209 12.1159 15.4254 13.2496 15.4254H13.2232Z" fill="#E0D5F7"/>
<path d="M30.0185 19.3804C30.203 19.1695 30.2822 18.8531 30.2822 18.4576C30.2822 18.0621 30.203 17.7721 30.0185 17.5348C29.8339 17.3239 29.5702 17.2184 29.2538 17.2184H28.3047V19.6968H29.2538C29.5966 19.6968 29.8339 19.5914 30.0185 19.3804Z" fill="#E0D5F7"/>
<path d="M18.4963 5.01083L18.2854 2.90152L19.63 4.90535L20.5265 4.7999L20.2101 1.71503L19.4455 1.79412L19.6564 3.92981L18.3117 1.92594L17.4153 2.00508L17.7317 5.11628L18.4963 5.01083Z" fill="#E0D5F7"/>
<path d="M22.6619 5.03712C23.1101 5.08985 23.453 5.0371 23.7166 4.85254C23.9539 4.66797 24.1121 4.3516 24.1912 3.92974L24.4549 2.08411L23.6638 1.97862L23.4002 3.82425C23.3738 4.08792 23.2947 4.24615 23.1893 4.35161C23.0838 4.45708 22.952 4.48343 22.7674 4.45706C22.5828 4.43069 22.451 4.35159 22.3719 4.24612C22.2928 4.11429 22.2928 3.92975 22.3192 3.69245L22.5828 1.84678L21.7918 1.74133L21.5282 3.58697C21.4754 4.00883 21.5282 4.35159 21.7128 4.61525C21.8973 4.85255 22.2137 5.01074 22.6619 5.06347V5.03712Z" fill="#E0D5F7"/>
<path d="M34.2894 12.5515C34.184 12.8415 34.2631 13.1843 34.4476 13.6061C34.6585 14.0016 34.8958 14.2653 35.1859 14.3707C35.4759 14.4762 35.8187 14.4235 36.2142 14.2389L37.9016 13.3952L37.5325 12.6833L35.845 13.527C35.6077 13.6325 35.4232 13.6852 35.2914 13.6589C35.1595 13.6589 35.054 13.527 34.9486 13.3688C34.8695 13.2106 34.8432 13.0525 34.9223 12.9206C34.975 12.7888 35.1332 12.6833 35.3705 12.5515L37.0579 11.7078L36.6888 10.9958L35.0014 11.8396C34.6059 12.0242 34.3686 12.2878 34.2631 12.5778L34.2894 12.5515Z" fill="#E0D5F7"/>
<path d="M32.6284 10.5213L33.1031 11.1541L35.1332 9.70395L35.7397 10.5213L36.2407 10.1785L34.5532 7.85828L34.0522 8.20105L34.6587 9.04479L32.6284 10.5213Z" fill="#E0D5F7"/>
<path d="M39.0183 18.6437L35.8831 18.7663L35.914 19.5567L39.0492 19.4341L39.0183 18.6437Z" fill="#E0D5F7"/>
<path d="M35.5027 16.3219L36.6628 16.1109L36.7155 16.3219C36.7155 16.3219 36.7155 16.5591 36.7155 16.6382C36.6628 16.7173 36.5837 16.8228 36.4518 16.9283L35.7663 17.4556L35.9245 18.2993L36.7155 17.6929C36.8737 17.5611 36.9792 17.4556 37.0583 17.3501C37.1374 17.2447 37.1637 17.1392 37.1637 17.0338C37.2691 17.2183 37.401 17.3501 37.5329 17.4292C37.691 17.5083 37.8493 17.5084 38.0602 17.482C38.3502 17.4293 38.5612 17.2974 38.6403 17.0865C38.7457 16.8755 38.7457 16.5592 38.6666 16.1637L38.4293 14.9508L35.3445 15.5309L35.5027 16.3219ZM38.0074 15.8473L38.0602 16.19C38.0866 16.3482 38.0602 16.4801 38.0602 16.5592C38.0075 16.6383 37.9283 16.691 37.7701 16.7173C37.6383 16.7437 37.5065 16.7174 37.4538 16.6646C37.3747 16.6119 37.3219 16.4801 37.2956 16.3219L37.2428 16.0055L38.0338 15.8473H38.0074Z" fill="#E0D5F7"/>
<path d="M25.9577 4.35163L27.1706 4.74711L27.3815 4.1934L26.1423 3.77157L26.3268 3.21786L27.6188 3.66608L27.8297 3.08602L25.7732 2.40051L24.7712 5.35353L25.5359 5.59081L25.9577 4.35163Z" fill="#E0D5F7"/>
<path d="M27.4346 6.38179L27.8828 5.98631L28.9902 6.59272L28.8847 7.17279L29.5966 7.56827L30.0712 4.29887L29.2275 3.85065L26.7227 6.01266L27.4346 6.40818V6.38179ZM29.3329 4.69435L29.122 5.98631L28.3574 5.56444L29.3329 4.69435Z" fill="#E0D5F7"/>
<path d="M31.0203 8.88667C31.1522 8.99214 31.284 9.09761 31.4422 9.1767C31.6004 9.2558 31.7586 9.30857 31.9168 9.33494L32.3387 8.83397C32.1541 8.83397 31.9959 8.78121 31.8641 8.72848C31.7323 8.67575 31.6004 8.59666 31.4686 8.4912C31.2577 8.30663 31.1258 8.09569 31.1258 7.85839C31.1258 7.62109 31.2313 7.35743 31.4158 7.12014C31.6268 6.88284 31.8377 6.72467 32.1014 6.69831C32.3387 6.67194 32.576 6.72464 32.7869 6.9092C32.9188 7.01467 32.9978 7.12014 33.1033 7.25198C33.1824 7.38381 33.2351 7.542 33.2878 7.7002L33.7097 7.19923C33.6569 7.04103 33.5779 6.90923 33.4724 6.7774C33.3669 6.64557 33.2615 6.51374 33.1296 6.40828C32.7341 6.06551 32.3123 5.93369 31.8904 5.96005C31.4685 5.96005 31.0995 6.19734 30.7831 6.56647C30.4667 6.93559 30.3348 7.33108 30.3612 7.75294C30.4139 8.1748 30.6249 8.54391 31.0203 8.88667Z" fill="#E0D5F7"/>
<path d="M6.84222 10.2576C6.84222 10.2576 6.9741 10.4158 7.0532 10.4686C7.1323 10.5213 7.23778 10.574 7.31688 10.6004C7.42234 10.6004 7.5014 10.6268 7.60687 10.6004C7.71233 10.6004 7.79145 10.5477 7.87055 10.4949C7.94965 10.4422 8.02871 10.3895 8.08144 10.284C8.13418 10.2049 8.18696 10.0994 8.21332 10.0203C8.21332 9.91488 8.23969 9.83578 8.21332 9.73031C8.21332 9.62485 8.16057 9.54573 8.10783 9.46664C8.0551 9.38754 8.00241 9.30847 7.89694 9.25574C7.81784 9.20301 7.73873 9.15027 7.63326 9.1239C7.5278 9.1239 7.44865 9.09753 7.34319 9.1239C7.23772 9.1239 7.15869 9.17662 7.07959 9.22935C7.00049 9.28208 6.92135 9.33482 6.86862 9.44028C6.81588 9.51938 6.76318 9.5985 6.73682 9.70396C6.73682 9.80943 6.71045 9.88853 6.73682 9.99399C6.73682 10.0995 6.78949 10.1785 6.84222 10.2576Z" fill="#E0D5F7"/>
<path d="M34.7902 29.6105C34.7902 29.6105 34.6848 29.4523 34.5793 29.3996C34.5002 29.3469 34.3947 29.2941 34.3156 29.2678C34.2102 29.2678 34.1311 29.2414 34.0256 29.2678C33.9202 29.2678 33.8411 29.3205 33.762 29.3732C33.6829 29.4259 33.6037 29.4787 33.551 29.5841C33.4983 29.6632 33.4456 29.7687 33.4192 29.8478C33.4192 29.9533 33.3928 30.0324 33.4192 30.1379C33.4456 30.2433 33.4719 30.3224 33.5247 30.4015C33.5774 30.4806 33.6301 30.5597 33.7356 30.6124C33.8147 30.6652 33.8938 30.7179 33.9993 30.7443C34.1047 30.7443 34.1838 30.7706 34.2892 30.7443C34.3947 30.7443 34.4738 30.6915 34.5529 30.6388C34.632 30.586 34.7112 30.5333 34.7639 30.4279C34.8166 30.3488 34.8693 30.2697 34.8957 30.1642C34.8957 30.0587 34.9221 29.9796 34.8957 29.8742C34.8957 29.7687 34.8429 29.6896 34.7902 29.6105Z" fill="#E0D5F7"/>
<path d="M14.9893 5.37992L16.1757 4.95805L16.5449 5.43262L17.3094 5.16899L15.2001 2.61145L14.3037 2.92783L14.2246 6.24997L14.9893 5.98633V5.37992ZM14.9893 3.45515L15.8066 4.48344L14.9893 4.77347V3.45515Z" fill="#E0D5F7"/>
<path d="M35.8718 21.1205L38.0075 21.3578L35.74 22.2279L35.6345 23.1244L38.7457 23.4671L38.8248 22.7025L36.6892 22.4652L38.9567 21.5951L39.0621 20.6987L35.9509 20.3559L35.8718 21.1205Z" fill="#E0D5F7"/>
<path d="M6.76329 25.2337C6.68419 25.0227 6.57874 24.8118 6.44691 24.6536C6.31508 24.4691 6.18329 24.3108 5.99873 24.1526L4.60132 24.7063L5.07589 25.8664L5.57686 25.6555L5.39227 25.2073L5.94594 24.97C5.94594 24.97 6.02509 25.0755 6.07782 25.1282C6.10419 25.1809 6.15686 25.26 6.18323 25.3391C6.2887 25.6292 6.31506 25.8665 6.18323 26.1038C6.07776 26.3147 5.86689 26.4993 5.57686 26.6311C5.26046 26.7629 4.9968 26.7629 4.75951 26.6838C4.52221 26.5783 4.36398 26.3938 4.23215 26.1038C4.17942 25.9456 4.12672 25.7874 4.10035 25.6028C4.10035 25.4182 4.10035 25.2337 4.10035 25.0491L3.4939 25.2864C3.4939 25.4709 3.49387 25.6555 3.5466 25.8401C3.57297 26.0247 3.62572 26.2092 3.73118 26.4202C3.94211 26.9211 4.23219 27.2639 4.60132 27.4221C4.99681 27.6066 5.41862 27.5803 5.86685 27.4221C6.31507 27.2375 6.63149 26.9475 6.78968 26.552C6.94788 26.1565 6.92154 25.7346 6.73698 25.26L6.76329 25.2337Z" fill="#E0D5F7"/>
<path d="M36.9525 24.2845C36.4779 24.0999 36.056 24.0999 35.6869 24.2845C35.3178 24.469 35.0278 24.7854 34.8432 25.2864C34.7642 25.4973 34.7114 25.7082 34.6851 25.9455C34.6587 26.1565 34.6587 26.3938 34.6851 26.6047L36.0825 27.132L36.5307 25.9719L36.0297 25.7873L35.8451 26.2356L35.265 26.0246C35.265 26.0246 35.265 25.8928 35.265 25.8401C35.265 25.761 35.2915 25.7082 35.3442 25.6291C35.4497 25.3391 35.6342 25.1546 35.8451 25.0491C36.0824 24.9436 36.3461 24.97 36.6625 25.0755C36.9789 25.1809 37.1898 25.3655 37.2953 25.6028C37.4008 25.8401 37.4008 26.0774 37.2953 26.3938C37.2426 26.552 37.1371 26.7102 37.0316 26.842C36.9262 26.9738 36.7943 27.132 36.6361 27.2375L37.2425 27.4748C37.3743 27.3429 37.4798 27.2111 37.5853 27.0266C37.6908 26.8684 37.7699 26.6838 37.849 26.4992C38.0335 25.9983 38.0599 25.5501 37.9017 25.1546C37.7435 24.7591 37.4271 24.469 36.9525 24.3108V24.2845Z" fill="#E0D5F7"/>
<path d="M7.94966 29.5842C7.94966 29.5842 7.81786 29.426 7.73876 29.3733C7.65966 29.3206 7.58055 29.2678 7.47508 29.2415C7.36962 29.2415 7.29048 29.2151 7.18501 29.2415C7.07955 29.2415 7.00049 29.2942 6.89502 29.3469C6.81592 29.3997 6.73678 29.4524 6.68405 29.5315C6.63131 29.6106 6.57861 29.6897 6.55225 29.7952C6.55225 29.9006 6.52588 29.9797 6.55225 30.0852C6.55225 30.1907 6.605 30.2698 6.65773 30.3489C6.71047 30.428 6.76316 30.507 6.86863 30.5598C6.94773 30.6125 7.02684 30.6652 7.13231 30.6916C7.23777 30.6916 7.31683 30.718 7.4223 30.6916C7.52776 30.6916 7.6069 30.6389 7.71237 30.5862C7.79147 30.5334 7.87053 30.4807 7.92326 30.3752C7.976 30.2698 8.02878 30.217 8.05514 30.1115C8.05514 30.0061 8.08151 29.927 8.05514 29.8215C8.05514 29.7161 8.00239 29.637 7.94966 29.5579V29.5842Z" fill="#E0D5F7"/>
<path d="M6.36782 15.3463C6.55238 14.9245 6.65783 14.5817 6.6842 14.3444C6.6842 14.1071 6.6842 13.8698 6.6051 13.6589C6.526 13.4743 6.42055 13.3161 6.28872 13.1843C6.15689 13.0525 5.97235 12.947 5.73505 12.8415C5.52412 12.7624 5.31321 12.7097 5.10228 12.7097C4.91772 12.7097 4.70679 12.7361 4.52222 12.8152C4.31129 12.9206 4.12667 13.0525 3.96847 13.237C3.81027 13.4216 3.65207 13.738 3.46751 14.1862L3.15112 14.9772L6.05143 16.1637L6.36782 15.3727V15.3463ZM5.89324 14.8981L5.78775 15.1618L4.02126 14.4499L4.12666 14.1862C4.25849 13.8698 4.4167 13.6853 4.62763 13.5798C4.83856 13.4743 5.10225 13.5007 5.39227 13.6062C5.6823 13.738 5.86685 13.8962 5.94594 14.1071C6.02504 14.3181 6.02507 14.5817 5.89324 14.8981Z" fill="#E0D5F7"/>
<path d="M4.07383 19.7495C4.57479 19.8023 4.99665 19.6968 5.31305 19.4595C5.62944 19.1958 5.81398 18.8267 5.86672 18.3521C5.91945 17.8512 5.81402 17.4556 5.57672 17.1392C5.31306 16.8228 4.94395 16.6383 4.44299 16.5856C3.94203 16.5328 3.52017 16.6383 3.20377 16.8756C2.88738 17.1129 2.70276 17.5084 2.65002 17.983C2.59729 18.4839 2.7028 18.8794 2.94009 19.1958C3.20376 19.5122 3.57287 19.6968 4.07383 19.7495ZM3.20377 18.0621C3.23014 17.8248 3.33554 17.6402 3.54647 17.5348C3.73103 17.4293 3.99474 17.3765 4.33751 17.4293C4.6539 17.4556 4.91756 17.5611 5.07576 17.7193C5.23396 17.8775 5.31302 18.0621 5.28665 18.3257C5.26029 18.563 5.15481 18.7476 4.94388 18.8531C4.75931 18.9585 4.49568 19.0113 4.15292 18.9585C3.83653 18.9322 3.57287 18.8267 3.41467 18.6685C3.25647 18.5103 3.17741 18.3257 3.20377 18.0621Z" fill="#E0D5F7"/>
<path d="M4.4956 23.7308C4.99655 23.6781 5.36566 23.4936 5.62933 23.1772C5.86662 22.8608 5.97213 22.4653 5.9194 21.9643C5.86667 21.4633 5.6821 21.0942 5.33934 20.8569C5.02294 20.6196 4.60108 20.5142 4.10012 20.5669C3.59916 20.6196 3.22997 20.8042 2.9663 21.1206C2.70264 21.437 2.62358 21.8325 2.67631 22.3334C2.72905 22.8344 2.91361 23.2035 3.25638 23.4408C3.57277 23.6781 3.99464 23.7836 4.4956 23.7308ZM3.28277 22.2543C3.2564 22.017 3.3091 21.8061 3.49366 21.6479C3.65186 21.4897 3.91552 21.3843 4.23192 21.3579C4.54831 21.3315 4.81202 21.3579 5.02295 21.4633C5.23388 21.5688 5.33928 21.7534 5.36565 21.9907C5.39201 22.228 5.33932 22.4389 5.15475 22.5971C4.99655 22.7553 4.7329 22.8608 4.4165 22.8871C4.1001 22.9135 3.83639 22.8871 3.62546 22.7817C3.4409 22.6762 3.30913 22.4916 3.28277 22.2543Z" fill="#E0D5F7"/>
<path d="M11.5619 7.93739L10.3491 6.01262L11.852 7.0409L12.2739 6.77726L11.9838 4.98433L13.223 6.88271L13.8558 6.48723L12.1684 3.87695L11.2983 4.40427L11.6147 6.1972L10.1118 5.16892L9.2417 5.72259L10.9292 8.33286L11.5619 7.93739Z" fill="#E0D5F7"/>
<path d="M31.8378 33.8819L31.3896 33.3281L32.3652 32.5108L31.9696 32.0362L30.9941 32.8536L30.625 32.4317L31.6532 31.5353L31.2841 31.087L29.623 32.4844L31.6269 34.8574L33.3143 33.4336L32.9188 32.959L31.8378 33.8819Z" fill="#E0D5F7"/>
<path d="M29.8602 35.332C29.8602 35.332 29.6229 35.543 29.4911 35.6221C29.2274 35.7539 28.9901 35.7803 28.7791 35.7012C28.5419 35.6221 28.3573 35.4375 28.1991 35.1474C28.0409 34.8574 27.9882 34.5937 28.0409 34.3565C28.0936 34.1192 28.2519 33.9346 28.4892 33.8028C28.621 33.7237 28.7792 33.671 28.911 33.6446C29.0692 33.6182 29.2274 33.6182 29.412 33.6446L29.0955 33.0909C28.9373 33.0909 28.7792 33.1172 28.621 33.17C28.4628 33.2227 28.3046 33.2755 28.1464 33.3546C27.6982 33.5919 27.4081 33.9346 27.2762 34.3301C27.1444 34.7256 27.1972 35.1475 27.4608 35.5693C27.6981 35.9912 28.0145 36.2812 28.4364 36.3867C28.8319 36.4921 29.2801 36.413 29.7284 36.1757C29.8866 36.0966 30.0184 35.9912 30.1502 35.8857C30.2821 35.7802 30.3875 35.6484 30.4666 35.5166L30.1502 34.9629C30.0711 35.1211 29.9657 35.2529 29.8866 35.3584L29.8602 35.332Z" fill="#E0D5F7"/>
<path d="M24.6659 34.9365L21.8447 35.3847L21.9502 35.9912L22.9521 35.833L23.3476 38.2851L24.1387 38.1796L23.7431 35.7012L24.7714 35.5429L24.6659 34.9365Z" fill="#E0D5F7"/>
<path d="M14.5941 34.3565C14.4886 34.1455 14.2514 33.9346 13.9086 33.75L12.8276 33.17L11.3511 35.9121L12.0629 36.2812L12.6166 35.2529L12.8276 35.3584C12.8276 35.3584 13.0121 35.4902 13.0649 35.5693C13.1176 35.6484 13.1176 35.7802 13.1176 35.9648V36.8349L13.8295 37.2304V36.2548C13.8559 36.0439 13.8295 35.8857 13.8295 35.7803C13.8031 35.6748 13.724 35.5693 13.6449 35.4902C13.8559 35.5166 14.0404 35.4902 14.1722 35.4375C14.3304 35.3584 14.4359 35.2529 14.5414 35.0684C14.6732 34.8047 14.6995 34.5674 14.5941 34.3565ZM13.7767 34.7783C13.7767 34.7783 13.6185 34.9893 13.5394 34.9893C13.434 34.9893 13.3286 34.9893 13.1704 34.9102L12.8803 34.752L13.2495 34.0401L13.5394 34.1983C13.6976 34.2774 13.7768 34.3565 13.8031 34.4619C13.8295 34.541 13.8031 34.6465 13.7504 34.7783H13.7767Z" fill="#E0D5F7"/>
<path d="M11.6146 33.6181C11.8256 33.3545 11.9047 33.1172 11.8519 32.8271C11.7992 32.5635 11.6146 32.2998 11.3246 32.0362L10.2963 31.1924L8.31885 33.5918L8.95161 34.0928L9.63716 33.249L10.0326 33.5918C10.349 33.8555 10.639 33.9609 10.9027 33.9609C11.1664 33.9609 11.4301 33.8291 11.6146 33.5918V33.6181ZM10.9555 33.0908C10.9555 33.0908 10.7709 33.249 10.6654 33.249C10.5599 33.249 10.4281 33.1963 10.3226 33.1172L9.97986 32.8271L10.5336 32.168L10.8763 32.458C10.8763 32.458 11.0609 32.669 11.0873 32.7744C11.0873 32.8799 11.0873 32.9854 10.9818 33.0908H10.9555Z" fill="#E0D5F7"/>
<path d="M26.0159 34.4829L25.2629 34.7255L26.2171 37.6868L26.9701 37.4442L26.0159 34.4829Z" fill="#E0D5F7"/>
<path d="M16.4661 34.7784L14.594 37.5204L15.385 37.705L15.7014 37.2041L16.9142 37.4941L16.967 38.1005L17.758 38.2851L17.3888 34.9893L16.4661 34.752V34.7784ZM16.0442 36.7031L16.7561 35.5957L16.8615 36.8877L16.0442 36.6767V36.7031Z" fill="#E0D5F7"/>
<path d="M20.4738 35.332C19.9465 35.332 19.551 35.4375 19.2346 35.7275C18.9182 36.0175 18.76 36.3867 18.7336 36.8876C18.7336 37.3886 18.8655 37.7841 19.1555 38.0741C19.4455 38.3641 19.841 38.5223 20.3683 38.5487C20.5529 38.5487 20.7111 38.5487 20.8693 38.496C21.0275 38.4696 21.1857 38.4169 21.3439 38.3378V37.705C21.3439 37.705 21.0539 37.8632 20.9221 37.9159C20.7639 37.9687 20.632 37.9687 20.4738 37.9687C20.1838 37.9687 19.9729 37.8632 19.8147 37.6786C19.6565 37.4941 19.5774 37.2304 19.6038 36.914C19.6038 36.5976 19.7092 36.3339 19.8674 36.1757C20.0256 35.9912 20.2629 35.9121 20.5529 35.9121C20.7111 35.9121 20.8694 35.9385 21.0012 35.9912C21.133 36.0439 21.2911 36.123 21.423 36.2285V35.5957C21.423 35.5957 21.1594 35.4639 21.0012 35.4111C20.843 35.3584 20.6848 35.332 20.5002 35.332H20.4738Z" fill="#E0D5F7"/>
<g clip-path="url(#clip0_1_7151)">
<path fill-rule="evenodd" clip-rule="evenodd" d="M86.616 39.7962C75.1928 40.4674 66.2231 31.8115 65.5688 21.4649C64.8661 10.354 73.7045 1.31089 84.2202 0.744803C95.5405 0.135411 104.777 8.73906 105.293 19.0467C105.857 30.3216 97.3642 39.1646 86.616 39.7962ZM84.6418 23.7287C84.6411 23.8048 84.6399 23.8817 84.6386 23.9593C84.6283 24.6191 84.6173 25.3207 84.9146 25.8528C85.4067 26.7339 87.2983 26.929 87.0632 24.3616C86.9554 23.185 86.0361 22.4406 85.0009 21.6024C83.7976 20.6282 82.4378 19.5272 82.0134 17.4734C81.7373 16.1371 81.9539 14.5045 82.5687 13.5C83.8315 11.4369 87.7624 11.1532 89.1864 13.0836C89.7368 13.8296 90.1267 15.6317 90.1175 16.9212L87.3637 16.9169C87.3356 16.6891 87.3232 16.4741 87.3114 16.2671C87.2821 15.7571 87.2555 15.2952 87.0028 14.807C86.1978 13.2517 83.313 14.9015 85.8863 17.8966C86.2902 18.3667 86.7945 18.7875 87.3165 19.2232C88.54 20.2442 89.8614 21.3468 90.2184 23.3575C91.2485 29.1582 85.0192 30.3069 82.6259 27.5017C81.989 26.7553 81.5662 25.3398 81.5532 23.7203L84.6418 23.7287ZM98.6 27.6617C98.6 27.0159 98.0676 26.4922 97.4108 26.4922C96.7541 26.4922 96.2216 27.0159 96.2216 27.6617C96.2216 28.3075 96.7541 28.8311 97.4108 28.8311C98.0676 28.8311 98.6 28.3075 98.6 27.6617ZM98.4097 27.6617C98.4097 27.1193 97.9624 26.6794 97.4108 26.6794C96.8593 26.6794 96.4119 27.1193 96.4119 27.6617C96.4119 28.2041 96.8593 28.6441 97.4108 28.6441C97.9624 28.6441 98.4097 28.2041 98.4097 27.6617ZM97.9797 28.3413L97.6573 27.7396C97.8315 27.6862 97.9582 27.5371 97.9582 27.3627C97.9582 27.1225 97.7591 26.9655 97.5153 26.9655H97.1568H96.9604V28.3413H97.1568V27.7597H97.4486L97.7471 28.3413H97.9797ZM97.5229 27.5765H97.1568V27.1492H97.5229C97.649 27.1492 97.7496 27.2479 97.7496 27.3627C97.7496 27.4776 97.6488 27.5765 97.5229 27.5765ZM98.6255 11.9317L91.585 11.9308L91.57 28.6631L94.9294 28.6664L94.932 21.6792L97.5832 21.6633L97.5858 18.7955L94.9424 18.7911L94.9327 14.5022L98.6262 14.4961L98.6255 11.9317ZM74.917 28.736L71.7244 28.7444L71.7108 11.9577L74.5026 11.9299L77.6088 19.9866L77.6223 11.9329L80.5039 11.9332L80.511 28.6384L78.0181 28.6659L74.9276 20.0442L74.917 28.736Z" fill="#E0D5F7"/>
</g>
<path d="M138.729 12.7383V9.19379H129.478V12.7383H131.6V20.3203H129.478V23.8649H138.729V20.3203H136.607V12.7383H138.729Z" fill="#E0D5F7"/>
<path d="M148.939 14.8232C148.367 14.6568 145.425 13.8147 144.915 13.6484C144.406 13.482 143.99 13.2429 143.99 12.9414C143.99 12.6399 144.458 12.3176 145.404 12.3176C148.388 12.3176 149.821 14.1578 149.821 14.1578C149.821 14.1578 149.983 14.373 150.037 14.4502H152.916V9.42964H149.825V10.343C149.589 10.18 147.846 9.04272 145.144 9.04272C141.578 9.04272 139.592 10.8933 139.592 13.6588C139.592 16.4243 142.098 17.5679 142.794 17.859C143.491 18.1501 146.215 18.9194 147.379 19.2833C148.544 19.6472 148.97 19.9071 148.97 20.0942C148.97 20.2814 148.461 20.77 147.005 20.77C144.47 20.77 143.164 19.2749 142.935 18.9854V18.9831C142.862 18.8855 142.777 18.77 142.748 18.7265C142.714 18.6761 142.636 18.5644 142.582 18.4873H139.703V23.8486H142.935V22.729C143.311 22.9793 145.236 24.1801 147.546 24.1801C150.124 24.1801 153.409 23.0572 153.409 19.5536C153.409 16.05 149.511 14.9895 148.939 14.8232Z" fill="#E0D5F7"/>
<path d="M161.615 8.99347C157.317 8.99347 153.792 11.1425 153.792 16.6283C153.792 22.114 157.618 24.1688 161.634 24.1688C165.649 24.1688 169.438 22.1328 169.438 16.6849C169.438 11.237 165.649 8.99347 161.615 8.99347ZM161.653 20.5117C160.182 20.5117 159.24 20.1723 159.24 16.6095C159.24 13.0465 159.937 12.6695 161.709 12.6695C162.784 12.6695 164.084 12.7449 164.084 16.4963C164.084 20.2478 163.123 20.5117 161.653 20.5117Z" fill="#E0D5F7"/>
<path d="M135.642 7.57591C136.608 6.14917 137.797 4.88445 139.159 3.83415C139.709 4.24137 140.295 4.61073 140.91 4.93993C139.879 6.08937 138.955 7.36282 138.802 7.57591H139.421C139.792 7.07538 140.561 6.06849 141.371 5.17581C142.256 5.61105 143.197 5.96702 144.179 6.23816C143.917 6.79259 143.72 7.2774 143.604 7.57591H144.141C144.265 7.2685 144.446 6.83975 144.672 6.366C145.924 6.67199 147.236 6.84349 148.579 6.86961V7.57599H149.078V6.87202C150.411 6.86229 151.716 6.71042 152.964 6.42505C153.176 6.8751 153.348 7.28139 153.466 7.57591H154.004C153.892 7.28921 153.706 6.83093 153.459 6.3037C154.459 6.04371 155.418 5.69705 156.321 5.26863C157.1 6.13761 157.828 7.09276 158.186 7.57591H158.805C158.657 7.36939 157.781 6.16148 156.785 5.03874C157.47 4.68501 158.119 4.28254 158.725 3.83415C160.087 4.88445 161.276 6.14917 162.242 7.57591H162.842C159.89 3.02048 154.762 0 148.942 0C143.121 0 137.993 3.02048 135.042 7.57591H135.642ZM144.401 5.7818C143.467 5.52954 142.571 5.19884 141.727 4.79429C141.841 4.67503 141.956 4.5595 142.07 4.45013C143.226 3.33471 145.129 2.10991 145.546 1.84626C145.884 2.03215 146.253 2.18934 146.646 2.3141C146.341 2.71416 145.742 3.52625 145.09 4.55634C144.836 4.95723 144.605 5.37858 144.401 5.7818ZM148.579 6.37041C147.315 6.34512 146.079 6.18776 144.898 5.90764C145.083 5.5465 145.289 5.17489 145.511 4.8234C146.263 3.63679 146.941 2.74585 147.167 2.45599C147.618 2.56187 148.091 2.62882 148.579 2.6507V6.37041ZM149.078 6.3729V2.65635C149.559 2.6482 150.029 2.5973 150.48 2.50673C150.738 2.84066 151.384 3.69933 152.096 4.8234C152.33 5.19327 152.546 5.58535 152.738 5.96419C151.561 6.22452 150.333 6.36359 149.078 6.3729ZM153.238 5.84601C153.027 5.42349 152.785 4.97852 152.517 4.55634C151.899 3.5794 151.328 2.79841 151.01 2.37906C151.428 2.2617 151.823 2.10916 152.185 1.9246C152.77 2.29988 154.471 3.42104 155.538 4.45013C155.679 4.58678 155.823 4.73275 155.966 4.88412C155.104 5.28227 154.19 5.60456 153.238 5.84601ZM158.307 3.52218C157.722 3.94477 157.096 4.32337 156.438 4.65623C156.254 4.45878 156.068 4.26806 155.884 4.09091C154.886 3.12836 153.4 2.11856 152.672 1.6444C152.919 1.48404 153.145 1.30672 153.347 1.11368C155.149 1.62868 156.823 2.45217 158.307 3.52218ZM148.942 0.499033C150.26 0.499033 151.541 0.659805 152.767 0.960722C151.836 1.71667 150.442 2.16015 148.942 2.16015C147.435 2.16015 146.045 1.71809 145.115 0.961138C146.342 0.659971 147.623 0.499033 148.942 0.499033ZM144.537 1.11368C144.701 1.27104 144.881 1.41825 145.075 1.55399C144.416 1.9785 142.791 3.06149 141.723 4.09082C141.57 4.23904 141.415 4.3969 141.26 4.56008C140.67 4.25093 140.107 3.90469 139.577 3.52218C141.061 2.45217 142.734 1.62876 144.537 1.11368Z" fill="#E0D5F7"/>
<path d="M162.242 25.5272C161.297 26.924 160.138 28.1652 158.812 29.2022C158.18 28.7273 157.503 28.3028 156.786 27.932C157.649 26.9579 158.423 25.9197 158.71 25.5273H158.088C157.705 26.0388 157.034 26.9066 156.321 27.7023C155.418 27.2737 154.459 26.9268 153.46 26.6669C153.671 26.2143 153.838 25.8133 153.952 25.5273H153.412C153.298 25.8061 153.146 26.1599 152.964 26.546C151.716 26.2611 150.412 26.1093 149.078 26.0996V25.5273H148.579V26.1019C147.235 26.1279 145.923 26.2992 144.671 26.6048C144.476 26.1959 144.315 25.8202 144.195 25.5273H143.656C143.775 25.8271 143.952 26.2533 144.178 26.7325C143.196 27.0037 142.255 27.3592 141.37 27.7947C140.626 26.9747 139.917 26.0587 139.519 25.5272H138.898C139.194 25.9327 140.011 27.0291 140.91 28.0313C140.263 28.3781 139.648 28.769 139.072 29.2021C137.746 28.1651 136.587 26.9239 135.641 25.5272H135.042C137.994 30.0826 143.121 33.1031 148.942 33.1031C154.762 33.1031 159.89 30.0827 162.842 25.5272L162.242 25.5272ZM153.239 27.1248C154.19 27.3662 155.104 27.6884 155.967 28.0867C155.823 28.2382 155.68 28.3845 155.538 28.5214C154.474 29.5471 152.779 30.6657 152.189 31.044C151.827 30.8587 151.432 30.7061 151.013 30.5888C151.331 30.1687 151.9 29.3892 152.517 28.415C152.785 27.9927 153.027 27.5475 153.239 27.1248ZM149.078 26.5986C150.333 26.6079 151.562 26.7465 152.738 27.0065C152.546 27.3856 152.33 27.7778 152.096 28.148C151.385 29.2705 150.74 30.1282 150.481 30.4632C150.032 30.3737 149.561 30.3232 149.078 30.3152V26.5986H149.078ZM148.579 26.6011V30.3204C148.089 30.3421 147.615 30.4082 147.165 30.5133C146.938 30.2213 146.262 29.3329 145.511 28.148C145.288 27.7963 145.082 27.4244 144.897 27.0629C146.078 26.7831 147.314 26.6263 148.579 26.6011ZM144.401 27.1892C144.604 27.5927 144.836 28.014 145.09 28.4151C145.742 29.4443 146.34 30.2559 146.645 30.6563C146.252 30.781 145.883 30.9383 145.545 31.1247C145.126 30.8599 143.225 29.636 142.069 28.5214C141.956 28.4119 141.841 28.2962 141.726 28.1769C142.571 27.7721 143.467 27.4414 144.401 27.1892ZM139.486 29.515C140.042 29.1061 140.635 28.7375 141.259 28.4107C141.414 28.5741 141.569 28.7322 141.723 28.8806C142.79 29.9097 144.415 30.9924 145.075 31.4171C144.84 31.5817 144.625 31.7627 144.435 31.9591C142.635 31.4316 140.965 30.5966 139.486 29.515ZM148.942 32.6041C147.581 32.6041 146.259 32.4332 144.996 32.1129C145.918 31.3026 147.383 30.8113 148.942 30.8113C150.499 30.8113 151.965 31.303 152.887 32.113C151.624 32.4333 150.303 32.6041 148.942 32.6041ZM153.449 31.9591C153.222 31.7258 152.963 31.5131 152.675 31.3248C153.404 30.8498 154.887 29.8416 155.884 28.8805C156.068 28.7033 156.253 28.5125 156.438 28.3148C157.13 28.665 157.786 29.0656 158.397 29.5149C156.918 30.5967 155.249 31.4317 153.449 31.9591Z" fill="#E0D5F7"/>
<path d="M130.429 38.3958C130.451 38.8087 130.611 39.094 130.907 39.2519C131.059 39.3351 131.231 39.3766 131.422 39.3766C131.78 39.3766 132.084 39.2277 132.337 38.9299C132.589 38.632 132.768 38.0273 132.873 37.1158C132.707 37.379 132.501 37.5639 132.256 37.6706C132.01 37.7773 131.747 37.8306 131.464 37.8306C130.89 37.8306 130.437 37.6521 130.103 37.2951C129.769 36.9381 129.602 36.4786 129.602 35.9167C129.602 35.3771 129.767 34.9023 130.097 34.4927C130.426 34.0831 130.913 33.8782 131.555 33.8782C132.423 33.8782 133.021 34.2686 133.351 35.0495C133.534 35.4786 133.625 36.0158 133.625 36.6609C133.625 37.3891 133.516 38.0342 133.297 38.5963C132.934 39.5322 132.319 40.0001 131.451 40.0001C130.87 40.0001 130.428 39.8477 130.126 39.5429C129.824 39.2382 129.673 38.8558 129.673 38.3959H130.429V38.3958ZM132.376 36.8814C132.621 36.6864 132.744 36.3455 132.744 35.8586C132.744 35.4215 132.634 35.0958 132.414 34.8814C132.193 34.667 131.913 34.5598 131.572 34.5598C131.206 34.5598 130.916 34.6823 130.701 34.927C130.487 35.1718 130.379 35.499 130.379 35.9084C130.379 36.2956 130.473 36.6035 130.662 36.8317C130.85 37.0599 131.151 37.1739 131.564 37.1739C131.86 37.1739 132.131 37.0765 132.376 36.8814Z" fill="#E0D5F7"/>
<path d="M138.006 34.8383C138.272 35.3287 138.405 36.0006 138.405 36.854C138.405 37.663 138.284 38.332 138.043 38.8613C137.694 39.6204 137.123 40 136.331 40C135.616 40 135.084 39.6898 134.735 39.0691C134.444 38.551 134.299 37.8555 134.299 36.9828C134.299 36.3068 134.386 35.7263 134.56 35.2413C134.887 34.3382 135.479 33.8865 136.335 33.8865C137.105 33.8865 137.662 34.2038 138.006 34.8383ZM137.253 38.803C137.483 38.4595 137.598 37.8195 137.598 36.883C137.598 36.207 137.515 35.6507 137.349 35.2144C137.182 34.778 136.859 34.5598 136.379 34.5598C135.937 34.5598 135.615 34.7669 135.411 35.1812C135.207 35.5954 135.105 36.2055 135.105 37.0119C135.105 37.6186 135.17 38.1064 135.3 38.4748C135.5 39.0373 135.842 39.3185 136.324 39.3185C136.713 39.3184 137.022 39.1466 137.253 38.803Z" fill="#E0D5F7"/>
<path d="M142.739 34.8383C143.005 35.3287 143.138 36.0006 143.138 36.854C143.138 37.663 143.018 38.332 142.777 38.8613C142.428 39.6204 141.857 40 141.065 40C140.35 40 139.818 39.6898 139.469 39.0691C139.178 38.551 139.032 37.8555 139.032 36.9828C139.032 36.3068 139.12 35.7263 139.294 35.2413C139.621 34.3382 140.213 33.8865 141.069 33.8865C141.839 33.8865 142.396 34.2038 142.739 34.8383ZM141.987 38.803C142.217 38.4595 142.332 37.8195 142.332 36.883C142.332 36.207 142.249 35.6507 142.082 35.2144C141.916 34.778 141.592 34.5598 141.112 34.5598C140.671 34.5598 140.348 34.7669 140.144 35.1812C139.94 35.5954 139.838 36.2055 139.838 37.0119C139.838 37.6186 139.904 38.1064 140.034 38.4748C140.234 39.0373 140.575 39.3185 141.058 39.3185C141.447 39.3184 141.756 39.1466 141.987 38.803Z" fill="#E0D5F7"/>
<path d="M144.315 35.6237V35.0502C144.855 34.9975 145.232 34.9096 145.445 34.7863C145.659 34.663 145.818 34.3714 145.923 33.9114H146.513V39.8378H145.715V35.6236L144.315 35.6237Z" fill="#E0D5F7"/>
<path d="M149.177 35.445H150.046V36.351H149.177V35.445ZM149.177 38.9318H150.046V39.8379H149.177V38.9318Z" fill="#E0D5F7"/>
<path d="M151.182 38.4996C151.366 38.1201 151.726 37.7751 152.261 37.4648L153.059 37.0035C153.416 36.7957 153.667 36.6182 153.811 36.4712C154.038 36.2407 154.152 35.977 154.152 35.6799C154.152 35.3329 154.048 35.0574 153.84 34.8534C153.632 34.6493 153.355 34.5473 153.009 34.5473C152.496 34.5473 152.142 34.7419 151.945 35.1309C151.84 35.3393 151.781 35.6283 151.77 35.9978H151.01C151.018 35.4797 151.114 35.0571 151.296 34.7303C151.621 34.154 152.193 33.8658 153.013 33.8658C153.694 33.8658 154.192 34.0501 154.507 34.4185C154.821 34.7871 154.979 35.1971 154.979 35.6487C154.979 36.1252 154.811 36.5326 154.476 36.8705C154.282 37.0673 153.934 37.3055 153.433 37.5854L152.863 37.9013C152.592 38.0509 152.378 38.1936 152.223 38.3293C151.946 38.5703 151.772 38.8377 151.7 39.1314H154.95V39.838H150.864C150.892 39.3254 150.998 38.8792 151.182 38.4996Z" fill="#E0D5F7"/>
<path d="M159.305 34.8383C159.571 35.3287 159.704 36.0006 159.704 36.854C159.704 37.663 159.584 38.332 159.343 38.8613C158.994 39.6204 158.423 40 157.63 40C156.916 40 156.384 39.6898 156.034 39.0691C155.744 38.551 155.598 37.8555 155.598 36.9828C155.598 36.3068 155.685 35.7263 155.86 35.2413C156.187 34.3382 156.778 33.8865 157.635 33.8865C158.405 33.8865 158.962 34.2038 159.305 34.8383ZM158.552 38.803C158.783 38.4595 158.898 37.8195 158.898 36.883C158.898 36.207 158.815 35.6507 158.648 35.2144C158.482 34.778 158.158 34.5598 157.678 34.5598C157.237 34.5598 156.914 34.7669 156.71 35.1812C156.506 35.5954 156.404 36.2055 156.404 37.0119C156.404 37.6186 156.469 38.1064 156.6 38.4748C156.8 39.0373 157.141 39.3185 157.624 39.3185C158.013 39.3184 158.322 39.1466 158.552 38.803Z" fill="#E0D5F7"/>
<path d="M160.88 35.6237V35.0502C161.421 34.9975 161.797 34.9096 162.011 34.7863C162.224 34.663 162.383 34.3714 162.489 33.9114H163.079V39.8378H162.281V35.6236L160.88 35.6237Z" fill="#E0D5F7"/>
<path d="M165.851 38.321C165.901 38.7476 166.099 39.0427 166.445 39.2062C166.622 39.2893 166.828 39.3309 167.06 39.3309C167.504 39.3309 167.832 39.1896 168.045 38.9069C168.258 38.6244 168.365 38.3113 168.365 37.9677C168.365 37.5521 168.239 37.2307 167.985 37.0035C167.732 36.7763 167.427 36.6627 167.073 36.6627C166.815 36.6627 166.594 36.7126 166.41 36.8123C166.226 36.912 166.068 37.0506 165.938 37.2279L165.29 37.1905L165.743 33.9863H168.835V34.7094H166.304L166.05 36.3635C166.189 36.2582 166.32 36.1793 166.445 36.1265C166.667 36.0351 166.923 35.9895 167.214 35.9895C167.76 35.9895 168.222 36.1654 168.602 36.5173C168.982 36.8691 169.171 37.3152 169.171 37.8555C169.171 38.418 168.997 38.914 168.65 39.3434C168.302 39.7729 167.747 39.9876 166.985 39.9876C166.5 39.9876 166.072 39.851 165.699 39.5782C165.326 39.3054 165.118 38.8863 165.073 38.321L165.851 38.321Z" fill="#E0D5F7"/>
<path fill-rule="evenodd" clip-rule="evenodd" d="M212.719 0C221.674 0 229.255 5.88579 231.804 14H193.635C196.183 5.88579 203.764 0 212.719 0ZM208.08 8.63072L208.538 9.78628L209.779 9.86491L208.822 10.6547L209.129 11.8581L208.08 11.1914L207.03 11.8581L207.341 10.6547L206.384 9.86491L207.622 9.78628L208.08 8.63072ZM203.454 8.63086L203.912 9.78642L205.153 9.86505L204.196 10.6548L204.504 11.8582L203.454 11.1915L202.408 11.8582L202.716 10.6548L201.758 9.86505L203 9.78642L203.454 8.63086ZM213.16 9.78628L212.705 8.63072L212.247 9.78628L211.006 9.86491L211.964 10.6547L211.656 11.8581L212.705 11.1914L213.755 11.8581L213.444 10.6547L214.401 9.86491L213.16 9.78628ZM217.327 8.63072L217.786 9.78628L219.027 9.86491L218.069 10.6547L218.377 11.8581L217.327 11.1914L216.281 11.8581L216.589 10.6547L215.632 9.86491L216.873 9.78628L217.327 8.63072ZM223.652 9.86491L222.411 9.78628L221.953 8.63072L221.495 9.78628L220.257 9.86491L221.215 10.6547L220.904 11.8581L221.953 11.1914L223.003 11.8581L222.695 10.6547L223.652 9.86491Z" fill="#E0D5F7"/>
<path fill-rule="evenodd" clip-rule="evenodd" d="M232 25.3333C229.666 33.7898 221.918 40 212.719 40C203.52 40 195.772 33.7898 193.438 25.3333H232ZM208.08 27.5606L208.538 28.7162L209.779 28.7948L208.822 29.5845L209.129 30.788L208.08 30.1213L207.03 30.788L207.341 29.5845L206.384 28.7948L207.622 28.7162L208.08 27.5606ZM203.454 27.5606L203.912 28.7162L205.153 28.7948L204.196 29.5845L204.504 30.788L203.454 30.1213L202.408 30.788L202.716 29.5845L201.758 28.7948L203 28.7162L203.454 27.5606ZM213.16 28.7162L212.705 27.5606L212.247 28.7162L211.006 28.7948L211.964 29.5845L211.656 30.788L212.705 30.1213L213.755 30.788L213.444 29.5845L214.401 28.7948L213.16 28.7162ZM217.327 27.5606L217.786 28.7162L219.027 28.7948L218.069 29.5845L218.377 30.788L217.327 30.1213L216.281 30.788L216.589 29.5845L215.632 28.7948L216.873 28.7162L217.327 27.5606ZM223.652 28.7948L222.411 28.7162L221.953 27.5606L221.495 28.7162L220.257 28.7948L221.215 29.5845L220.904 30.788L221.953 30.1213L223.003 30.788L222.695 29.5845L223.652 28.7948Z" fill="#E0D5F7"/>
<path d="M203.897 15.759V20.2991C203.897 20.7538 204.006 21.106 204.222 21.3521C204.441 21.5983 204.758 21.7214 205.179 21.7214C205.599 21.7214 205.921 21.5983 206.146 21.3521C206.372 21.106 206.482 20.7573 206.482 20.2991V15.759H208.28V20.2991C208.28 20.9726 208.133 21.5436 207.839 22.0154C207.545 22.4872 207.158 22.8462 206.68 23.082C206.201 23.3214 205.692 23.441 205.145 23.441C204.598 23.441 204.092 23.3214 203.623 23.082C203.158 22.8427 202.786 22.4872 202.509 22.0154C202.232 21.5436 202.092 20.9692 202.092 20.2991V15.759H203.89H203.897Z" fill="#E0D5F7"/>
<path d="M214.865 22.2683C214.635 22.6273 214.314 22.9111 213.897 23.123C213.48 23.335 213.008 23.441 212.482 23.441C211.62 23.441 210.933 23.2359 210.424 22.8222C209.914 22.4085 209.661 21.8239 209.661 21.0649H211.576C211.624 21.6735 211.928 21.9743 212.482 21.9743C212.741 21.9743 212.943 21.9025 213.094 21.7624C213.241 21.6222 213.316 21.4342 213.316 21.2051C213.316 21.0034 213.254 20.8359 213.128 20.7059C213.001 20.576 212.847 20.4735 212.666 20.4017C212.485 20.3299 212.222 20.2444 211.877 20.1418C211.415 20.0119 211.035 19.8786 210.741 19.7418C210.447 19.6051 210.194 19.3965 209.983 19.1128C209.771 18.8324 209.668 18.4564 209.668 17.9846C209.668 17.5128 209.788 17.1025 210.027 16.7504C210.266 16.3948 210.591 16.1248 211.001 15.9333C211.412 15.7418 211.866 15.6461 212.365 15.6461C213.186 15.6461 213.842 15.8307 214.331 16.2034C214.824 16.576 215.08 17.1641 215.1 17.9641H213.145C213.118 17.6906 213.032 17.4786 212.888 17.3316C212.745 17.1846 212.564 17.1094 212.345 17.1094C212.112 17.1094 211.924 17.1709 211.781 17.294C211.637 17.4171 211.565 17.6051 211.565 17.8581C211.565 18.0666 211.627 18.2376 211.753 18.3743C211.88 18.5077 212.041 18.6136 212.232 18.6889C212.424 18.7641 212.687 18.8461 213.015 18.9316C213.483 19.0683 213.866 19.2017 214.157 19.3316C214.447 19.4615 214.697 19.67 214.906 19.9538C215.114 20.241 215.217 20.6205 215.217 21.0957C215.217 21.5162 215.104 21.9025 214.875 22.2615L214.865 22.2683Z" fill="#E0D5F7"/>
<path d="M220.909 22.0906H218.256L217.846 23.3692H215.931L218.499 15.7385H220.687L223.244 23.3692H221.319L220.909 22.0906ZM220.458 20.6821L219.586 17.9709L218.714 20.6821H220.461H220.458Z" fill="#E0D5F7"/>
<defs>
<clipPath id="clip0_1_7151">
<rect width="40.6745" height="40" fill="white" transform="translate(64.8032)"/>
</clipPath>
</defs>
</svg>
