<svg width="41" height="40" viewBox="0 0 41 40" fill="none" xmlns="http://www.w3.org/2000/svg">
<path d="M40.25 20.0007C40.25 30.102 32.7624 38.4529 23.0353 39.808C22.1258 39.9341 21.1952 40 20.2507 40C19.1604 40 18.0898 39.9131 17.0471 39.7449C7.52324 38.2118 0.25 29.9548 0.25 20.0007C0.25 8.95491 9.20491 0 20.2493 0C31.2937 0 40.25 8.95491 40.25 20.0007Z" fill="#1877F2"/>
<path d="M23.0348 16.0592V20.4162H28.4246L27.5711 26.2852H23.0348V39.8073C22.1253 39.9334 21.1948 39.9993 20.2503 39.9993C19.16 39.9993 18.0893 39.9124 17.0467 39.7442V26.2852H12.0759V20.4162H17.0467V15.0853C17.0467 11.778 19.7275 9.0957 23.0362 9.0957V9.09851C23.046 9.09851 23.0545 9.0957 23.0643 9.0957H28.426V14.1716H24.9225C23.8813 14.1716 23.0362 15.0166 23.0362 16.0578L23.0348 16.0592Z" fill="white"/>
</svg>
