<svg width="40" height="40" viewBox="0 0 40 40" fill="none" xmlns="http://www.w3.org/2000/svg">
<path d="M20.0455 0H19.9545C8.93392 0 0 8.93391 0 19.9545V20.0455C0 31.0661 8.93392 40 19.9545 40H20.0455C31.0661 40 40 31.0661 40 20.0455V19.9545C40 8.93391 31.0661 0 20.0455 0Z" fill="url(#paint0_linear_1_7639)"/>
<path d="M26.1891 8.1377H13.812C10.3926 8.1377 7.61084 10.9195 7.61084 14.3389V25.6621C7.61084 29.0815 10.3926 31.8633 13.812 31.8633H26.1891C29.6085 31.8633 32.3903 29.0815 32.3903 25.6621V14.3389C32.3903 10.9195 29.6085 8.1377 26.1891 8.1377ZM9.79842 14.3389C9.79842 12.1261 11.5992 10.3253 13.812 10.3253H26.1891C28.4019 10.3253 30.2027 12.1261 30.2027 14.3389V25.6621C30.2027 27.8749 28.4019 29.6757 26.1891 29.6757H13.812C11.5992 29.6757 9.79842 27.8749 9.79842 25.6621V14.3389Z" fill="white"/>
<path d="M20.0006 25.7677C23.1803 25.7677 25.7687 23.1807 25.7687 19.9996C25.7687 16.8184 23.1817 14.2314 20.0006 14.2314C16.8194 14.2314 14.2324 16.8184 14.2324 19.9996C14.2324 23.1807 16.8194 25.7677 20.0006 25.7677ZM20.0006 16.4204C21.9751 16.4204 23.5811 18.0264 23.5811 20.001C23.5811 21.9756 21.9751 23.5815 20.0006 23.5815C18.026 23.5815 16.42 21.9756 16.42 20.001C16.42 18.0264 18.026 16.4204 20.0006 16.4204Z" fill="white"/>
<path d="M26.3025 15.163C27.1585 15.163 27.8562 14.4665 27.8562 13.6088C27.8562 12.7512 27.1599 12.0547 26.3025 12.0547C25.4451 12.0547 24.7488 12.7512 24.7488 13.6088C24.7488 14.4665 25.4451 15.163 26.3025 15.163Z" fill="white"/>
<defs>
<linearGradient id="paint0_linear_1_7639" x1="5.84381" y1="34.1562" x2="34.1562" y2="5.84522" gradientUnits="userSpaceOnUse">
<stop stop-color="#FAAD4F"/>
<stop offset="0.35" stop-color="#DD2A7B"/>
<stop offset="0.62" stop-color="#9537B0"/>
<stop offset="1" stop-color="#515BD4"/>
</linearGradient>
</defs>
</svg>
