<svg width="181" height="60" viewBox="0 0 181 60" fill="none" xmlns="http://www.w3.org/2000/svg">
<path d="M65.7096 26.0882V43.2324H72.2334V22.7546L65.7096 26.0882Z" fill="#FAFAFC"/>
<path d="M72.3722 17.4633C72.1223 16.8019 71.5949 16.1404 70.9564 15.7171C69.4573 14.8705 67.3475 15.1086 66.1815 16.2727C65.3209 17.04 64.9045 18.3364 65.1266 19.5798C65.2932 20.744 66.2926 21.67 67.1254 22.0404C68.5134 22.5695 70.5677 22.4637 71.817 20.9821C72.5387 20.1354 72.7886 18.6538 72.3722 17.4633Z" fill="#FAFAFC"/>
<path d="M33.174 26.0883C32.8409 24.8184 31.7027 23.7072 30.398 23.4162C27.3998 22.7018 24.6515 23.813 23.0969 26.3264L22.9581 26.5646L22.847 26.3C22.0697 24.4215 20.8205 23.3897 19.1549 23.231C16.3788 22.8077 14.2412 23.8395 12.1869 26.4852L11.9371 26.8291V22.9399C11.5484 23.1251 5.63538 26.009 5.63538 26.009V43.2325H11.9371V30.3215C11.9371 29.3161 12.992 28.4166 14.0469 28.4695C15.0185 28.4959 16.0179 29.3955 16.0179 30.3215C16.0179 30.3215 16.0179 42.9679 16.0179 43.206H22.5972C22.5972 42.9679 22.5972 30.3215 22.5972 30.3215C22.5972 29.2896 23.7354 28.4166 24.818 28.4695C25.7897 28.5224 26.7335 29.3955 26.7335 30.3215V43.206H33.3683V28.2843C33.3683 27.7022 33.3683 26.8027 33.174 26.0883Z" fill="#FAFAFC"/>
<path d="M51.635 40.8247C51.0798 40.7718 50.9132 39.6342 50.9132 39.6342L49.7195 32.8347L49.4419 31.5119C49.1365 30.1096 48.8589 28.628 48.2759 27.2787C46.4159 23.2043 41.1414 22.5165 37.2271 23.6277C36.5887 23.8129 36.0057 24.1039 36.0057 24.1039V26.6438C37.6158 25.9823 39.1704 25.9294 40.4474 26.5115C42.0853 27.2787 42.5572 29.2101 42.6405 30.0038C42.6405 30.0303 42.7793 30.9033 42.7793 30.9033C40.8638 31.1679 38.5041 31.6177 36.7552 32.8083C34.812 34.1311 33.7848 36.2477 34.0069 38.4436C34.0902 40.7983 35.9779 42.6503 37.8101 43.3117C40.2531 44.1319 43.6121 43.9996 45.6109 41.8037L45.8607 41.5391L46.4159 42.0682C47.8595 43.5234 49.4696 43.4704 51.3018 43.4175L52.2735 43.3911V40.9041C52.3012 40.9041 51.6627 40.8247 51.635 40.8247ZM43.2512 33.893L44.4449 39.3961C41.3913 42.7826 36.311 36.8562 43.2512 33.893Z" fill="#FAFAFC"/>
<path d="M64.1272 22.7811C61.2401 22.7811 59.6855 25.9559 59.6577 26.0089L59.3801 26.6174V26.2205V22.7546L52.9674 26.0882V43.2853H59.4079V32.2792L59.4357 31.8559C59.4912 30.9563 59.5467 30.0039 59.9909 29.2102C60.9625 27.4375 63.1834 27.464 64.738 27.6757L65.8761 23.0457C65.8761 23.0721 65.1544 22.7811 64.1272 22.7811Z" fill="#FAFAFC"/>
<path d="M155.987 23.0721C155.987 23.0721 155.266 22.7811 154.239 22.7811C151.351 22.7811 149.797 25.9559 149.769 26.0089L149.491 26.6174V26.2205V22.7546L143.079 26.0882V43.2853H149.519V32.2792L149.547 31.8559C149.603 30.9563 149.658 30.0039 150.102 29.2102C151.074 27.4375 153.295 27.464 154.849 27.6757L155.987 23.0721Z" fill="#FAFAFC"/>
<path d="M142.468 17.2516C142.218 16.5902 141.691 15.9288 141.052 15.5054C139.553 14.6588 137.443 14.8969 136.277 16.061C135.417 16.8283 135 18.1247 135.222 19.3682C135.389 20.5323 136.388 21.4583 137.221 21.8287C138.609 22.3578 140.664 22.252 141.913 20.7704C142.635 19.9238 142.857 18.4686 142.468 17.2516Z" fill="#FAFAFC"/>
<path d="M164.871 40.6662C162.317 40.481 161.123 36.0098 161.123 36.0098L172.2 32.5968C172.2 32.5968 171.978 27.9933 169.313 25.4799C166.87 23.1781 163.15 22.5167 159.735 23.8395C157.709 24.5803 155.821 26.5911 154.96 28.9722C153.267 33.4699 154.266 38.4968 157.487 41.4864C160.457 44.185 165.065 44.1321 168.369 43.1797L170.034 42.4918V39.6344C170.034 39.6344 168.036 40.8779 164.871 40.6662ZM160.957 33.0995C160.79 31.1681 161.04 29.1045 161.512 28.1521C162.012 27.1996 162.567 26.8027 163.261 26.7234C166.203 26.3794 166.509 31.5121 166.509 31.5121L160.957 33.0995Z" fill="#FAFAFC"/>
<path d="M135.778 26.0882V43.2324H142.301V22.7546L135.778 26.0882Z" fill="#FAFAFC"/>
<path d="M88.168 25.4533C85.7251 23.1515 82.0051 22.4901 78.5906 23.8129C76.564 24.5537 74.6763 26.5645 73.8157 28.9456C72.1223 33.4433 73.1217 38.4701 76.3419 41.4598C79.3123 44.1584 83.9206 44.1055 87.2242 43.153L88.8898 42.4652V39.6078C88.8898 39.6078 86.8633 40.8513 83.7263 40.6132C81.1723 40.428 79.9786 35.9567 79.9786 35.9567L91.0551 32.5438C91.0551 32.5702 90.833 27.9667 88.168 25.4533ZM79.812 33.1258C79.6455 31.168 79.8953 29.1044 80.3673 28.1519C80.8669 27.1994 81.4222 26.8026 82.1162 26.7232C85.0588 26.3793 85.3642 31.5119 85.3642 31.5119L79.812 33.1258Z" fill="#FAFAFC"/>
<path d="M104.852 39.9782C103.131 39.1316 101.715 37.8881 101.521 34.3164C101.299 30.1626 102.187 27.2259 104.519 26.3793C106.296 25.7443 108.711 27.1465 108.711 27.1465L108.739 23.7865C108.739 23.7865 105.407 22.252 101.66 23.3896C98.273 24.4214 96.1076 26.9349 95.3303 31.0357C94.7751 34.0254 95.2193 37.3325 96.7739 39.9253C98.5506 42.7297 101.965 44.1849 105.824 43.7086C106.879 43.5764 109.072 42.9414 109.072 42.9414L109.044 39.8194C109.044 39.793 106.629 40.8513 104.852 39.9782Z" fill="#FAFAFC"/>
<path d="M134.445 40.6133C133.89 40.5604 133.723 39.4227 133.723 39.4227L132.53 32.6233L132.252 31.3004C131.947 29.8982 131.669 28.4166 131.086 27.0673C129.226 22.9929 123.952 22.305 120.037 23.4162C119.399 23.6014 118.816 23.8925 118.816 23.8925V26.4323C120.426 25.7709 121.981 25.718 123.258 26.3001C124.895 27.0673 125.367 28.9987 125.451 29.7924C125.451 29.8188 125.589 30.6919 125.589 30.6919C123.674 30.9565 121.314 31.4063 119.565 32.5968C117.622 33.9197 116.595 36.0362 116.817 38.2322C116.9 40.5869 118.788 42.4389 120.62 43.1003C123.063 43.9205 126.422 43.7882 128.421 41.5922L128.671 41.3277L129.226 41.8568C130.67 43.3119 132.28 43.259 134.112 43.2061L135.084 43.1797V40.6927C135.111 40.7191 134.473 40.6133 134.445 40.6133ZM126.061 33.708L127.255 39.2111C124.201 42.5976 119.121 36.6712 126.061 33.708Z" fill="#FAFAFC"/>
<path d="M109.71 43.1794H116.123V16.5901L109.71 19.8708V43.1794Z" fill="#FAFAFC"/>
</svg>
