<svg width="175" height="60" viewBox="0 0 175 60" fill="none" xmlns="http://www.w3.org/2000/svg">
<path d="M21.5798 38.8479L24.4249 23.9896C24.5859 23.2276 24.8544 23.1006 25.3375 23.1006H25.6059V22.254H20.9893V23.1006H21.2846C21.9287 23.1006 22.2508 23.3405 22.1703 23.9896L20.533 32.8791L18.6542 23.9896C18.4932 23.2982 18.8152 23.1006 19.5399 23.1006H19.6205V22.254H13.1787V23.1006H13.5008C14.1182 23.1006 14.1182 23.2276 14.2255 23.9896L14.7086 26.2613L13.2056 33.4577L11.5146 24.0037C11.2999 23.2417 11.5952 23.1147 12.2393 23.1147H12.3198V22.2681H5.79761V23.1147H6.11969C6.7907 23.1147 6.84438 23.2417 7.00543 24.0037L9.9042 38.862H14.0913L15.7286 31.2282L17.4195 38.862C17.4195 38.8479 21.5798 38.8479 21.5798 38.8479ZM49.306 29.1117C49.306 28.0816 49.306 27.7147 50.5407 27.7147C51.3996 27.7147 51.3996 27.884 51.3996 28.7448V37.6061C51.3996 37.9307 51.1849 37.9871 50.8628 37.9871H50.6749V38.8337H57.1703V37.9871H56.8751C56.4456 37.9871 56.3114 37.9025 56.3114 37.5638V28.2791C56.3114 26.7552 55.6941 26.1626 52.849 26.1626C51.1849 26.1626 50.0039 26.4448 49.2255 27.3902C48.9034 26.5436 48.0445 26.1626 45.8436 26.1626C44.0185 26.1626 43.0522 26.4589 42.3544 27.3902V26.1626L36.7984 26.4025V27.2491H37.0399C37.4157 27.2491 37.6841 27.3902 37.6841 27.8699V37.5074C37.6841 37.8883 37.5231 38.0012 37.0399 38.0012H36.7984V38.8479H42.9985V38.0012H42.757C42.4349 38.0012 42.3544 37.9307 42.3544 37.6767V29.1117C42.3544 28.0816 42.3007 27.7147 43.5622 27.7147C44.4211 27.7147 44.4211 27.884 44.4211 28.7448V37.6061C44.4211 37.9307 44.2332 37.9871 43.9379 37.9871H43.6695V38.8337H50.0307V37.9871H49.9234C49.4939 37.9871 49.306 37.9025 49.306 37.5638V29.1117ZM94.6128 38.8479H102.397V38.0012H101.86C101.189 38.0012 100.974 37.846 100.974 37.1123V30.7202H105.081V37.1123C105.081 37.846 104.893 38.0012 104.222 38.0012H103.604V38.8479H111.334V38.0012H110.69C109.992 38.0012 109.885 37.846 109.885 37.1123V23.9896C109.885 23.2276 109.992 23.1006 110.69 23.1006H111.334V22.254H103.604V23.1006H104.222C104.866 23.1006 105.081 23.2276 105.081 23.9896V29.7184H100.974V23.9896C100.974 23.2276 101.162 23.1006 101.86 23.1006H102.397V22.254H94.6128V23.1006H95.3106C95.9548 23.1006 96.1695 23.2276 96.1695 23.9896V37.5356C96.1695 37.9025 95.9817 38.0012 95.3106 38.0012H94.6128V38.8479ZM153.313 38.8479H159.459V38.0012H159.272C158.869 38.0012 158.815 37.9307 158.815 37.6767V29.1117C158.815 28.0816 158.869 27.7147 160.104 27.7147C161.016 27.7147 161.016 27.884 161.016 28.7448V37.6061C161.016 37.9307 160.855 37.9871 160.587 37.9871H160.291V38.8337H166.814V37.9871H166.545C166.089 37.9871 166.008 37.9025 166.008 37.5638V28.2791C166.008 26.7552 165.284 26.1626 162.466 26.1626C160.614 26.1626 159.567 26.4589 158.815 27.3902V22L152.91 22.254V23.1006H153.528C153.93 23.1006 154.172 23.2276 154.172 23.6933V37.5074C154.172 37.8883 154.038 38.0012 153.528 38.0012H153.313V38.8479ZM30.2761 38.989C35.4295 38.989 36.1542 36.7313 36.1542 32.5828C36.1542 28.4202 35.3758 26.1767 30.2761 26.1767C25.1764 26.1767 24.3981 28.4202 24.3981 32.5828C24.3981 36.7313 25.1228 38.989 30.2761 38.989ZM69.2754 38.8479H75.4755V38.0012H75.1803C74.8313 38.0012 74.8314 37.9307 74.8314 37.6767V29.1117C74.8314 28.0816 74.8313 27.7147 76.1197 27.7147C77.0054 27.7147 77.0591 27.884 77.0591 28.7448V37.6061C77.0591 37.9307 76.8176 37.9871 76.576 37.9871H76.2807V38.8337H82.803V37.9871H82.5346C82.0783 37.9871 81.9709 37.9025 81.9709 37.5638V28.2791C81.9709 26.7552 81.2731 26.1626 78.428 26.1626C76.6297 26.1626 75.5292 26.4589 74.8582 27.3902V26.1626L68.8996 26.4025V27.2491H69.5438C69.9195 27.2491 70.1879 27.3902 70.1879 27.8699V37.5074C70.1879 37.8883 70.0269 38.0012 69.5438 38.0012H69.3022L69.2754 38.8479ZM126.419 38.989C128.566 38.989 129.344 38.4387 129.801 37.7896C130.203 38.7632 130.66 38.989 133.048 38.989C135.867 38.989 136.242 38.1 136.189 36.3644H134.847C134.847 37.6202 134.793 37.7472 134.364 37.7472C133.961 37.7472 133.961 37.6485 133.961 36.9429V28.7166C133.961 27.0515 132.914 26.1767 129.21 26.1767C126.285 26.1767 123.359 26.6423 123.52 28.3074C123.601 29.0693 124.164 29.8736 125.694 29.8313C127.09 29.789 127.734 29.3939 127.734 28.773C127.734 28.3497 127.117 27.6442 126.177 27.2632C126.526 27.1785 127.09 27.0939 128.029 27.0939C129.076 27.0939 129.264 27.5172 129.264 28.3215V30.6215C123.923 31.581 122.795 31.962 122.795 35.4896C122.822 38.0436 124.003 38.989 126.419 38.989ZM117.186 38.989C121.158 38.989 122.097 38.354 121.883 34.8828H120.245C120.245 37.6344 120.084 37.846 118.232 37.846C116.032 37.846 116.031 37.338 116.031 32.6252V32.2442H122.473C122.473 27.489 121.48 26.1767 117.212 26.1767C113.347 26.1767 111.334 27.4325 111.334 32.6675C111.308 37.6626 112.837 39.0172 117.186 38.989ZM63.6925 38.989C67.6113 38.989 68.6849 38.354 68.5238 34.8828H66.8866C66.8866 37.6344 66.645 37.846 64.7393 37.846C62.3505 37.846 62.4847 37.338 62.4847 32.6252V32.2442H68.7117C68.7117 27.489 67.8797 26.1767 63.6657 26.1767C59.7738 26.1767 57.7608 27.4325 57.7608 32.6675C57.7608 37.6626 59.2907 39.0172 63.6925 38.989ZM137.074 38.8479H143.516V38.0012H143.033C142.63 38.0012 142.469 37.8883 142.469 37.5497V22L136.484 22.254V23.1006H137.182C137.584 23.1006 137.745 23.1853 137.745 23.5239V37.592C137.745 37.9025 137.692 38.0012 137.423 38.0012H137.101L137.074 38.8479ZM90.0499 38.989C93.0024 38.989 94.5323 37.973 94.5323 36.4491C94.5323 32.8791 88.3589 30.8049 88.3589 28.2368C88.3589 27.4466 88.8958 27.2209 89.9425 27.2209C91.4725 27.2209 91.714 27.5595 91.9824 28.7589L92.224 29.9442H93.9955V26.2613H92.5998C92.5192 26.727 92.3313 26.8963 92.224 26.8399C91.7945 26.5718 90.7478 26.1626 89.0031 26.1626C86.4264 26.1626 84.1718 26.7693 84.1718 28.7871C84.1718 31.9196 90.2915 34.3043 90.2915 36.7031C90.2915 37.7331 89.862 37.9025 88.4395 37.9025C87.0438 37.9025 86.668 37.5638 86.3996 35.9975L86.1849 34.9534H84.3329V38.8337H85.9433C86.0775 38.4104 86.3459 38.1423 86.5875 38.2552C87.1243 38.5939 87.6879 38.989 90.0499 38.989ZM144.724 36.2233C144.724 38.227 145.288 38.989 149.072 38.989C151.729 38.989 152.347 38.4387 152.347 36.9006V34.7982H150.736V36.9994C150.736 37.7331 150.602 37.8178 150.092 37.8178C149.555 37.8178 149.448 37.7331 149.448 37.084V27.2209H152.374V26.2613H149.475V23.0865H147.837C146.656 25.9086 145.663 26.2613 144.08 26.2613H143.65V27.1926H144.724V36.2233ZM30.2761 37.9025C29.1488 37.9025 29.1488 37.5638 29.1488 32.5687C29.1488 27.5595 29.1488 27.2209 30.2761 27.2209C31.4034 27.2209 31.4034 27.5595 31.4034 32.5687C31.4034 37.592 31.4034 37.9025 30.2761 37.9025ZM83.3666 26.7975C87.3927 25.2313 88.1979 24.046 86.8559 22.9595C86.1312 22.3669 84.4671 21.9859 83.2593 22.508C81.8099 23.1429 82.1588 24.2436 84.8697 24.8785C84.3866 25.1748 83.2593 25.7534 82.3198 26.2331L83.3666 26.7975ZM128.351 37.5074C127.385 37.5074 127.385 36.9853 127.385 35.3061C127.385 32.2583 127.385 31.8491 129.318 31.2988V36.5196C129.318 37.3239 129.103 37.5074 128.351 37.5074ZM62.4847 31.3552C62.5652 27.3902 62.6994 27.2067 63.7462 27.2067C64.7393 27.2067 64.6856 27.4184 64.6856 31.3552H62.4847ZM116.031 31.3552C116.166 27.3902 116.219 27.2067 117.266 27.2067C118.313 27.2067 118.152 27.4184 118.152 31.3552H116.031Z" fill="#FAFAFC"/>
</svg>
