<svg width="130" height="60" viewBox="0 0 130 60" fill="none" xmlns="http://www.w3.org/2000/svg">
<path d="M106.42 42.653C106.42 40.2621 108.446 38.3494 110.914 38.3494C113.382 38.3494 115.408 40.2621 115.408 42.653C115.408 45.0439 113.382 46.9566 110.914 46.9566C108.394 46.9566 106.42 45.0439 106.42 42.653ZM115.357 36.074H106.862V15.1991H115.357V36.074ZM51.0753 14.8364V22.1904H43.8572V25.9663V26.1147H50.4284V33.8315H43.8572V34.0459V37.6239V37.8383H51.0753V45.9673H35.5155V14.8364H51.0753ZM61.2896 37.8383H66.4307V45.9673H52.7436V14.8364H61.2896C61.2896 14.8364 61.2896 37.8877 61.2896 37.8383ZM21.7092 25.8839H25.0799V14.8529H33.4216V45.9343H25.131L25.182 34.3756L21.8113 34.4251V45.9178H13.2654V14.8364H21.7092V25.8839ZM77.1728 37.8383H82.314V45.9673C82.314 45.9178 68.6268 45.9673 68.6268 45.9673V14.8364H77.1898C77.1728 14.8364 77.1728 37.8877 77.1728 37.8383ZM103.321 18.1506C104.173 19.2389 104.496 21.1516 104.547 22.8664L104.496 36.7006C104.394 40.3281 102.249 44.203 98.9803 45.4561C95.7117 46.9566 90.5875 46.6928 87.6935 44.5822C85.174 42.719 83.8972 40.0313 83.795 37.0138V21.6298C84.0163 19.4533 85.191 17.0789 86.9444 16.0401C88.2893 15.1662 89.7704 14.6385 91.3876 14.5396C94.8265 14.1109 100.802 14.0614 103.321 18.1506ZM95.4053 22.1409C94.9286 21.6792 94.1796 21.6792 93.5837 21.8276C93.056 22.042 92.6815 22.5532 92.6134 23.0643V36.6346C92.7155 37.2117 93.1411 37.6734 93.6859 37.8713C94.1115 38.0197 94.5881 37.9702 95.0307 37.8218C95.4563 37.5085 95.8819 37.3106 95.8819 36.4697V23.0478C95.8309 22.6686 95.6266 22.4048 95.4053 22.1409Z" fill="#FAFAFC"/>
</svg>
