<svg width="174" height="60" viewBox="0 0 174 60" fill="none" xmlns="http://www.w3.org/2000/svg">
<path d="M22.3903 37.308L26.7136 26.0196H23.0041L20.7624 33.2301L18.2004 26.0196H14.4909L12.0357 33.216L9.76727 26.0196H5.79089L10.1409 37.308H13.797C13.797 37.308 15.932 31.3393 16.3323 30.281C16.7593 31.3534 18.8943 37.308 18.8943 37.308H22.3903ZM36.3743 31.6638C36.3743 34.119 35.0133 35.7558 32.8249 35.7558C30.6366 35.7558 29.2756 34.119 29.2756 31.6638C29.2756 29.2086 30.6366 27.5294 32.8249 27.5294C35.0133 27.5294 36.401 29.2086 36.3743 31.6638ZM40.1906 31.6638C40.1906 28.0798 37.3084 25.7515 32.8249 25.7515C28.3682 25.7515 25.4326 28.0798 25.4326 31.6638C25.4326 35.2479 28.3148 37.5478 32.7983 37.5478C37.2817 37.5478 40.1906 35.2479 40.1906 31.6638ZM57.8841 37.2939H61.6203V29.138C61.6203 26.3583 58.7915 25.7656 56.4164 25.7656C54.6283 25.7656 53.0004 26.3159 52.013 27.2472C51.2924 26.3018 49.8513 25.7656 48.0099 25.7656C46.2752 25.7656 44.8608 26.2172 43.82 27.0356C43.82 26.6687 43.82 26.0055 43.82 26.0055H40.6976V37.308H44.4338V30.1822C44.4338 29.2791 44.7808 27.5718 47.2894 27.5718C48.2501 27.5718 49.2375 27.8258 49.2375 29.6742V37.2939H53.1338V30.1681C53.1338 28.5595 54.1746 27.5577 56.1228 27.5577C57.3504 27.5577 57.9642 27.9104 57.9642 29.6601L57.8841 37.2939ZM71.3344 31.6215C71.3344 31.8472 71.3078 33.2865 71.3078 33.2865C71.3078 35.008 70.6139 35.8546 68.4256 35.8546C67.0645 35.8546 66.0237 35.0785 66.0237 34.0202C66.0237 32.7503 66.9578 32.1859 68.1854 31.9319C69.1728 31.7344 70.267 31.6356 71.3344 31.6215ZM71.6013 37.308H75.0706V28.9546C75.0706 26.9227 72.8289 25.7656 68.9059 25.7656C66.5841 25.7656 64.3958 26.3442 62.9814 27.3037L62.7679 27.4448L64.7427 28.7288L65.0897 28.5031C66.0237 27.8822 67.4915 27.473 68.7992 27.473C71.1743 27.473 71.3344 28.4607 71.3344 29.2791C71.3344 29.2791 71.3344 29.8577 71.3344 30.0552C69.9734 30.027 68.5857 30.1258 67.2513 30.3233C65.7035 30.5491 62.0473 31.3675 62.0473 34.0908C62.0473 36.4472 64.9295 37.4914 67.7317 37.4914C69.1728 37.5196 70.5605 37.2233 71.6013 36.673V37.308ZM86.9197 33.992C86.893 33.0607 87.4001 32.1577 88.4142 31.4098V29.9564C88.4142 27.1485 86.6529 25.7656 83.0234 25.7656C81.2621 25.7656 79.8209 26.2031 78.8068 27.0779C78.8068 26.6687 78.8068 26.0196 78.8068 26.0196H75.6844V37.308L79.474 37.3221V30.789C79.474 28.7147 80.4881 27.4871 82.6765 27.4871C83.9575 27.4871 84.6246 28.2773 84.6246 29.5331V37.308L88.4142 37.2939V36.5742C87.4268 35.8264 86.893 34.9092 86.9197 33.992ZM94.7124 29.5613C94.4722 29.1804 94.232 28.8276 94.0452 28.5031C93.805 28.108 93.6716 27.6988 93.6449 27.2755C93.6182 27.0497 93.6982 26.8239 93.9117 26.6123C94.1252 26.4006 94.6323 26.3018 95.0326 26.4147C95.086 26.4288 95.1127 26.4429 95.1927 26.4571C95.4329 26.5699 95.8599 26.8804 95.8866 27.7129V27.7411C95.8599 28.6583 95.5397 29.1945 94.7124 29.5613ZM94.659 35.0503L94.739 35.1632L94.9259 35.3607L95.166 35.6288C94.8191 35.784 94.4188 35.8828 93.9384 35.8828C92.7642 35.8546 91.8035 35.1632 91.4032 34.119C91.243 33.738 91.163 33.3288 91.163 32.9337C91.163 32.3693 91.3765 31.9178 91.8302 31.5791C92.8176 33.0325 93.9918 34.2883 94.659 35.0503ZM101.518 29.6178C100.397 29.5472 99.3826 29.9423 98.7688 30.6761C98.3418 31.1699 97.9682 31.9601 97.5946 32.8491L97.4344 33.1172C96.6872 32.2705 95.94 31.3393 95.2995 30.4644C97.301 29.8153 98.3952 28.8417 98.3952 27.6988V27.5436C98.3418 26.8239 97.9148 26.2595 97.1142 25.8926C96.367 25.554 95.3795 25.3988 94.4188 25.4411C92.2838 25.5117 90.8694 26.2736 90.4691 27.5436C90.4157 27.7693 90.389 27.9951 90.389 28.2209C90.4157 28.9969 90.6826 29.7589 91.1363 30.5067C90.6292 30.6479 90.0955 30.8313 89.6418 31.0429C89.5617 31.0853 89.455 31.1276 89.3749 31.1699L89.2415 31.2123C89.1081 31.2828 89.028 31.3393 88.8946 31.4098C88.8679 31.4239 88.8412 31.4521 88.7611 31.4804C87.747 32.2 87.2133 33.0748 87.24 33.9779C87.2133 34.881 87.747 35.7417 88.7611 36.4755V36.5178C89.5617 37.0963 90.7627 37.4632 92.1237 37.5196C93.6449 37.562 95.1394 37.2233 96.1001 36.6025C96.9541 37.2092 97.9148 37.5196 99.089 37.5196C100.023 37.5337 100.984 37.3362 101.651 36.9834C102.665 36.4331 103.119 35.4877 103.012 34.0767V33.8368H101.411V34.0626C101.411 35.5865 101.037 35.8264 100.744 35.8687C100.557 35.8828 100.237 35.9393 99.4893 35.2902C99.1958 34.9939 98.8489 34.6834 98.4752 34.3166C98.9823 33.5546 99.436 32.708 99.7029 32.2141C99.7295 32.1294 99.7829 32.073 99.863 32.0025C99.8897 32.2423 100.076 32.4681 100.37 32.6233C100.717 32.7644 101.117 32.8491 101.544 32.8209C102.211 32.7926 103.572 32.3834 103.599 31.3252C103.653 30.3233 102.852 29.6883 101.518 29.6178ZM110.431 37.308H114.221V29.9564C114.221 27.1485 112.993 25.7656 109.07 25.7656C107.495 25.7656 105.921 26.2031 105.28 26.7816V23H101.491V23.2399V29.392C102.959 29.4202 104.106 30.2245 104.106 31.1982C104.106 32.2705 102.959 32.962 101.464 33.0043V33.611H103.172H103.546C103.599 33.611 103.546 34.9798 103.546 34.9798C103.412 36.0663 102.718 36.8988 101.704 37.308H105.334V30.8031C105.334 28.7288 106.295 27.5012 108.536 27.5012C109.871 27.5012 110.484 28.2914 110.484 29.5472V37.308H110.431ZM125.749 31.6638C125.749 34.119 124.362 35.7558 122.173 35.7558C119.985 35.7558 118.597 34.1049 118.597 31.6638C118.597 29.2227 119.985 27.5294 122.173 27.5294C124.362 27.5294 125.749 29.2086 125.749 31.6638ZM129.539 31.6638C129.539 28.0798 126.657 25.7515 122.173 25.7515C117.717 25.7515 114.808 28.0656 114.808 31.6638C114.808 35.262 117.69 37.5478 122.173 37.5478C126.657 37.5478 129.539 35.2479 129.539 31.6638ZM147.233 37.308H150.969V29.138C150.969 26.3583 148.14 25.7656 145.765 25.7656C143.977 25.7656 142.349 26.3159 141.361 27.2472C140.641 26.3018 139.2 25.7656 137.358 25.7656C135.624 25.7656 134.209 26.2031 133.168 27.0215C133.168 26.6546 133.168 26.0196 133.168 26.0196H130.046V37.308H133.756V30.1822C133.756 29.2791 134.103 27.5718 136.638 27.5718C137.679 27.5718 138.613 27.8963 138.613 29.6742V37.2939H142.456V30.1681C142.456 28.5595 143.523 27.5577 145.445 27.5577C146.672 27.5577 147.286 27.981 147.286 29.6601L147.233 37.308ZM161.83 30.5491H155.506C155.666 28.7853 157.027 27.5577 158.655 27.5577C160.496 27.5577 161.777 28.6865 161.83 30.5491ZM165.914 31.7485C165.914 28.1221 163.378 25.7656 158.681 25.7656C154.278 25.7656 151.449 28.108 151.449 31.7485C151.449 35.389 154.305 37.7313 158.735 37.7313C162.471 37.7313 165.086 36.2215 165.593 33.7804L165.647 33.5264H161.75L161.697 33.7239C161.323 35.135 160.469 35.9393 158.708 35.9393C156.893 35.9393 155.292 34.5141 155.399 32.3552H165.887L165.914 31.7485Z" fill="#FAFAFC"/>
</svg>
