<svg width="174" height="60" viewBox="0 0 174 60" fill="none" xmlns="http://www.w3.org/2000/svg">
<path d="M16.9996 24.0894C16.1189 23.7824 15.1849 23.5172 13.8505 23.5172C10.8082 23.5172 10.1944 25.9317 10.1944 29.3931C10.1944 32.366 10.5947 35.3528 12.9699 35.5761V30.5097H11.0217V28.3742H17.0263V37.6975C16.1189 37.8232 15.1582 37.879 14.2242 37.879C6.37815 37.879 5.87109 33.2592 5.87109 29.742C5.87109 24.1313 8.11281 21.3817 13.3435 21.3817C14.6245 21.3678 15.8788 21.5074 17.053 21.7725L16.9996 24.0894ZM21.6699 31.1098C21.6699 34.934 21.6966 35.7436 22.4438 35.7436C23.191 35.7436 23.2711 34.934 23.2711 31.1098C23.2711 27.2856 23.2444 26.4761 22.4972 26.4761C21.7499 26.4621 21.6699 27.3275 21.6699 31.1098ZM26.9539 31.1098C26.9539 34.3618 26.7137 37.865 22.4438 37.865C18.1739 37.865 17.9337 34.3618 17.9337 31.1098C17.9337 27.8578 18.2005 24.3546 22.4972 24.3546C26.7938 24.3546 26.9539 27.8578 26.9539 31.1098ZM31.6242 31.1098C31.6242 34.934 31.6509 35.7436 32.3981 35.7436C33.1453 35.7436 33.2254 34.934 33.2254 31.1098C33.2254 27.2856 33.1987 26.4761 32.4515 26.4761C31.7042 26.4761 31.6242 27.3275 31.6242 31.1098ZM36.9349 31.1098C36.9349 34.3618 36.6947 37.865 32.4248 37.865C28.1548 37.865 27.9147 34.3618 27.9147 31.1098C27.9147 27.8578 28.1815 24.3546 32.4781 24.3546C36.7748 24.3546 36.9349 27.8578 36.9349 31.1098ZM43.0729 26.4621C42.9929 26.4482 42.9128 26.4342 42.8328 26.4342C42.1389 26.4342 41.6051 27.1739 41.6051 31.0679C41.6051 35.283 41.9254 35.7296 42.6193 35.7296C42.8328 35.7296 43.0196 35.6738 43.0996 35.5621L43.0729 26.4621ZM46.7291 21.5074V34.3199C46.7291 35.3946 46.9159 35.5202 47.6898 35.6459L46.0886 37.865C44.861 37.8371 43.8469 37.3905 43.5533 36.7764C43.1263 37.5301 42.219 37.8371 41.2582 37.8371C37.9223 37.8371 37.8423 33.7477 37.8423 31.1238C37.8423 28.0113 37.949 24.3546 42.0855 24.3546C42.4058 24.3546 42.7527 24.3825 43.0462 24.4104V21.5074H46.7291ZM69.68 31.1098C69.68 34.934 69.7067 35.7436 70.4539 35.7436C71.2012 35.7436 71.2812 34.934 71.2812 31.1098C71.2812 27.2856 71.2279 26.4761 70.5073 26.4761C69.7601 26.4621 69.68 27.3275 69.68 31.1098ZM74.964 31.1098C74.964 34.3618 74.7239 37.865 70.4539 37.865C66.184 37.865 65.9438 34.3618 65.9438 31.1098C65.9438 27.8578 66.2107 24.3546 70.5073 24.3546C74.8039 24.3546 74.964 27.8578 74.964 31.1098ZM84.1444 37.865C82.9435 37.8511 81.9294 37.4184 81.6625 36.8043C81.1555 37.4324 80.0079 37.8371 78.7002 37.865C77.526 37.865 75.9248 37.4324 75.9248 36.0367V24.5221H79.5809V35.1853C79.5809 35.6877 79.8478 35.7994 80.2748 35.7994C80.6217 35.7994 80.942 35.7017 81.1021 35.5482V24.5221H84.7582V34.3199C84.7582 35.3946 84.945 35.5202 85.719 35.6459L84.1444 37.865ZM88.2809 37.9069C87.507 37.9209 86.7331 37.8511 86.0392 37.6975V35.6877C86.4929 35.8133 86.9999 35.8692 87.507 35.8692C88.3343 35.8692 88.9481 35.6877 88.9481 34.8782C88.9481 33.0219 85.7456 29.756 85.7456 27.3275C85.7456 25.7782 86.7064 24.3546 89.6686 24.3546C90.6294 24.3406 91.5901 24.4663 92.4441 24.7175V26.7273C91.9637 26.5319 91.3766 26.4202 90.7628 26.4202C89.9889 26.4202 89.4285 26.6436 89.4285 27.2577C89.4285 29.2675 92.6309 32.4916 92.6309 34.9061C92.6576 36.26 91.9104 37.9069 88.2809 37.9069ZM97.568 26.4621C96.6607 26.4621 96.6607 27.9137 96.6607 30.719C98.0751 30.719 98.3686 30.0072 98.3686 28.3045C98.3953 27.0204 98.1285 26.4761 97.568 26.4621ZM102.212 37.5161C101.331 37.7673 100.343 37.8929 99.3294 37.9069C96.207 37.9069 92.9512 37.6278 92.9512 31.1377C92.9512 27.7043 93.0045 24.4244 97.5413 24.4244C101.304 24.4244 101.945 26.9506 101.945 28.4161C101.945 30.1468 101.171 32.7707 96.7407 32.7707C96.8208 34.9899 97.568 35.8273 99.5696 35.8273C100.504 35.8413 101.438 35.7017 102.212 35.4225V37.5161ZM111.739 37.6975H108.083V33.3848C108.083 31.3052 107.336 31.1656 106.615 31.1656V37.6975H102.959V21.5074H106.615V29.1558C107.229 29.1558 108.083 29.1 108.083 26.9227V24.536H111.739V26.7413C111.739 28.0672 111.419 29.8118 109.417 30.1607C111.445 30.5097 111.739 32.2403 111.739 33.5802V37.6975ZM117.103 26.4621C116.196 26.4621 116.196 27.9137 116.196 30.719C117.61 30.719 117.904 30.0072 117.904 28.3045C117.93 27.0204 117.637 26.4761 117.103 26.4621ZM121.72 37.5161C120.839 37.7673 119.852 37.8929 118.838 37.9069C115.715 37.9069 112.459 37.6278 112.459 31.1377C112.459 27.7043 112.486 24.4244 117.05 24.4244C120.813 24.4244 121.453 26.9506 121.453 28.4161C121.453 30.1468 120.679 32.7707 116.249 32.7707C116.329 34.9899 117.076 35.8273 119.078 35.8273C120.012 35.8413 120.946 35.7017 121.72 35.4225V37.5161ZM126.897 26.4621C126.017 26.4621 126.017 27.9137 126.017 30.719C127.404 30.719 127.724 30.0072 127.724 28.3045C127.724 27.0204 127.458 26.4761 126.897 26.4621ZM131.541 37.5161C130.954 37.7255 129.673 37.9069 128.659 37.9069C125.536 37.9069 122.28 37.6278 122.28 31.1377C122.28 27.7043 122.334 24.4244 126.87 24.4244C130.66 24.4244 131.274 26.9506 131.274 28.4161C131.274 30.1468 130.5 32.7707 126.07 32.7707C126.15 34.9899 126.897 35.8273 128.899 35.8273C129.833 35.8413 130.767 35.7017 131.541 35.4225V37.5161ZM136.531 26.4482C136.318 26.4482 136.131 26.5179 136.051 26.6156V35.7296C136.131 35.7436 136.211 35.7575 136.291 35.7436C136.985 35.7436 137.519 35.0178 137.519 31.1098C137.519 26.8948 137.198 26.4482 136.531 26.4482ZM137.012 37.865C136.691 37.865 136.344 37.8371 136.051 37.8092V40.0842H132.395V27.8718C132.395 26.7971 132.208 26.6715 131.434 26.5459L133.035 24.3267C134.263 24.3546 135.277 24.8012 135.57 25.4293C135.997 24.6337 136.985 24.3686 137.866 24.3686C141.201 24.3686 141.282 28.458 141.282 31.0819C141.255 34.2083 141.148 37.865 137.012 37.865ZM64.9831 37.6975H60.8199V30.8865H58.6849V37.6975H54.5217V21.5074H58.6849V28.7511H60.8199V21.5074H64.9831V37.6975ZM144.11 20L143.363 21.5074L140.374 21.0189L142.749 22.0796L140.374 23.1403L143.363 22.6518L144.11 24.1592L144.858 22.6518L147.847 23.1403L145.471 22.0796L147.847 21.0189L144.858 21.5074L144.11 20ZM142.269 24.5221H145.925V37.6975H142.269V24.5221ZM156.093 37.6975H152.437V27.0204C152.437 26.5877 152.277 26.4342 151.743 26.4342C151.423 26.4482 151.102 26.5319 150.916 26.6715V37.6975H147.259V27.8857C147.259 26.811 147.073 26.6854 146.299 26.5598L147.9 24.3406C149.101 24.3546 150.115 24.7873 150.382 25.4014C151.129 24.6896 152.25 24.3406 153.344 24.3406C154.518 24.3406 156.12 24.6896 156.12 26.1969L156.093 37.6975ZM162.311 26.49C161.377 26.49 160.816 26.8808 160.816 31.2075C160.816 35.4225 161.137 35.6179 161.831 35.6179C162.044 35.604 162.231 35.5342 162.311 35.4365V26.49ZM165.967 37.6138C165.967 39.2886 164.286 40.489 160.736 40.489C158.842 40.489 157.24 40.1819 156.226 39.7771L157.454 37.9069C158.228 38.2698 159.242 38.4652 160.309 38.4791C161.751 38.4791 162.418 38.0744 162.418 37.5021V37.1393C161.804 37.6696 161.083 37.7673 160.39 37.7673C157.481 37.7673 157.134 35.1155 157.134 31.2773C157.134 25.848 158.762 24.5221 163.565 24.5221H166.02V37.6138H165.967Z" fill="#FAFAFC"/>
</svg>
