<svg width="143" height="32" viewBox="0 0 143 32" fill="none" xmlns="http://www.w3.org/2000/svg">
<path d="M85.0448 22.985C83.8441 21.4826 82.88 19.9211 82.4304 18.0935C81.9573 16.183 81.8804 14.3198 82.9509 12.5454C84.2344 10.422 86.902 9.31595 89.333 9.937C91.8408 10.5758 93.6685 12.7761 93.7513 15.2958C93.84 17.9692 92.8641 20.2819 91.2967 22.3876C91.131 22.6123 90.9654 22.8312 90.7939 23.0619C92.2548 23.8426 94.0529 23.5823 95.159 22.4704C96.7146 20.9089 97.3829 18.9097 97.7615 16.8336C98.1637 14.6333 98.3589 12.3975 98.6605 10.1026H102.198C102.091 11.3033 102.02 12.5218 101.86 13.7224C101.488 16.5674 100.879 19.3533 99.5537 21.9321C98.6487 23.6947 97.4539 25.2207 95.5849 26.0251C93.2604 27.0188 90.9122 26.7645 88.6173 25.8654C88.1618 25.688 87.807 25.688 87.3515 25.8773C84.8673 26.8946 82.3358 27.2791 79.8102 26.037C78.0358 25.1616 76.912 23.6415 76.0602 21.9144C74.7117 19.1936 74.1379 16.254 73.8008 13.267C73.7062 12.3975 73.718 11.5222 73.6234 10.6527C73.5583 10.0494 73.8363 9.92517 74.3568 9.94292C75.1139 9.97249 75.871 9.9784 76.6281 9.94292C77.1545 9.91926 77.2905 10.0967 77.3142 10.629C77.4561 13.752 77.8051 16.8454 79.0235 19.7673C79.2779 20.3706 79.6091 20.9562 79.9758 21.5004C81.1351 23.2275 82.9923 23.7716 85.0388 22.9731L85.0448 22.985ZM87.8247 21.4708C89.2442 19.7496 90.2793 17.9988 90.5277 15.8872C90.6874 14.4854 89.3744 13.0422 87.9903 12.9949C86.4347 12.9476 85.2104 14.1128 85.234 15.6684C85.2636 17.9278 86.4229 19.6845 87.8306 21.4708H87.8247Z" fill="#F25929"/>
<path d="M36.0292 26.3443V25.5399C36.0292 20.6188 36.041 15.6977 36.0115 10.7825C36.0115 10.0905 36.2185 9.85392 36.8987 9.91307C37.4369 9.96039 37.987 9.93082 38.5312 9.9249C38.9452 9.91899 39.1167 10.1023 39.1345 10.5223C39.1522 11.031 39.235 11.5396 39.306 12.1962C40.3411 11.0842 41.5004 10.3744 42.8371 10.0136C44.9842 9.42806 47.1608 9.33343 49.2132 10.2916C49.9644 10.6406 50.5381 11.374 51.1887 11.9359C51.307 12.0365 51.3898 12.1784 51.4372 12.2317C52.3362 11.6284 53.1347 10.9482 54.0515 10.5045C56.3405 9.39849 58.7537 9.30977 61.1669 10.055C63.0656 10.6406 64.4555 12.5156 64.5029 14.6449C64.5916 18.3298 64.5798 22.0206 64.6152 25.7055C64.6152 26.1787 64.4556 26.3798 63.9528 26.362C63.1484 26.3265 62.344 26.3206 61.5396 26.362C60.9954 26.3857 60.8535 26.1787 60.8594 25.6641C60.8771 22.683 60.8712 19.702 60.8594 16.721C60.8594 16.2537 60.8121 15.7746 60.747 15.3132C60.5696 14.1066 59.8775 13.3022 58.6887 13.0656C56.654 12.6634 54.7908 13.0065 53.2767 14.5621C52.5314 15.3251 52.1528 16.2359 52.1528 17.3065C52.1528 20.051 52.1351 22.7954 52.1647 25.5399C52.1706 26.2023 51.9577 26.4153 51.313 26.3679C50.5854 26.3147 49.8461 26.3206 49.1127 26.3679C48.5271 26.4034 48.3851 26.1668 48.3911 25.6286C48.4029 22.6475 48.3911 19.6665 48.3911 16.6855C48.3911 16.3542 48.397 16.023 48.3733 15.6918C48.255 14.0771 47.2554 13.113 45.6407 12.9828C44.3927 12.8823 43.192 12.9592 42.0682 13.5861C40.5304 14.4438 39.6905 15.7036 39.6905 17.484C39.6905 20.1811 39.6727 22.8782 39.7023 25.5754C39.7082 26.2082 39.5189 26.4034 38.8979 26.3679C37.9811 26.3206 37.0584 26.3561 36.0292 26.3561V26.3443Z" fill="#F25929"/>
<path d="M118.937 24.5697C115.222 27.3851 108.81 27.2372 105.492 23.854C101.79 20.0804 102.298 14.4673 106.675 11.4862C109.23 9.7473 112.058 9.47522 115.021 9.97798C116.417 10.2146 117.712 10.6818 118.937 11.7347C118.937 11.3206 118.966 11.0308 118.931 10.7469C118.848 10.0963 119.155 9.91883 119.747 9.94249C120.504 9.97206 121.261 9.96615 122.018 9.95432C122.491 9.94249 122.704 10.1199 122.704 10.6168C122.698 15.6502 122.698 20.6837 122.704 25.7231C122.704 26.2317 122.485 26.3678 122.018 26.35C121.214 26.3205 120.409 26.3145 119.611 26.35C119.067 26.3796 118.889 26.1726 118.937 25.658C118.966 25.3327 118.942 25.0015 118.942 24.5697H118.937ZM113.323 23.3986C114.429 23.3631 115.802 22.9136 116.996 21.9849C119.339 20.1632 119.587 17.1289 117.588 14.9464C115.198 12.3261 110.904 12.2078 108.373 14.7157C107.302 15.7744 106.64 17.0698 106.918 18.5958C107.444 21.4644 109.922 23.3926 113.323 23.3986Z" fill="#F25929"/>
<path d="M124.136 9.9779C125.508 9.9779 126.756 9.96016 127.998 10.0016C128.158 10.0016 128.365 10.2736 128.453 10.4688C130.133 14.0354 131.801 17.6139 133.469 21.1864C133.605 21.4762 133.735 21.7719 133.93 22.1978C134.469 20.8965 134.948 19.7491 135.415 18.5957C136.503 15.9282 137.568 13.2547 138.686 10.593C138.798 10.3269 139.147 10.0075 139.407 9.98973C140.348 9.91876 141.3 9.96016 142.241 9.97199C142.418 9.97199 142.596 10.0489 142.844 10.108C141.951 12.1604 141.099 14.1537 140.224 16.1411C138.562 19.9265 136.917 23.7179 135.202 27.4738C134.522 28.9702 133.605 30.3483 132.091 31.1409C130.104 32.176 128.01 32.1996 125.886 31.6141C125.709 31.5668 125.502 31.2769 125.484 31.0818C125.431 30.5435 125.484 29.9934 125.46 29.4493C125.437 28.9524 125.638 28.7927 126.123 28.7927C127.111 28.7868 128.11 28.7809 129.092 28.6626C130.535 28.4793 131.263 27.4028 131.76 26.1903C131.872 25.9123 131.695 25.4568 131.541 25.1374C130.245 22.4817 128.927 19.8437 127.619 17.1939C126.519 14.97 125.425 12.7519 124.325 10.528C124.266 10.4038 124.23 10.2736 124.13 9.9779H124.136Z" fill="#F25929"/>
<path d="M33.4564 15.5205C33.4564 16.8217 33.4209 18.1229 33.4623 19.4242C33.5747 23.0263 31.2975 25.7885 27.867 26.6343C24.7617 27.4032 21.7925 27.0779 19.2551 24.9427C17.7113 23.6473 16.9188 21.9143 16.8833 19.9033C16.836 16.804 16.8833 13.7105 16.8596 10.6112C16.8596 10.0966 17.043 9.94284 17.5162 9.95467C18.3442 9.97241 19.1723 9.97833 20.0004 9.95467C20.4617 9.93692 20.5386 10.1439 20.5445 10.5521C20.5623 13.4325 20.6924 16.3189 20.5977 19.1994C20.509 22.0858 23.076 23.9017 25.7968 23.5882C28.0444 23.3279 29.9017 21.6777 29.8129 18.9037C29.7242 16.1652 29.8129 13.4207 29.7775 10.6763C29.7715 10.1025 29.9549 9.92509 30.505 9.94875C31.2384 9.98424 31.9718 9.99016 32.7053 9.94875C33.279 9.91918 33.4978 10.073 33.4801 10.694C33.4328 12.3028 33.4623 13.9116 33.4623 15.5145L33.4564 15.5205Z" fill="#F25929"/>
<path d="M0.168082 15.7038C0.168082 12.4388 0.179909 9.17981 0.15625 5.91487C0.15625 5.32339 0.345525 5.09863 0.931086 5.12229C1.64086 5.15186 2.35063 5.15186 3.0604 5.12229C3.69328 5.09271 3.91804 5.30565 3.91804 5.97401C3.89438 11.2914 3.91804 16.6087 3.88847 21.932C3.88847 22.6477 4.07774 22.8547 4.79934 22.8488C8.15301 22.8133 11.5126 22.8488 14.8663 22.8192C15.505 22.8192 15.7653 22.973 15.7121 23.6473C15.6588 24.3039 15.6588 24.9722 15.7121 25.6288C15.7653 26.2675 15.505 26.4391 14.9017 26.4391C12.3466 26.4154 9.79731 26.4332 7.24213 26.4332C5.25477 26.4332 3.27333 26.4332 1.28597 26.4332C0.548598 26.4332 0.177941 26.0724 0.173998 25.3508C0.173998 22.1331 0.173998 18.9214 0.173998 15.7038H0.168082Z" fill="#F25929"/>
<path d="M71.1511 18.1524C71.1511 20.5893 71.1275 23.0262 71.163 25.4571C71.1748 26.1728 70.956 26.4272 70.2343 26.3562C69.5305 26.2911 68.8148 26.3148 68.105 26.3562C67.5786 26.3858 67.3953 26.1906 67.4012 25.6701C67.4248 24.0613 67.4071 22.4524 67.4071 20.8436C67.4071 17.5077 67.4248 14.1777 67.3953 10.8418C67.3953 10.1616 67.5964 9.90724 68.2825 9.94864C68.9863 9.99596 69.702 9.9723 70.4118 9.94864C70.95 9.9309 71.1571 10.1438 71.1571 10.6998C71.1334 13.184 71.1452 15.6682 71.1452 18.1465L71.1511 18.1524Z" fill="#F25929"/>
<path d="M69.294 7.67736C68.5547 5.83787 67.3599 4.56619 65.479 3.83276C67.2948 3.06385 68.5665 1.86906 69.294 0C70.0334 1.86906 71.2932 3.08159 73.1327 3.83276C71.24 4.54253 70.057 5.82604 69.294 7.67736Z" fill="#F25929"/>
</svg>
