<svg width="214" height="30" viewBox="0 0 214 30" fill="none" xmlns="http://www.w3.org/2000/svg"><g clip-path="url(#a)"><g clip-path="url(#b)"><path d="M3.47 2.57a2.51 2.51 0 0 1-.98-.47.9.9 0 0 1-.3-.7c0-.3.12-.56.37-.76.25-.2.57-.3.97-.3.28 0 .52.05.74.15.21.1.38.25.5.44.11.18.17.38.17.6h-.53a.7.7 0 0 0-.23-.56.94.94 0 0 0-.65-.2.97.97 0 0 0-.6.16.56.56 0 0 0-.22.47c0 .16.07.3.2.4.15.12.38.22.71.3.33.1.59.2.78.31.18.11.32.24.41.39.1.15.14.32.14.52 0 .32-.13.57-.38.76-.25.2-.59.29-1 .29-.28 0-.54-.05-.77-.15a1.3 1.3 0 0 1-.55-.43c-.13-.18-.2-.38-.2-.61h.53c0 .24.1.42.27.56.18.14.41.2.71.2.28 0 .5-.05.64-.16a.54.54 0 0 0 .22-.46c0-.19-.07-.34-.2-.44-.14-.1-.39-.21-.75-.31Zm3.43 1.4c.18 0 .34-.06.47-.17.14-.1.21-.24.23-.4h.48a.9.9 0 0 1-.18.47 1.25 1.25 0 0 1-1 .5c-.4 0-.72-.13-.96-.4a1.58 1.58 0 0 1-.36-1.09V2.8c0-.28.06-.54.16-.76a1.2 1.2 0 0 1 1.16-.7c.33 0 .6.1.82.3.22.2.34.45.36.76H7.6a.68.68 0 0 0-.22-.46.67.67 0 0 0-.48-.18c-.26 0-.46.09-.6.27-.14.18-.21.44-.21.79v.1c0 .33.07.59.2.77.15.18.35.27.61.27Zm3.74.35a1.03 1.03 0 0 1-.07-.31c-.23.24-.52.36-.84.36-.3 0-.53-.08-.72-.24a.79.79 0 0 1-.28-.62c0-.3.12-.54.35-.7.23-.18.57-.26.99-.26h.5v-.23a.55.55 0 0 0-.17-.42c-.1-.1-.26-.15-.46-.15a.75.75 0 0 0-.46.13c-.12.1-.18.2-.18.33h-.51c0-.15.05-.29.16-.42.1-.14.24-.25.42-.33.18-.07.38-.11.6-.11.34 0 .6.08.8.25.2.17.3.4.3.7v1.33c0 .27.03.48.1.64v.05h-.53Zm-.84-.38a.9.9 0 0 0 .45-.13.74.74 0 0 0 .31-.31v-.6h-.4c-.61 0-.92.18-.92.54 0 .15.05.28.15.36.11.1.25.14.41.14Zm2.7-2.54.03.37c.22-.28.52-.42.88-.42.63 0 .94.34.95 1.04v1.93h-.5V2.39c-.01-.21-.06-.37-.16-.47-.1-.1-.24-.15-.44-.15-.17 0-.31.04-.43.13a.88.88 0 0 0-.3.34v2.08h-.5V1.4h.48Zm5.01 2.1h-1.44l-.27.82h-.87L16.4.39h.76l1.49 3.93h-.87l-.28-.81Zm-1.22-.65h1l-.5-1.47-.5 1.47ZM20 4.32h-.8V.18h.8v4.14Zm2.18.05c-.44 0-.8-.13-1.06-.4-.28-.26-.41-.6-.41-1.04v-.08c0-.3.05-.55.17-.78.11-.23.28-.41.49-.54.2-.12.45-.18.72-.18.4 0 .72.12.95.37.24.25.35.61.35 1.07v.32H21.5c.02.2.1.34.23.46.13.11.3.17.49.17.3 0 .54-.1.71-.32l.4.42c-.13.17-.29.3-.49.4-.2.08-.43.13-.67.13Zm-.1-2.4a.5.5 0 0 0-.38.16.8.8 0 0 0-.18.45h1.1v-.06c0-.17-.05-.3-.15-.4-.09-.1-.22-.14-.38-.14Zm3.6.16-.29-.02c-.3 0-.5.1-.59.3v1.9H24V1.4h.75l.02.35c.16-.27.38-.4.66-.4.09 0 .17 0 .25.03l-.01.75ZM27.3.68v.72h.5v.57h-.5v1.46c0 .1.02.18.06.23.05.04.13.07.24.07.1 0 .17 0 .24-.02v.59c-.16.05-.32.07-.48.07-.56 0-.84-.28-.85-.83V1.97h-.43V1.4h.43V.68h.8ZM29.06.56h-.42v1.15h-.17V.56h-.42V.42h1.01v.14Zm.42-.14.42 1.05.43-1.05h.22v1.29h-.17v-.5l.02-.54-.43 1.04h-.13L29.4.67l.02.54v.5h-.17V.42h.22Z" fill="#676873"/><path d="M57.96 4.92H2.04c-1.13 0-2.04.9-2.04 2V26C0 27.1.91 28 2.04 28h55.92c1.13 0 2.04-.9 2.04-2V6.92c0-1.11-.91-2.01-2.04-2.01Z" fill="#1C1C28"/><path d="M25.73 13.65h-1.65v-2.83h-2.44v2.83h-1.66V6.87h1.66v2.7h2.44v-2.7h1.65v6.78Zm5.33-1.27H28.8l-.4 1.27h-1.77l2.53-6.78h1.55l2.55 6.78h-1.78l-.4-1.27Zm-1.87-1.26h1.48l-.74-2.35-.74 2.35Zm10.32.23a2.33 2.33 0 0 1-1.38 2.09c-.43.2-.92.3-1.47.3-.9 0-1.62-.29-2.13-.87a3.56 3.56 0 0 1-.78-2.46v-.33c0-.67.11-1.25.35-1.74.23-.5.57-.89 1.01-1.16.44-.27.95-.4 1.53-.4.84 0 1.5.21 2.02.65.5.43.8 1.02.86 1.78h-1.65c-.02-.41-.12-.7-.32-.89-.2-.18-.5-.27-.9-.27-.42 0-.72.16-.92.46-.19.3-.29.79-.3 1.46v.48c0 .72.1 1.24.28 1.55.18.3.5.46.95.46.38 0 .67-.09.88-.26.2-.18.3-.46.32-.85h1.65Zm3.4-.22-.67.73v1.79h-1.66V6.87h1.66v2.99l.58-.86 1.48-2.13h2.05l-2.33 3 2.33 3.78h-1.97l-1.46-2.52Zm8.42-.35h-2.61v1.61h3.08v1.26h-4.74V6.87h4.75v1.26h-3.1v1.43h2.62v1.22Zm4 .48h-.9v2.39h-1.66V6.87h2.7c.82 0 1.46.18 1.92.54.46.35.69.86.69 1.51 0 .47-.1.86-.3 1.17-.19.31-.49.56-.9.76l1.43 2.73v.07h-1.77l-1.22-2.4Zm-.9-1.27h1.04c.32 0 .56-.08.71-.24.16-.16.24-.39.24-.68 0-.3-.08-.52-.24-.69-.16-.16-.4-.25-.7-.25h-1.06V10ZM26.08 23.55c0-.38-.14-.67-.42-.87-.28-.21-.76-.43-1.46-.65-.7-.22-1.28-.44-1.72-.64-1.45-.67-2.17-1.6-2.17-2.77 0-.59.18-1.1.53-1.54.37-.45.88-.8 1.54-1.05a6.21 6.21 0 0 1 4.38.03c.64.27 1.13.66 1.49 1.16.35.5.52 1.07.52 1.71H26.1c0-.43-.14-.76-.42-1a1.68 1.68 0 0 0-1.13-.35c-.48 0-.86.1-1.14.3a.9.9 0 0 0-.42.76c0 .27.16.52.46.74.31.22.85.44 1.62.68.77.23 1.4.48 1.9.75 1.21.66 1.81 1.57 1.81 2.72 0 .92-.36 1.65-1.1 2.18-.74.52-1.75.79-3.03.79-.9 0-1.73-.16-2.46-.46a3.73 3.73 0 0 1-1.66-1.26 3.18 3.18 0 0 1-.55-1.85h2.7c0 .57.15.98.46 1.25.31.27.81.4 1.51.4.44 0 .8-.09 1.05-.27.26-.18.4-.44.4-.76ZM36.97 24.38h-3.7l-.64 1.97h-2.87l4.1-10.55h2.52l4.13 10.55h-2.89l-.65-1.97Zm-3.05-1.96h2.4l-1.2-3.66-1.2 3.66ZM48.84 22.15H44.5v4.2h-2.7V15.8h7.48v1.96H44.5v2.43h4.34v1.96ZM57.8 21.88h-4.24v2.51h5v1.96h-7.7V15.8h7.72v1.96h-5.02V20h4.23v1.89Z" fill="#fff"/><path d="M10.8 6.68c-4.65 0-7.66 1.15-8.46 1.6-.08.47 0 2.27 0 6.75 0 4.49 5.64 9.41 8.46 11.32 6.03-4.25 7.74-9.31 7.84-11.32V8.28c-.6-.45-3.2-1.6-7.84-1.6Z" fill="url(#c)"/></g><path fill-rule="evenodd" clip-rule="evenodd" d="M179.32.36c0 .46.04.42-.39.42s-.4-.03-.4.4c0 .43.1.38-.72.38h-.66l-.04.04c-.04.04-.04.04-.04.35 0 .42.03.39-.36.39-.28 0-.28 0-.32.04l-.04.04v1.37l-.04.04c-.04.04-.04.04-.33.04-.39 0-.37.02-.37-.36s.03-.36-.37-.36-.38-.02-.38.36c0 .27 0 .28-.04.32l-.04.04h-2.7l-.11-.05a10.23 10.23 0 0 0-12.31 3.92 10.27 10.27 0 0 0-1.59 6.56c.65 6.54 7.5 10.74 13.72 8.42l.24-.09h16.57c18.21-.01 16.62 0 17.3-.1a9.44 9.44 0 0 0 7.82-7.02 9.4 9.4 0 0 0-8.53-11.63l-13.34-.01h-13.11l-.04-.04c-.04-.04-.04-.04-.04-.34 0-.4.03-.37-.42-.37-.45 0-.41.03-.41-.38 0-.41-.03-.39.36-.39.38 0 .36.03.36-.4 0-.41-.04-.37.38-.37s.39-.04.39.39-.03.4.4.4c.43 0 .4.03.4-.4 0-.44.03-.41-.4-.41-.42 0-.39.03-.39-.38 0-.42-.03-.38.39-.38.32 0 .32 0 .36-.04l.04-.04V0h-.8v.36Zm-1.54 2.8c.03.04.03.06.03.33 0 .4.02.38-.36.38s-.36.02-.36-.37-.02-.37.37-.37c.26 0 .29 0 .32.04Zm33.08.75c-.1.09-.02.21.13.21.08 0 .1 0 .13.04l.04.04v1l.04.04c.05.06.16.06.2 0l.05-.04v-1l.04-.04c.03-.03.05-.04.13-.04.12 0 .18-.04.18-.13a.13.13 0 0 0-.04-.08l-.04-.04H210.9l-.04.04Zm1.16 0-.04.03V5.2l.04.04c.13.14.19.04.2-.35.01-.5.05-.48.2.12.07.22.09.25.17.27.1.01.13-.03.21-.33.13-.52.18-.52.19-.02 0 .3.01.35.12.35.02 0 .06-.01.08-.04l.04-.04V3.94l-.04-.03c-.03-.04-.06-.04-.15-.04-.2 0-.2 0-.3.37-.13.47-.15.47-.27.01-.1-.39-.1-.38-.3-.38-.1 0-.12 0-.15.04Zm-37.7.74c.06.06.06.35.01.41l-.03.04-.06-.03a4.64 4.64 0 0 1-.54-.39c-.03-.08.54-.1.62-.03Zm2 0c.03.04.03.05.03.32 0 .38.02.36-.37.36s-.37.02-.37-.36-.02-.36.37-.36c.29 0 .3 0 .33.04Zm28.76-.02c5.91.4 9.71 6.34 7.54 11.8a8.72 8.72 0 0 1-7.29 5.41c-.25.03-31.43.06-31.59.03-.1-.02-.06-.07.13-.2a10.08 10.08 0 0 0 2.46-14.56c-.21-.28-.22-.32-.04-.32.14 0 .16-.03.16-.3 0-.32-.01-.32.32-.32.23 0 .24 0 .28-.04l.04-.03V4.7l.04-.05.04-.04H191c8.99 0 13.92.01 14.07.02Zm-36.47 1.72c1.24.08 2.56.51 3.45 1.14.17.12.11.2-.14.2s-.25 0-.25.36c0 .38.02.36-.3.37-.27 0-.25 0-.42.26a48.44 48.44 0 0 0-2.24 4.16c-.2.44-.19.43-.45.09-1.75-2.32-3.76-3.73-4.36-3.05-.27.32-.16.71.37 1.29 1.4 1.54 2.17 2.8 3.14 5.14l.26.6c.32.6 1.45.78 1.94.3.11-.11.16-.19.26-.47a24.9 24.9 0 0 1 2.4-4.71l.23-.34v-.38c.01-.48 0-.44.3-.44s.3.01.3-.37-.02-.36.3-.36c.22 0 .23 0 .27-.04l.04-.04v-.71l.03-.03c.12-.12.25.01.54.54a6.94 6.94 0 1 1-12.91 2.15 6.96 6.96 0 0 1 7.24-5.66Zm11.76.04-.04.04v6.48l.04.03.04.04h1.19l.03-.04.05-.03v-2.12c0-2.31 0-2.22.08-2.13.02.02.52.97 1.11 2.12l1.1 2.13c.05.07.07.07.77.07h.66l.03-.04.04-.03V6.43l-.03-.04-.04-.04h-1.2l-.03.04-.04.04v1.91c0 2.1 0 2.03-.09 1.94L183 8.34a52.09 52.09 0 0 0-1.05-1.95l-.05-.04h-1.49l-.04.04Zm14.94.34c-.05.03-.06.06-.17.66l-.11.61c-.03.1-.04.1-.6.1-.88.02-1.24.19-1.64.79-.15.22-.16.21-.35-.3a4.8 4.8 0 0 0-.2-.44l-.03-.04h-.37l-.37-.01-.04.04-.04.04v4.73l.04.03.04.04h1.28l.04-.04.04-.03v-1.04c0-1.62.06-1.9.49-2.35.32-.34.55-.42 1.2-.42h.4l.04.04.04.04v1.26c0 1.53 0 1.63.19 1.98.3.59 1.16.8 2.21.55.27-.07.26-.05.17-.57-.1-.53-.07-.5-.36-.45-.29.06-.51.03-.63-.09-.12-.1-.11-.05-.12-1.43V9.18l.04-.04.04-.04h.88l.04-.04.04-.04v-.84l-.04-.04-.04-.04h-.88l-.04-.04-.04-.04V6.8l-.04-.04-.04-.04h-.52c-.33 0-.53.01-.55.02Zm-7.12 1.28a2.55 2.55 0 0 0-1.99 3.65 2.58 2.58 0 0 0 4.58.01c.9-1.8-.57-3.9-2.6-3.66Zm11.72 0a2.54 2.54 0 0 0-1.57 4.27 2.57 2.57 0 0 0 4.37-1.32 2.56 2.56 0 0 0-2.8-2.96Zm5.74 0c-.42.05-.84.26-1.24.63-.2.17-.2.18-.34-.21-.14-.36-.1-.33-.56-.33h-.35l-.04.04-.04.04v4.73l.04.03.04.04h1.25l.04-.04.04-.03v-1.6c0-1.86-.02-1.66.18-1.83.5-.42 1.14-.39 1.37.08l.05.1v1.63l.01 1.63.04.03c.04.03.07.03.69.03h.64l.04-.04.04-.04v-1.72c0-1.88 0-1.78-.1-2.09-.26-.78-.94-1.2-1.8-1.08Zm-16.8 1.28c.95.28 1.25 1.45.56 2.14-.74.75-2 .35-2.2-.7-.16-.9.75-1.7 1.63-1.44Zm11.67 0c.98.26 1.3 1.47.57 2.16a1.3 1.3 0 0 1-2.19-.84 1.3 1.3 0 0 1 1.62-1.33Zm-19.35 5.7c-.77.13-1.17.68-1.02 1.4.1.49.38.73 1.18 1.01.7.24.87.38.87.72 0 .59-.88.77-1.68.34-.24-.13-.22-.12-.27-.1-.05.02-.29.4-.3.45 0 .17.68.44 1.23.5 1.06.1 1.73-.37 1.73-1.22 0-.68-.31-1.01-1.28-1.34-.63-.21-.78-.32-.81-.61-.06-.5.6-.7 1.4-.41.22.08.22.09.37-.25.08-.17.08-.18.06-.22-.1-.18-1-.34-1.48-.27Zm8.13 0c-1.1.18-1.7 1.38-1.42 2.83.24 1.23 1.45 1.87 2.52 1.32.41-.21.55-.4.42-.57-.3-.34-.3-.34-.47-.2-.57.46-1.27.38-1.56-.18-.25-.5-.24-1.55.02-2.09.27-.53.93-.65 1.44-.26.18.13.2.13.38-.09.22-.25.22-.26.13-.36-.28-.3-.93-.48-1.46-.4Zm-5.1.09-.04.03v4.06l.04.04.04.04h2.49l.04-.04c.03-.03.03-.04.03-.25s0-.22-.03-.26l-.04-.04h-1.75l-.04-.04-.04-.03v-1.15l.04-.04.04-.04h1.27l.03-.04c.04-.04.04-.05.04-.25 0-.21 0-.22-.03-.26l-.04-.04h-1.27l-.04-.04-.04-.04v-.98l.04-.03.04-.04h1.63l.04-.04c.04-.04.04-.04.04-.26s0-.23-.04-.26l-.04-.04h-2.38l-.03.04Zm7.92 0-.04.04v1.46c.01 1.72.01 1.72.21 2.1.46.88 2.14.86 2.58-.03.19-.38.2-.46.2-2.15v-1.39l-.05-.03a1.34 1.34 0 0 0-.65-.01l-.04.03v1.46c-.02 1.69-.02 1.67-.18 1.9-.21.3-.88.33-1.13.04-.2-.22-.2-.18-.2-1.92l-.01-1.48-.04-.03c-.06-.06-.6-.05-.65 0Zm4.4 0-.03.03v4.06l.04.04c.04.04.04.04.33.04.28 0 .29 0 .33-.04l.04-.04v-1.62l.04-.04.04-.04h.53l.04.06c.02.02.2.4.4.85.45.97.36.87.78.87.48 0 .48.1-.01-.95-.47-1-.45-.9-.25-1 .82-.46.83-1.68 0-2.08-.3-.16-.54-.18-1.51-.18h-.72l-.04.04Zm4.21 0-.04.03v4.06l.04.04.04.04h2.49l.04-.04c.03-.03.04-.04.04-.25s0-.22-.04-.26l-.04-.04h-1.75l-.04-.04-.04-.03v-1.15l.04-.04.04-.04h1.27l.04-.04c.03-.04.03-.05.03-.25 0-.21 0-.22-.03-.26l-.04-.04h-1.27l-.04-.04-.04-.04v-.98l.04-.03.04-.04h1.65l.04-.04c.04-.04.04-.04.04-.26s0-.23-.04-.26l-.04-.04h-2.4l-.03.04Zm3.85 0-.04.03v4.06l.04.04.04.05.72-.01c.88 0 .99-.03 1.37-.21 1.16-.57 1.3-2.88.22-3.65-.38-.27-.7-.34-1.64-.35h-.67l-.04.03Zm-6.4.58c.6.13.66 1 .1 1.19-.24.08-.94.1-1.01.02l-.04-.03v-1.12l.04-.04.04-.04h.38c.27 0 .41 0 .49.02Zm7.77 0c.65.1.93.56.93 1.48 0 1.07-.34 1.48-1.26 1.52h-.26l-.04-.03-.04-.04v-2.87l.03-.04c.05-.04.42-.06.64-.02Zm-26.37 10.27-.04.04v.52c0 .66 0 .65-.19.5-.88-.7-2.05.3-1.72 1.46.23.8 1.17 1.12 1.74.6.12-.1.17-.09.17.05 0 .13.04.15.3.15.2 0 .2 0 .24-.04l.04-.04v-3.2l-.04-.04c-.04-.04-.05-.04-.25-.04s-.21 0-.25.04Zm2.63 0-.04.04v3.2l.04.04c.12.11.54.04.54-.1 0-.12.05-.14.17-.04.84.7 2-.2 1.76-1.35-.18-.85-1.15-1.25-1.74-.72-.2.17-.2.17-.2-.5v-.53l-.03-.04c-.04-.04-.05-.04-.25-.04s-.21 0-.25.04Zm7.9.08c-.6.1-.95.58-.83 1.14.08.38.34.56 1.08.75.54.14.7.25.7.48 0 .48-.8.54-1.4.11-.19-.12-.19-.12-.36.08-.2.22-.16.29.25.5.99.51 2.1.13 2.1-.73 0-.52-.27-.76-1.08-.97-.57-.15-.72-.25-.72-.49 0-.42.61-.5 1.2-.16.18.1.2.1.29-.02.2-.28.2-.28.11-.37-.26-.25-.9-.4-1.34-.32Zm14.87.19c-.04.04-.04.04-.04.28 0 .3-.02.33-.15.33s-.16.04-.16.25c0 .2.03.24.16.24.05 0 .08.01.11.04l.04.04v.64c0 .91.04 1.06.32 1.2.28.12.8.08.87-.07.04-.07.04-.34 0-.38l-.03-.04-.13.03c-.21.04-.34 0-.41-.12-.03-.05-.04-.08-.04-.66v-.6l.03-.04c.04-.04.05-.04.3-.04.32 0 .32 0 .32-.24 0-.25 0-.25-.32-.25-.25 0-.26 0-.3-.04-.03-.04-.03-.04-.03-.29 0-.33 0-.32-.3-.32-.2 0-.2 0-.24.04Zm-43.5.59c-.14.03-.31.11-.43.21-.14.11-.19.1-.19-.05 0-.14-.41-.22-.54-.1l-.03.04v3l.03.05c.04.04.05.04.25.04s.22 0 .25-.04l.04-.04v-.42c0-.53 0-.54.17-.41.63.51 1.59.13 1.76-.7.2-.95-.47-1.75-1.3-1.58Zm2.89-.01c-1.25.2-1.53 1.85-.4 2.39 1.02.49 2.14-.39 1.86-1.46a1.3 1.3 0 0 0-1.46-.93Zm6.75 0c-1.02.15-1.4 1.5-.63 2.2.43.4 1.17.43 1.66.07.2-.15.2-.2.07-.33-.18-.17-.19-.17-.35-.06-.43.28-.94.2-1.12-.18-.12-.25-.16-.24.82-.24h.8l.05-.04c.04-.04.04-.04.03-.24-.03-.78-.6-1.29-1.33-1.18Zm4.68 0c-.74.12-1.18.85-.98 1.64.22.83 1.29 1.17 2 .63.21-.15.22-.2.07-.34-.18-.16-.17-.16-.38-.02-.38.25-.9.15-1.08-.21-.12-.25-.16-.24.82-.24h.8l.05-.04c.04-.04.04-.04.03-.24-.03-.78-.62-1.3-1.33-1.18Zm20.17 0a.8.8 0 0 0-.36.18c-.16.11-.2.11-.2-.02 0-.1-.04-.13-.28-.13-.2 0-.22 0-.25.04l-.04.04v2.28l.04.04c.03.03.05.04.25.04s.2 0 .25-.04l.03-.04v-.67c0-.7.01-.8.08-.93.19-.36.67-.38.85-.02l.06.1v.77l.02.76.04.03c.06.06.43.05.49 0l.04-.04v-.67c0-.68 0-.79.06-.92.13-.3.55-.39.78-.16.14.14.14.13.15 1v.76l.05.03c.06.06.43.05.49 0l.04-.04v-.83c0-.91 0-.96-.11-1.16-.24-.49-.97-.56-1.44-.14-.11.1-.14.1-.26-.03a.84.84 0 0 0-.78-.22Zm7.14 0a.87.87 0 0 0-.36.18c-.13.11-.18.1-.18-.02 0-.1-.05-.13-.3-.13-.2 0-.2 0-.24.04l-.04.04v2.28l.04.04c.05.05.43.06.49 0l.04-.03v-.74l.01-.75.06-.1c.2-.4.73-.4.92-.02l.05.1v.76l.02.75.03.03c.07.06.44.05.5 0l.04-.04v-.8c0-.9-.01-.95-.11-1.16-.17-.34-.56-.5-.97-.42Zm4.39 0c-1.13.22-1.34 1.86-.31 2.39.45.23 1.08.16 1.44-.16.15-.14.15-.18 0-.32-.17-.14-.16-.14-.35-.01-.4.27-.92.17-1.1-.22-.1-.22-.14-.22.83-.22h.81l.04-.04c.1-.09.02-.57-.13-.85a1.13 1.13 0 0 0-1.23-.56Zm2.9 0c-1.35.21-1.46 2.13-.15 2.48.46.12 1.1-.06 1.28-.36.1-.15-.25-.41-.4-.3-.54.41-1.18.15-1.23-.5-.06-.68.62-1.05 1.16-.66.16.12.18.11.32-.04.2-.2.2-.23.03-.37a1.4 1.4 0 0 0-1.01-.25Zm-36.25.03a.89.89 0 0 0-.38.25c-.14.16-.18.15-.18-.05 0-.19-.02-.2-.28-.2-.19 0-.2 0-.24.04l-.04.04v2.28l.04.04c.04.03.05.04.24.04.2 0 .2 0 .24-.04l.04-.04v-.42c0-.95.16-1.26.67-1.36.2-.04.2-.04.2-.33 0-.3-.05-.33-.31-.25Zm25.79-.01c-.53.06-.66.16-.57.41.07.22.08.23.3.16.56-.18 1.05-.02 1.05.33 0 .1-.02.1-.23.07-.85-.14-1.4.16-1.4.77 0 .67.86 1 1.48.58.1-.07.15-.07.17.01.03.12.42.18.52.08l.04-.04v-.79c0-.73 0-.8-.03-.9-.14-.53-.62-.77-1.33-.68Zm-33.75.04c-.05.03-.06 0 .33 1.21.44 1.34.37 1.21.65 1.21s.24.06.5-.74c.33-.96.28-.96.59-.01.27.82.22.75.5.75.26 0 .26 0 .36-.29l.67-2.09c0-.1-.5-.1-.55 0a16 16 0 0 0-.22.7c-.3.96-.24.96-.55 0-.24-.72-.23-.7-.28-.74-.06-.04-.38-.04-.44 0-.05.04-.05.04-.29.78-.29.9-.24.9-.53-.06-.24-.82-.2-.75-.5-.75-.16 0-.21 0-.24.03Zm18.8 0c-.05.04-.04.07.44 1.22.5 1.19.5 1.18.44 1.3-.09.13-.25.18-.46.12-.14-.05-.26.07-.3.3-.03.17.57.3.84.17.33-.14.33-.14.96-1.77.6-1.51.57-1.37.22-1.37-.32 0-.25-.1-.6.86-.27.78-.27.8-.32.8-.04 0-.04-.01-.35-.8-.3-.8-.3-.8-.36-.83a1.23 1.23 0 0 0-.51 0Zm6.96-.01c-.06.03-.03.1.44 1.21.5 1.22.5 1.2.44 1.3-.09.15-.23.2-.43.14-.18-.04-.19-.03-.27.14-.13.27 0 .37.47.37.56 0 .57-.02 1.28-1.84.58-1.48.56-1.34.2-1.34-.31 0-.25-.09-.58.85-.28.79-.28.8-.33.8-.04 0-.05-.01-.37-.84-.22-.56-.3-.75-.33-.77a1.23 1.23 0 0 0-.52-.02Zm-20.48.44c.24.08.5.48.36.57-.06.03-1.1.03-1.12-.01-.17-.27.38-.67.76-.56Zm4.68 0c.25.08.5.47.36.57-.06.03-1.1.03-1.12-.01-.06-.1.08-.36.24-.48a.6.6 0 0 1 .52-.08Zm31.82.03c.17.08.3.27.33.45.02.11.01.11-.6.11-.65 0-.65 0-.52-.26.16-.32.5-.45.8-.3Zm-46.21 0c.64.23.63 1.27-.01 1.47-.53.16-1-.34-.88-.91.1-.43.5-.69.89-.56Zm3.05.01c.76.3.58 1.49-.24 1.49-.56 0-.9-.61-.64-1.14a.73.73 0 0 1 .88-.35Zm14.25 0c.73.25.6 1.43-.16 1.49-.55.04-.91-.6-.66-1.14.15-.31.5-.47.82-.36Zm4.66.02c.58.28.52 1.25-.09 1.44-.6.18-1.1-.5-.8-1.1a.67.67 0 0 1 .88-.34Zm16.74.83c.3.06.35.14.25.39-.2.43-1.05.4-1.05-.04 0-.28.34-.43.8-.35ZM82.08 2.02c-3.76.36-6.47.8-9.19 1.49l-.77.2-.07.45c-.12.74 0 5.63.15 6.69.77 5.26 2.7 9.41 5.94 12.75a20.69 20.69 0 0 0 5.38 3.97c1.13.55 1.48.56 2.49.07 5.75-2.82 9.74-8.12 11.17-14.85.44-2.1.53-3.07.53-6.13 0-1.86-.04-2.86-.1-2.92-.18-.19-3.98-.98-6.22-1.3-2.37-.35-3.24-.4-6.1-.43-1.57-.02-3.02-.01-3.21 0Zm6.27 1.46c1.4.14 3.26.42 4.59.68 1.6.32 3.01.65 3.17.75.3.19.28 4.4-.04 6.57-1 6.76-4.7 12.13-10.24 14.86l-.98.49-1-.48a18.1 18.1 0 0 1-7.24-6.47 22.27 22.27 0 0 1-3.22-11.14 21.3 21.3 0 0 1 .19-3.73 50.01 50.01 0 0 1 9.7-1.65c.72-.05 4.15.03 5.07.12Zm38.31.54c-.5.18-.72.36-.98.79-.21.35-.24.5-.27 1.3l-.03.9h-1.27v1.52h1.2v4.55h2.06V8.53h1.46V7.02h-1.46V6.7c0-.51.15-.98.36-1.14.16-.13.29-.15.6-.11.3.03.42.01.42-.06l.07-.74.06-.65-.25-.05a6.27 6.27 0 0 0-1.97.07Zm-25.09.32-.69 4.28c-.35 2.25-.67 4.19-.7 4.32l-.04.23 1.14-.02 1.14-.03.35-2.33.34-2.33.94 2.35.94 2.36h1.07c.82 0 1.06-.03 1.02-.1l-3.17-8.68-.08-.24h-1.1c-1.09 0-1.12.01-1.16.2Zm4.84 2-.83 2.2.52 1.35c.29.74.55 1.32.58 1.28.04-.04.3-.63.6-1.3.3-.7.57-1.25.6-1.25.03 0 .14.7.25 1.58l.28 2.27.1.7h1.14c1.15 0 1.15 0 1.1-.2-.03-.18-1.24-8.64-1.24-8.76 0-.03-.51-.05-1.14-.05h-1.13l-.83 2.19Zm12.8-1.96c-.12.29-3 8.71-3 8.76 0 .01.51.03 1.14.03h1.13l.3-.8.28-.8 1.38.02 1.38.02.26.78.26.78h1.14c.63 0 1.14-.03 1.14-.07 0-.03-.67-2.05-1.49-4.48l-1.49-4.42-1.17-.03-1.17-.02-.1.23Zm24.38.13c-.96.64-1 1.94-.07 2.61.5.36 1.36.35 1.9-.03.85-.6.74-2.13-.19-2.6-.48-.24-1.25-.23-1.64.02Zm1.51.32c.35.21.56.59.56 1.01 0 .48-.26.87-.73 1.1-.47.22-.89.16-1.3-.2-.75-.64-.51-1.7.46-2.04.36-.13.63-.1 1.01.13Zm-1.33 1.05c0 .83.07.89.17.89.09 0 .17-.06.17-.43 0-.31-.03-.42.13-.42.13 0 .23.2.35.42.15.3.27.43.38.43.12 0 .22-.12-.01-.5-.14-.2-.23-.4-.16-.43.2-.06.24-.2.24-.4 0-.15-.02-.44-.67-.44h-.6v.88Zm.82-.56c.04.04.04.22 0 .27-.06.05-.13.08-.25.08-.18 0-.23-.04-.23-.21 0-.17.05-.21.25-.21.13 0 .14.01.23.07ZM75.17 8.34c0 2.7.09 3.62.56 5.42 1.2 4.65 4.3 8.6 8.3 10.58l.78.38.37-.14a16.43 16.43 0 0 0 8.91-11.24c.4-1.66.48-2.5.48-5.1v-2.4l-.5.04a123.68 123.68 0 0 1-18.42 0l-.48-.05v2.51Zm56.6-1.5c-1.57.34-2.43 1.48-2.43 3.24 0 2.02 1.23 3.25 3.28 3.25 1.3 0 2.44-.66 2.82-1.65.1-.25.17-.47.17-.5 0-.02-.46-.04-1.02-.04-.94 0-1.04.02-1.12.17-.05.1-.2.23-.34.3-.58.29-1.3.05-1.56-.5-.31-.68-.43-.64 1.98-.64h2.15v-.19c0-.51-.2-1.4-.4-1.85A2.98 2.98 0 0 0 133.75 7a4.68 4.68 0 0 0-1.98-.14Zm6.96 0c-1 .22-1.83.88-2.18 1.74-.17.43-.2.65-.2 1.51 0 .98 0 1.04.28 1.58.34.67.87 1.16 1.55 1.43.4.15.66.19 1.43.19 1.04 0 1.44-.12 2.1-.63.31-.24.86-1.14.86-1.4 0-.09-.22-.12-.99-.12h-.99l-.24.27c-.2.21-.32.27-.66.3-.66.05-1.15-.31-1.28-.97l-.06-.27H142.66v-.36c0-.51-.22-1.42-.44-1.83a2.9 2.9 0 0 0-1.42-1.26 4.7 4.7 0 0 0-2.07-.17Zm-25.35.29a3.12 3.12 0 0 0-2.25 1.81c-.15.38-.2.65-.2 1.32 0 .75.03.9.25 1.37.26.55.82 1.15 1.34 1.41a5 5 0 0 0 2.96.27l.43-.1.02-.82c.02-.45 0-.82-.04-.82s-.26.05-.49.12c-.56.17-.96.16-1.38-.03-.9-.4-1.21-1.36-.73-2.28.39-.75 1.24-.92 2.33-.47.15.06.17-.02.29-1.06l.05-.47-.36-.15a5.09 5.09 0 0 0-2.22-.1Zm7.8 2.52c0 .03-.34.06-.77.06-.61 0-.77-.02-.74-.1a49 49 0 0 0 .72-2.38c.03-.1.18.28.42 1.1.21.69.38 1.29.38 1.32Zm11.97-1.21c.13.08.29.22.36.31.26.34.19.37-.94.37-.6 0-1.08-.02-1.08-.04 0-.03.06-.15.13-.28.24-.47 1.06-.66 1.53-.36Zm6.99 0c.15.1.34.29.4.43l.14.25h-1.11c-.63 0-1.12-.03-1.12-.07 0-.13.44-.61.63-.69.31-.12.77-.08 1.06.09Zm-56.1 2.81c.5 1.59.93 3.1.93 3.1l.1.28.23.74.07.24.32 1.02.15.42.23.55c.1.29.17.57.17.59 0 .02-.58.02-1.3.01l-1.3-.02-.67-2.52a66.68 66.68 0 0 0-.7-2.55c-.08-.07-.13.24-.5 2.67l-.37 2.42h-1.18l-1.16-.02.62-3.96c.35-2.18.7-4.39.77-4.9l.15-.95h2.52l.92 2.88Zm5.2-2.86.74 4.82c.4 2.63.73 4.83.73 4.9 0 .09-.24.11-1.16.11-1.02 0-1.15-.02-1.2-.15l-.44-2.57a29.73 29.73 0 0 0-.46-2.42c-.03 0-.22.79-.43 1.75-.2.96-.4 1.81-.43 1.9-.03.1-.29-.55-.69-1.75l-.63-1.9.4-1.28.76-2.36.34-1.07h1.24c.68 0 1.24 0 1.24.02Zm12.67 7.67c-.77.25-1.3.68-1.54 1.25-.2.47-.17 1.44.05 1.89.25.52.63.8 1.86 1.41.6.3 1.2.65 1.33.79.6.63.43 1.46-.4 1.9-.47.24-1.41.24-2.2-.01-.3-.1-.56-.17-.57-.16-.02.02-.05.3-.08.62l-.06.59.66.15c.9.2 2.2.15 2.92-.12 1.05-.4 1.56-1.22 1.5-2.39-.07-1.14-.5-1.64-2.12-2.45-1.31-.65-1.6-.91-1.6-1.44 0-.89 1.07-1.27 2.49-.89.33.1.62.14.65.1.03-.02.08-.28.12-.56l.05-.52-.28-.1a8.81 8.81 0 0 0-2.78-.06Zm14.47.01a4.18 4.18 0 0 0-3.14 3.1c-.19.7-.12 2 .13 2.7a4.07 4.07 0 0 0 2.99 2.62 9.8 9.8 0 0 0 2.98.02l.43-.1.03-.66c.02-.61.01-.66-.13-.6a4.23 4.23 0 0 1-3.33.03c-1.9-.87-2.4-3.54-.95-5.11a3.51 3.51 0 0 1 3.81-.75l.52.2.06-.53c.03-.3.03-.6 0-.66-.08-.21-.65-.32-1.81-.35-.8-.02-1.25 0-1.59.1Zm-9.27 4.21v4.26h4.98v-1.18h-3.6v-2.7h3.34v-1.09H108.48V17.2h3.6v-1.18h-4.98v4.25Zm13.65-1.62c0 1.45.04 2.87.09 3.16.2 1.27.77 2.08 1.73 2.51.47.21.67.25 1.48.27.77.03 1.05 0 1.49-.13a2.95 2.95 0 0 0 1.95-1.91c.15-.38.17-.76.2-3.48l.03-3.05h-1.39v2.73c0 2.96-.04 3.35-.43 3.95-.36.57-.8.77-1.67.77-.77 0-1.04-.1-1.48-.55-.54-.54-.57-.73-.6-3.97l-.04-2.93h-1.36v2.63Zm8.84 1.61v4.27h1.38v-3.71h.7c.73 0 1.06.11 1.27.45.07.1.44.86.83 1.7l.7 1.51.78.03c.43.01.78 0 .78-.02 0-.19-1.95-3.83-2.15-4.01l-.24-.22.31-.1c.43-.12.93-.54 1.14-.94.13-.24.17-.5.17-.94 0-.76-.18-1.19-.68-1.6-.57-.48-1.07-.58-3.16-.64l-1.83-.04v4.26Zm7.73.01v4.26h5.07v-1.18H138.7v-2.7h3.34v-1.09h-3.34V17.2H142.4v-1.18h-5.07v4.25Zm-4.02-2.84c.38.24.62.7.56 1.08-.12.74-.71 1.07-2.01 1.12l-.88.03v-2.48l1 .03c.87.03 1.06.06 1.33.22Z" fill="#1C1C28"/></g><defs><clipPath id="a"><path fill="#fff" d="M0 0h214v30H0z"/></clipPath><clipPath id="b"><path fill="#fff" d="M0 0h60v28H0z"/></clipPath><linearGradient id="c" x1="2.24" y1="19.04" x2="18.64" y2="19.04" gradientUnits="userSpaceOnUse"><stop offset=".52" stop-color="#ACACAC"/><stop offset=".52" stop-color="#DBDBDB"/></linearGradient></defs></svg>