<svg width="40" height="40" viewBox="0 0 40 40" fill="none" xmlns="http://www.w3.org/2000/svg">
<path d="M20.0455 0H19.9545C8.93391 0 0 8.93392 0 19.9545V20.0455C0 31.0661 8.93391 40 19.9545 40H20.0455C31.0661 40 40 31.0661 40 20.0455V19.9545C40 8.93392 31.0661 0 20.0455 0Z" fill="#FF0000"/>
<path fill-rule="evenodd" clip-rule="evenodd" d="M18.1747 25.4687C18.1509 25.5513 18.1284 25.6214 18.1102 25.6915C17.0522 29.8368 16.9344 30.7575 15.847 32.6831C15.3284 33.5982 14.7441 34.4656 14.098 35.2952C14.0252 35.3891 13.9565 35.5097 13.8107 35.4802C13.651 35.4466 13.6384 35.3023 13.6215 35.1747C13.4478 33.9149 13.3511 32.6522 13.3931 31.3797C13.4478 29.7233 13.6524 29.1543 15.7881 20.1742C15.8189 20.0369 15.7839 19.9233 15.7391 19.8C15.2275 18.4211 15.1266 17.0211 15.5737 15.6029C16.5406 12.5394 20.0133 12.3054 20.6201 14.8321C20.9943 16.3946 20.0049 18.4407 19.2453 21.4649C18.6161 23.9594 21.5534 25.7335 24.0633 23.9117C26.3784 22.2328 27.2767 18.208 27.1058 15.3548C26.7694 9.66655 20.5318 8.43752 16.5757 10.2691C12.0394 12.367 11.008 17.9894 13.0568 20.5596C13.316 20.8861 13.8051 21.0865 13.7196 21.4172C13.5879 21.9316 13.4716 22.4501 13.3287 22.9616C13.2221 23.3427 12.6153 23.4815 12.23 23.3245C11.4746 23.019 10.8454 22.5384 10.3353 21.9049C8.59615 19.751 8.09865 15.4907 10.3983 11.8835C12.9461 7.88817 17.6856 6.27097 22.0131 6.76146C27.1814 7.34864 30.4481 10.8802 31.0591 14.8867C31.338 16.7114 31.1376 21.2112 28.5758 24.3924C25.6287 28.0472 20.8513 28.2897 18.6469 26.046C18.4774 25.8737 18.3414 25.6733 18.1747 25.4673V25.4687Z" fill="white"/>
</svg>
