<svg width="109" height="40" viewBox="0 0 109 40" fill="none" xmlns="http://www.w3.org/2000/svg">
<g filter="url(#filter0_b_1_4693)">
<path d="M0.5 0H88.5C99.5457 0 108.5 8.95431 108.5 20C108.5 31.0457 99.5457 40 88.5 40H0.5V0Z" fill="#DDDBF6" fill-opacity="0.24"/>
<path d="M43 17C43 17.1989 42.921 17.3897 42.7804 17.5303C42.6397 17.671 42.449 17.75 42.25 17.75H40.75V19.25C40.75 19.4489 40.671 19.6397 40.5304 19.7803C40.3897 19.921 40.199 20 40 20C39.8011 20 39.6104 19.921 39.4697 19.7803C39.3291 19.6397 39.25 19.4489 39.25 19.25V17.75H37.75C37.5511 17.75 37.3604 17.671 37.2197 17.5303C37.0791 17.3897 37 17.1989 37 17C37 16.8011 37.0791 16.6103 37.2197 16.4697C37.3604 16.329 37.5511 16.25 37.75 16.25H39.25V14.75C39.25 14.5511 39.3291 14.3603 39.4697 14.2197C39.6104 14.079 39.8011 14 40 14C40.199 14 40.3897 14.079 40.5304 14.2197C40.671 14.3603 40.75 14.5511 40.75 14.75V16.25H42.25C42.449 16.25 42.6397 16.329 42.7804 16.4697C42.921 16.6103 43 16.8011 43 17ZM34 13.25H34.75V14C34.75 14.1989 34.8291 14.3897 34.9697 14.5303C35.1104 14.671 35.3011 14.75 35.5 14.75C35.6989 14.75 35.8897 14.671 36.0304 14.5303C36.171 14.3897 36.25 14.1989 36.25 14V13.25H37C37.199 13.25 37.3897 13.171 37.5304 13.0303C37.671 12.8897 37.75 12.6989 37.75 12.5C37.75 12.3011 37.671 12.1103 37.5304 11.9697C37.3897 11.829 37.199 11.75 37 11.75H36.25V11C36.25 10.8011 36.171 10.6103 36.0304 10.4697C35.8897 10.329 35.6989 10.25 35.5 10.25C35.3011 10.25 35.1104 10.329 34.9697 10.4697C34.8291 10.6103 34.75 10.8011 34.75 11V11.75H34C33.8011 11.75 33.6104 11.829 33.4697 11.9697C33.3291 12.1103 33.25 12.3011 33.25 12.5C33.25 12.6989 33.3291 12.8897 33.4697 13.0303C33.6104 13.171 33.8011 13.25 34 13.25ZM40.1069 22.0934C38.7766 22.3563 37.4021 22.2874 36.1047 21.8929C34.8074 21.4985 33.6272 20.7906 32.6683 19.8317C31.7095 18.8729 31.0016 17.6927 30.6071 16.3953C30.2126 15.0979 30.1438 13.7234 30.4066 12.3931C30.4323 12.2626 30.4229 12.1275 30.3792 12.0018C30.3355 11.8761 30.2592 11.7643 30.1581 11.6779C30.0569 11.5914 29.9346 11.5334 29.8036 11.5099C29.6727 11.4863 29.5378 11.498 29.4129 11.5437C27.9927 12.0631 26.7262 12.9318 25.7305 14.0698C24.7347 15.2079 24.0417 16.5784 23.7155 18.055C23.3894 19.5315 23.4405 21.0665 23.8642 22.5181C24.2878 23.9696 25.0704 25.2911 26.1397 26.3603C27.209 27.4296 28.5304 28.2122 29.982 28.6359C31.4336 29.0596 32.9685 29.1107 34.4451 28.7845C35.9216 28.4583 37.2922 27.7653 38.4302 26.7696C39.5682 25.7738 40.437 24.5074 40.9563 23.0872C41.002 22.9622 41.0137 22.8274 40.9902 22.6964C40.9666 22.5654 40.9086 22.4431 40.8222 22.342C40.7357 22.2408 40.6239 22.1645 40.4982 22.1208C40.3725 22.0771 40.2375 22.0677 40.1069 22.0934Z" fill="white"/>
<path d="M57.972 25V14.008H66.212C66.9267 14.008 67.5507 14.1627 68.084 14.472C68.6173 14.7813 69.0333 15.2133 69.332 15.768C69.6307 16.312 69.78 16.9413 69.78 17.656C69.78 18.3707 69.6253 19.0107 69.316 19.576C69.0173 20.1307 68.596 20.5627 68.052 20.872C67.508 21.1813 66.8787 21.336 66.164 21.336H60.74V25H57.972ZM60.74 19.144H65.396C65.9293 19.144 66.34 19.016 66.628 18.76C66.916 18.504 67.06 18.1413 67.06 17.672C67.06 17.3627 66.996 17.1013 66.868 16.888C66.74 16.664 66.548 16.4933 66.292 16.376C66.0467 16.248 65.748 16.184 65.396 16.184H60.74V19.144ZM71.7064 25V14.008H76.0104L78.2664 19.304C78.3517 19.4853 78.4477 19.7253 78.5544 20.024C78.6717 20.3227 78.789 20.6373 78.9064 20.968C79.0344 21.2987 79.1464 21.592 79.2424 21.848H79.3544C79.4397 21.6133 79.541 21.3413 79.6584 21.032C79.7757 20.7227 79.893 20.4133 80.0104 20.104C80.1277 19.7947 80.229 19.5333 80.3144 19.32L82.5864 14.008H86.7784V25H84.0264V18.696C84.0264 18.4933 84.0264 18.2693 84.0264 18.024C84.037 17.7787 84.0477 17.5387 84.0584 17.304C84.069 17.0693 84.0744 16.8613 84.0744 16.68H83.9464C83.893 16.8613 83.8184 17.0747 83.7224 17.32C83.637 17.5653 83.5517 17.8107 83.4664 18.056C83.381 18.3013 83.301 18.5147 83.2264 18.696L80.5064 25H77.8824L75.1624 18.696C75.0557 18.4507 74.9544 18.2053 74.8584 17.96C74.7624 17.704 74.677 17.464 74.6024 17.24C74.5384 17.016 74.4797 16.8293 74.4264 16.68H74.2984C74.309 16.8187 74.3144 17 74.3144 17.224C74.325 17.448 74.3304 17.688 74.3304 17.944C74.341 18.2 74.3464 18.4507 74.3464 18.696V25H71.7064Z" fill="white"/>
</g>
<defs>
<filter id="filter0_b_1_4693" x="-79.5" y="-80" width="268" height="200" filterUnits="userSpaceOnUse" color-interpolation-filters="sRGB">
<feFlood flood-opacity="0" result="BackgroundImageFix"/>
<feGaussianBlur in="BackgroundImageFix" stdDeviation="40"/>
<feComposite in2="SourceAlpha" operator="in" result="effect1_backgroundBlur_1_4693"/>
<feBlend mode="normal" in="SourceGraphic" in2="effect1_backgroundBlur_1_4693" result="shape"/>
</filter>
</defs>
</svg>
