<svg width="108" height="20" viewBox="0 0 108 20" fill="none" xmlns="http://www.w3.org/2000/svg">
<path d="M18.3089 9.22164L14.7878 12.4109L15.8426 17.1592C15.8984 17.4074 15.8824 17.6672 15.7968 17.9061C15.7111 18.1449 15.5595 18.3523 15.3609 18.5022C15.1622 18.6522 14.9254 18.738 14.6801 18.749C14.4347 18.76 14.1917 18.6958 13.9813 18.5642L9.99102 16.0523L6.00932 18.5642C5.79897 18.6958 5.55591 18.76 5.31055 18.749C5.06518 18.738 4.82839 18.6522 4.62977 18.5022C4.43116 18.3523 4.27953 18.1449 4.19386 17.9061C4.10818 17.6672 4.09225 17.4074 4.14807 17.1592L5.20127 12.4158L1.67941 9.22164C1.49314 9.0549 1.35844 8.8348 1.29222 8.58893C1.22599 8.34306 1.23118 8.08237 1.30714 7.83955C1.3831 7.59673 1.52644 7.38259 1.7192 7.22398C1.91195 7.06537 2.14553 6.96936 2.39065 6.94799L7.03285 6.53069L8.84491 2.04497C8.93954 1.8096 9.09916 1.60854 9.30366 1.46712C9.50816 1.3257 9.7484 1.25024 9.99414 1.25024C10.2399 1.25024 10.4801 1.3257 10.6846 1.46712C10.8891 1.60854 11.0487 1.8096 11.1434 2.04497L12.9609 6.53069L17.6015 6.94799C17.8467 6.96936 18.0802 7.06537 18.273 7.22398C18.4657 7.38259 18.6091 7.59673 18.685 7.83955C18.761 8.08237 18.7662 8.34306 18.7 8.58893C18.6337 8.8348 18.499 9.0549 18.3128 9.22164H18.3089Z" fill="#F9C136"/>
<path d="M40.3089 9.22164L36.7878 12.4109L37.8426 17.1592C37.8984 17.4074 37.8824 17.6672 37.7968 17.9061C37.7111 18.1449 37.5595 18.3523 37.3609 18.5022C37.1622 18.6522 36.9254 18.738 36.6801 18.749C36.4347 18.76 36.1917 18.6958 35.9813 18.5642L31.991 16.0523L28.0093 18.5642C27.799 18.6958 27.5559 18.76 27.3105 18.749C27.0652 18.738 26.8284 18.6522 26.6298 18.5022C26.4312 18.3523 26.2795 18.1449 26.1939 17.9061C26.1082 17.6672 26.0923 17.4074 26.1481 17.1592L27.2013 12.4158L23.6794 9.22164C23.4931 9.0549 23.3584 8.8348 23.2922 8.58893C23.226 8.34306 23.2312 8.08237 23.3071 7.83955C23.3831 7.59673 23.5264 7.38259 23.7192 7.22398C23.912 7.06537 24.1455 6.96936 24.3907 6.94799L29.0328 6.53069L30.8449 2.04497C30.9395 1.8096 31.0992 1.60854 31.3037 1.46712C31.5082 1.3257 31.7484 1.25024 31.9941 1.25024C32.2399 1.25024 32.4801 1.3257 32.6846 1.46712C32.8891 1.60854 33.0487 1.8096 33.1434 2.04497L34.9609 6.53069L39.6015 6.94799C39.8467 6.96936 40.0802 7.06537 40.273 7.22398C40.4657 7.38259 40.6091 7.59673 40.685 7.83955C40.761 8.08237 40.7662 8.34306 40.7 8.58893C40.6337 8.8348 40.499 9.0549 40.3128 9.22164H40.3089Z" fill="#F9C136"/>
<path d="M62.3089 9.22164L58.7878 12.4109L59.8426 17.1592C59.8984 17.4074 59.8824 17.6672 59.7968 17.9061C59.7111 18.1449 59.5595 18.3523 59.3609 18.5022C59.1622 18.6522 58.9254 18.738 58.6801 18.749C58.4347 18.76 58.1917 18.6958 57.9813 18.5642L53.991 16.0523L50.0093 18.5642C49.799 18.6958 49.5559 18.76 49.3105 18.749C49.0652 18.738 48.8284 18.6522 48.6298 18.5022C48.4312 18.3523 48.2795 18.1449 48.1939 17.9061C48.1082 17.6672 48.0923 17.4074 48.1481 17.1592L49.2013 12.4158L45.6794 9.22164C45.4931 9.0549 45.3584 8.8348 45.2922 8.58893C45.226 8.34306 45.2312 8.08237 45.3071 7.83955C45.3831 7.59673 45.5264 7.38259 45.7192 7.22398C45.912 7.06537 46.1455 6.96936 46.3907 6.94799L51.0328 6.53069L52.8449 2.04497C52.9395 1.8096 53.0992 1.60854 53.3037 1.46712C53.5082 1.3257 53.7484 1.25024 53.9941 1.25024C54.2399 1.25024 54.4801 1.3257 54.6846 1.46712C54.8891 1.60854 55.0487 1.8096 55.1434 2.04497L56.9609 6.53069L61.6015 6.94799C61.8467 6.96936 62.0802 7.06537 62.273 7.22398C62.4657 7.38259 62.6091 7.59673 62.685 7.83955C62.761 8.08237 62.7662 8.34306 62.7 8.58893C62.6337 8.8348 62.499 9.0549 62.3128 9.22164H62.3089Z" fill="#F9C136"/>
<path d="M84.3089 9.22164L80.7878 12.4109L81.8426 17.1592C81.8984 17.4074 81.8824 17.6672 81.7968 17.9061C81.7111 18.1449 81.5595 18.3523 81.3609 18.5022C81.1622 18.6522 80.9254 18.738 80.6801 18.749C80.4347 18.76 80.1917 18.6958 79.9813 18.5642L75.991 16.0523L72.0093 18.5642C71.799 18.6958 71.5559 18.76 71.3105 18.749C71.0652 18.738 70.8284 18.6522 70.6298 18.5022C70.4312 18.3523 70.2795 18.1449 70.1939 17.9061C70.1082 17.6672 70.0923 17.4074 70.1481 17.1592L71.2013 12.4158L67.6794 9.22164C67.4931 9.0549 67.3584 8.8348 67.2922 8.58893C67.226 8.34306 67.2312 8.08237 67.3071 7.83955C67.3831 7.59673 67.5264 7.38259 67.7192 7.22398C67.912 7.06537 68.1455 6.96936 68.3907 6.94799L73.0328 6.53069L74.8449 2.04497C74.9395 1.8096 75.0992 1.60854 75.3037 1.46712C75.5082 1.3257 75.7484 1.25024 75.9941 1.25024C76.2399 1.25024 76.4801 1.3257 76.6846 1.46712C76.8891 1.60854 77.0487 1.8096 77.1434 2.04497L78.9609 6.53069L83.6015 6.94799C83.8467 6.96936 84.0802 7.06537 84.273 7.22398C84.4657 7.38259 84.6091 7.59673 84.685 7.83955C84.761 8.08237 84.7662 8.34306 84.7 8.58893C84.6337 8.8348 84.499 9.0549 84.3128 9.22164H84.3089Z" fill="#F9C136"/>
<path d="M106.309 9.22139L102.788 12.4107L103.843 17.1589C103.899 17.4071 103.883 17.6669 103.797 17.9058C103.711 18.1447 103.56 18.3521 103.361 18.502C103.162 18.6519 102.926 18.7378 102.68 18.7488C102.435 18.7598 102.192 18.6955 101.982 18.5639L97.9913 16.0521L94.0096 18.5639C93.7992 18.6955 93.5562 18.7598 93.3108 18.7488C93.0654 18.7378 92.8286 18.6519 92.63 18.502C92.4314 18.3521 92.2798 18.1447 92.1941 17.9058C92.1084 17.6669 92.0925 17.4071 92.1483 17.1589L93.2015 12.4155L89.6797 9.22139C89.4934 9.05466 89.3587 8.83455 89.2925 8.58868C89.2262 8.34281 89.2314 8.08212 89.3074 7.8393C89.3833 7.59648 89.5267 7.38234 89.7194 7.22374C89.9122 7.06513 90.1458 6.96912 90.3909 6.94774L95.0331 6.53045L96.8452 2.04473C96.9398 1.80935 97.0994 1.6083 97.3039 1.46688C97.5084 1.32546 97.7486 1.25 97.9944 1.25C98.2401 1.25 98.4804 1.32546 98.6849 1.46688C98.8894 1.6083 99.049 1.80935 99.1436 2.04473L100.961 6.53045L105.602 6.94774C105.847 6.96912 106.08 7.06513 106.273 7.22374C106.466 7.38234 106.609 7.59648 106.685 7.8393C106.761 8.08212 106.766 8.34281 106.7 8.58868C106.634 8.83455 106.499 9.05466 106.313 9.22139H106.309Z" fill="#F9C136"/>
</svg>
