<svg width="25" height="24" viewBox="0 0 25 24" fill="none" xmlns="http://www.w3.org/2000/svg">
<path d="M12.5 9.39094C12.2776 8.97914 12.027 8.5832 11.75 8.20594V5.25C11.75 5.05109 11.829 4.86032 11.9697 4.71967C12.1103 4.57902 12.3011 4.5 12.5 4.5C12.6989 4.5 12.8897 4.57902 13.0303 4.71967C13.171 4.86032 13.25 5.05109 13.25 5.25V8.20594C12.973 8.5832 12.7224 8.97914 12.5 9.39094ZM22.3156 4.7325C21.9688 4.28437 21.2975 3.75 20.0938 3.75C18.5141 3.75 16.4881 4.8075 14.6741 6.5775C14.1554 7.08022 13.6791 7.62488 13.25 8.20594V16.875C13.25 17.0739 13.171 17.2647 13.0303 17.4053C12.8897 17.546 12.6989 17.625 12.5 17.625C12.3011 17.625 12.1103 17.546 11.9697 17.4053C11.829 17.2647 11.75 17.0739 11.75 16.875V8.20594C11.3221 7.62503 10.8471 7.08037 10.3297 6.5775C8.5147 4.8075 6.48876 3.75 4.90626 3.75C3.70251 3.75 3.03126 4.28437 2.68439 4.7325C2.04501 5.55469 1.54251 6.99 2.6647 11.4075C3.23189 13.6416 4.49376 14.5012 5.53626 14.8219C4.96775 15.745 4.78552 16.8549 5.029 17.9113C5.27249 18.9678 5.92211 19.886 6.83733 20.4672C7.75255 21.0483 8.85979 21.2459 9.91951 21.017C10.9792 20.7881 11.9063 20.1512 12.5 19.2441C13.0938 20.1512 14.0208 20.7881 15.0805 21.017C16.1402 21.2459 17.2475 21.0483 18.1627 20.4672C19.0779 19.886 19.7275 18.9678 19.971 17.9113C20.2145 16.8549 20.0323 15.745 19.4638 14.8219C20.5063 14.5031 21.7672 13.6416 22.3353 11.4075C22.9653 8.92875 23.4547 6.19687 22.3156 4.7325Z" fill="white"/>
</svg>
