<svg width="24" height="24" viewBox="0 0 24 24" fill="none" xmlns="http://www.w3.org/2000/svg">
<path d="M20.0484 11.762L9.54838 23.012C9.43711 23.1307 9.29023 23.21 9.12992 23.238C8.9696 23.2659 8.80455 23.241 8.65966 23.1669C8.51476 23.0928 8.3979 22.9736 8.3267 22.8273C8.2555 22.681 8.23382 22.5154 8.26494 22.3557L9.63932 15.481L4.23651 13.4523C4.12047 13.4089 4.017 13.3374 3.93533 13.2442C3.85366 13.1511 3.79633 13.0392 3.76847 12.9184C3.74062 12.7977 3.7431 12.672 3.77569 12.5525C3.80828 12.433 3.86998 12.3234 3.95526 12.2335L14.4553 0.983518C14.5665 0.864771 14.7134 0.785435 14.8737 0.757484C15.034 0.729534 15.1991 0.754484 15.344 0.82857C15.4889 0.902656 15.6057 1.02186 15.6769 1.16819C15.7481 1.31452 15.7698 1.48004 15.7387 1.63977L14.3606 8.52196L19.7634 10.5479C19.8786 10.5916 19.9812 10.663 20.0622 10.7558C20.1433 10.8485 20.2002 10.9599 20.228 11.0799C20.2558 11.1999 20.2536 11.3249 20.2216 11.4438C20.1897 11.5628 20.1289 11.6721 20.0446 11.762H20.0484Z" fill="#362071"/>
</svg>
