<svg width="25" height="24" viewBox="0 0 25 24" fill="none" xmlns="http://www.w3.org/2000/svg">
<path d="M15.8751 6.75007C15.4869 6.74985 15.0994 6.7812 14.7163 6.84382C14.5801 5.43603 14.0046 4.10672 13.0714 3.04393C12.1382 1.98115 10.8944 1.23871 9.51602 0.92163C9.39223 0.893191 9.26325 0.896655 9.14116 0.931699C9.01908 0.966742 8.90789 1.03222 8.81804 1.12198C8.72818 1.21175 8.66259 1.32286 8.62742 1.44491C8.59225 1.56696 8.58865 1.69594 8.61696 1.81975C8.70548 2.20695 8.75014 2.60288 8.75008 3.00007C8.74859 4.392 8.19499 5.72649 7.21075 6.71073C6.2265 7.69498 4.89201 8.24858 3.50008 8.25007C3.10289 8.25013 2.70696 8.20547 2.31977 8.11694C2.19589 8.08844 2.06679 8.0919 1.94461 8.12698C1.82243 8.16207 1.71117 8.22763 1.62128 8.31752C1.53139 8.40741 1.46583 8.51866 1.43074 8.64085C1.39566 8.76303 1.3922 8.89212 1.42071 9.016C1.62219 9.88482 1.99334 10.7053 2.51284 11.4302C3.03234 12.1552 3.68995 12.7703 4.44789 13.2404C3.91483 13.9666 3.59342 14.8263 3.51932 15.7241C3.44523 16.6219 3.62135 17.5227 4.02814 18.3264C4.43493 19.1302 5.05648 19.8056 5.82381 20.2775C6.59114 20.7495 7.47423 20.9996 8.37508 21.0001H15.8751C17.7647 21.0001 19.577 20.2494 20.9132 18.9132C22.2494 17.577 23.0001 15.7647 23.0001 13.8751C23.0001 11.9854 22.2494 10.1731 20.9132 8.83693C19.577 7.50074 17.7647 6.75007 15.8751 6.75007ZM3.25352 9.75007C3.33508 9.75007 3.41758 9.75007 3.50008 9.75007C5.28968 9.74808 7.00542 9.03629 8.27086 7.77085C9.5363 6.5054 10.2481 4.78967 10.2501 3.00007C10.2501 2.91663 10.2501 2.83319 10.2501 2.74975C11.1143 3.15436 11.8511 3.78831 12.38 4.58257C12.909 5.37684 13.2099 6.301 13.2501 7.25444C12.3344 7.6188 11.5037 8.16822 10.81 8.86832C10.1164 9.56842 9.5747 10.4041 9.21883 11.3232C8.94021 11.2746 8.65791 11.2501 8.37508 11.2501C7.36688 11.2499 6.38373 11.5642 5.56258 12.1491C4.55387 11.62 3.74374 10.7783 3.25352 9.75007Z" fill="white"/>
</svg>
