<svg width="41" height="40" viewBox="0 0 41 40" fill="none" xmlns="http://www.w3.org/2000/svg">
<path d="M20.7955 0H20.7045C9.68391 0 0.75 8.93391 0.75 19.9545V20.0455C0.75 31.0661 9.68391 40 20.7045 40H20.7955C31.8161 40 40.75 31.0661 40.75 20.0455V19.9545C40.75 8.93391 31.8161 0 20.7955 0Z" fill="black"/>
<path d="M30.8912 15.8862V19.663C30.2311 19.5985 29.3735 19.4486 28.4247 19.101C27.1859 18.647 26.2638 18.0262 25.6598 17.5455V25.1789L25.6444 25.1551C25.6542 25.3064 25.6598 25.4606 25.6598 25.6161C25.6598 29.4069 22.5753 32.4928 18.7831 32.4928C14.991 32.4928 11.9065 29.4069 11.9065 25.6161C11.9065 21.8254 14.991 18.7381 18.7831 18.7381C19.1545 18.7381 19.5189 18.7675 19.8748 18.825V22.5471C19.5329 22.4251 19.1657 22.3593 18.7831 22.3593C16.9879 22.3593 15.5263 23.8195 15.5263 25.6161C15.5263 27.4127 16.9879 28.873 18.7831 28.873C20.5783 28.873 22.04 27.4113 22.04 25.6161C22.04 25.5489 22.0386 25.4816 22.0344 25.4143V10.5806H25.8083C25.8223 10.9001 25.835 11.2224 25.849 11.5419C25.8742 12.1711 26.0984 12.7752 26.4894 13.2698C26.9477 13.8514 27.6245 14.5269 28.5747 15.0664C29.4646 15.5709 30.2998 15.7867 30.8912 15.889V15.8862Z" fill="#FF004F"/>
<path d="M29.5936 12.8202V16.597C28.9335 16.5325 28.0759 16.3825 27.1271 16.035C25.8883 15.5809 24.9662 14.9601 24.3622 14.4795V22.1128L24.3467 22.089C24.3566 22.2404 24.3622 22.3945 24.3622 22.5501C24.3622 26.3409 21.2777 29.4267 17.4855 29.4267C13.6934 29.4267 10.6089 26.3409 10.6089 22.5501C10.6089 18.7593 13.6934 15.672 17.4855 15.672C17.8569 15.672 18.2213 15.7015 18.5772 15.7589V19.481C18.2353 19.3591 17.8681 19.2932 17.4855 19.2932C15.6903 19.2932 14.2287 20.7535 14.2287 22.5501C14.2287 24.3467 15.6903 25.8069 17.4855 25.8069C19.2807 25.8069 20.7424 24.3453 20.7424 22.5501C20.7424 22.4828 20.741 22.4155 20.7368 22.3483V7.51172H24.5107C24.5247 7.83124 24.5373 8.15356 24.5514 8.47308C24.5766 9.1023 24.8008 9.7063 25.1918 10.201C25.6501 10.7826 26.3269 11.458 27.2771 11.9976C28.167 12.5007 29.0022 12.7179 29.5936 12.8202Z" fill="#00F7EF"/>
<path d="M30.4188 14.4707V18.2475C29.7587 18.183 28.9011 18.0331 27.9523 17.6855C26.7135 17.2315 25.7914 16.6106 25.1874 16.13V23.7634L25.172 23.7395C25.1818 23.8909 25.1874 24.045 25.1874 24.2006C25.1874 27.9914 22.1029 31.0772 18.3107 31.0772C14.5186 31.0772 11.4341 27.9914 11.4341 24.2006C11.4341 20.4098 14.5186 17.3226 18.3107 17.3226C18.6821 17.3226 19.0465 17.352 19.4024 17.4094V21.1315C19.0605 21.0096 18.6933 20.9438 18.3107 20.9438C16.5155 20.9438 15.0539 22.404 15.0539 24.2006C15.0539 25.9972 16.5155 27.4574 18.3107 27.4574C20.1059 27.4574 21.5676 25.9958 21.5676 24.2006C21.5676 24.1333 21.5662 24.0661 21.562 23.9988V9.16504H25.3359C25.3499 9.48456 25.3625 9.80688 25.3766 10.1264C25.4018 10.7556 25.626 11.3596 26.017 11.8543C26.4752 12.4359 27.1521 13.1114 28.1023 13.6509C28.9921 14.154 29.8274 14.3712 30.4188 14.4735V14.4707Z" fill="white"/>
</svg>
