<svg width="181" height="18" viewBox="0 0 181 18" fill="none" xmlns="http://www.w3.org/2000/svg">
<path d="M20.6941 6.37988H28.2921V7.76449H25.3046V15.5481H23.6618V7.76449H20.6875V6.37988H20.6941ZM27.9675 8.90971H29.3719V10.1908H29.3984C29.4448 10.0097 29.5309 9.83496 29.6567 9.66674C29.7826 9.49851 29.9349 9.33672 30.1138 9.20084C30.2927 9.05854 30.4914 8.94854 30.71 8.85797C30.9286 8.77383 31.1538 8.72852 31.379 8.72852C31.5513 8.72852 31.6771 8.735 31.7434 8.74148C31.8096 8.74796 31.8758 8.76087 31.9487 8.76735V10.1779C31.8427 10.1584 31.7367 10.1455 31.6241 10.1326C31.5115 10.1196 31.4055 10.1132 31.2995 10.1132C31.0478 10.1132 30.8093 10.1649 30.5841 10.262C30.3589 10.359 30.1668 10.5079 30.0012 10.6955C29.8356 10.8896 29.7031 11.1225 29.6037 11.4072C29.5043 11.6919 29.458 12.0154 29.458 12.3842V15.5416H27.9609V8.90971H27.9675ZM38.8313 15.5481H37.3607V14.6229H37.3342C37.1488 14.9593 36.8771 15.2246 36.5128 15.4252C36.1485 15.6258 35.7775 15.7293 35.3999 15.7293C34.5057 15.7293 33.8565 15.5158 33.459 15.0823C33.0616 14.6487 32.8629 13.9953 32.8629 13.1218V8.90971H34.3599V12.9795C34.3599 13.5618 34.4726 13.9758 34.7044 14.2152C34.9296 14.4546 35.2542 14.5776 35.6649 14.5776C35.9829 14.5776 36.2412 14.5323 36.4532 14.4352C36.6652 14.3382 36.8374 14.2152 36.9633 14.0535C37.0957 13.8982 37.1885 13.7041 37.2481 13.4841C37.3077 13.2641 37.3342 13.0247 37.3342 12.7659V8.91619H38.8313V15.5481ZM41.3817 13.4194C41.4278 13.8464 41.5939 14.1441 41.8785 14.3188C42.1702 14.487 42.5143 14.5776 42.9186 14.5776C43.0576 14.5776 43.2167 14.5646 43.3953 14.5453C43.5744 14.5258 43.7465 14.4805 43.8991 14.4223C44.0576 14.3641 44.1837 14.2735 44.2898 14.157C44.3888 14.0405 44.4354 13.8917 44.4288 13.7041C44.4223 13.5165 44.3493 13.3612 44.2167 13.2447C44.0842 13.1218 43.9186 13.0312 43.7135 12.9536C43.5079 12.8824 43.2762 12.8177 43.0111 12.7659C42.7465 12.7142 42.4813 12.6559 42.2097 12.5977C41.9315 12.5395 41.6599 12.4618 41.4018 12.3777C41.1431 12.2936 40.9115 12.1772 40.7059 12.0283C40.5006 11.886 40.335 11.6984 40.2158 11.4719C40.0899 11.2454 40.0303 10.9672 40.0303 10.6308C40.0303 10.2685 40.123 9.97083 40.3019 9.72495C40.4807 9.47907 40.7126 9.28498 40.984 9.13615C41.2622 8.98736 41.5673 8.88384 41.905 8.81914C42.2427 8.76087 42.5674 8.72852 42.872 8.72852C43.2232 8.72852 43.5609 8.76735 43.8791 8.83853C44.1967 8.90971 44.4884 9.02619 44.7465 9.19442C45.0051 9.35616 45.2173 9.56969 45.3894 9.82848C45.5614 10.0873 45.6675 10.4043 45.714 10.7731H44.1507C44.0777 10.4237 43.9186 10.1843 43.6604 10.0679C43.4018 9.94496 43.1041 9.8867 42.773 9.8867C42.6669 9.8867 42.5409 9.89318 42.3953 9.91256C42.2492 9.932 42.1171 9.96435 41.9846 10.0097C41.8585 10.0549 41.7524 10.1261 41.6599 10.2167C41.5738 10.3073 41.5273 10.4237 41.5273 10.5725C41.5273 10.7537 41.5939 10.896 41.7194 11.006C41.8455 11.116 42.0111 11.2066 42.2162 11.2843C42.4218 11.3554 42.6534 11.4201 42.9186 11.4719C43.1832 11.5237 43.4548 11.5819 43.7335 11.6401C44.0046 11.6984 44.2698 11.776 44.5349 11.8601C44.7995 11.9442 45.0317 12.0607 45.2368 12.2095C45.4424 12.3583 45.608 12.5395 45.7335 12.7594C45.8596 12.9795 45.9256 13.2577 45.9256 13.5812C45.9256 13.9758 45.8331 14.3059 45.6475 14.584C45.4624 14.8558 45.2238 15.0823 44.9321 15.2505C44.641 15.4187 44.3098 15.5481 43.9516 15.6258C43.5939 15.7034 43.2362 15.7422 42.8855 15.7422C42.4548 15.7422 42.0571 15.6969 41.6929 15.5998C41.3287 15.5028 41.0105 15.3604 40.7457 15.1728C40.4807 14.9787 40.2688 14.7393 40.1164 14.4546C39.964 14.17 39.8846 13.8271 39.8713 13.4323H41.3817V13.4194ZM46.3233 8.90971H47.4559V6.9169H48.9532V8.90971H50.3044V10.0032H48.9532V13.5488C48.9532 13.7041 48.9597 13.8335 48.9732 13.95C48.9862 14.06 49.0193 14.157 49.0658 14.2347C49.1123 14.3123 49.1849 14.3706 49.2844 14.4094C49.384 14.4482 49.5095 14.4676 49.6816 14.4676C49.7877 14.4676 49.8937 14.4676 49.9998 14.4611C50.1058 14.4546 50.2119 14.4417 50.3179 14.4158V15.5481C50.1524 15.5675 49.9868 15.5805 49.8342 15.5998C49.6751 15.6193 49.516 15.6258 49.3504 15.6258C48.9532 15.6258 48.6351 15.5869 48.3969 15.5158C48.1583 15.4446 47.9662 15.3346 47.8336 15.1922C47.6946 15.0499 47.6085 14.8752 47.5555 14.6617C47.509 14.4482 47.476 14.2023 47.4694 13.9306V10.0161H46.3364V8.90971H46.3233ZM51.3645 8.90971H52.7817V9.80909H52.8083C53.0204 9.42086 53.312 9.14911 53.6897 8.98088C54.0669 8.81266 54.4711 8.72852 54.9149 8.72852C55.4516 8.72852 55.9154 8.81914 56.3126 9.00675C56.7103 9.18794 57.0415 9.44024 57.3061 9.76378C57.5713 10.0873 57.7634 10.4625 57.8959 10.8896C58.0285 11.3166 58.0945 11.776 58.0945 12.2613C58.0945 12.7077 58.035 13.1412 57.9159 13.5553C57.7964 13.9758 57.6178 14.3446 57.3792 14.6682C57.1405 14.9917 56.8359 15.244 56.4652 15.4381C56.094 15.6322 55.6638 15.7293 55.16 15.7293C54.9414 15.7293 54.7228 15.7099 54.5042 15.671C54.2855 15.6322 54.0739 15.5675 53.8748 15.4834C53.6762 15.3993 53.4841 15.2893 53.3185 15.1534C53.1464 15.0176 53.0074 14.8623 52.8878 14.6876H52.8613V18.0003H51.3645V8.90971ZM56.5978 12.2354C56.5978 11.9378 56.5577 11.6466 56.4782 11.3619C56.3986 11.0772 56.2796 10.8313 56.1205 10.6114C55.9614 10.3914 55.7628 10.2167 55.5312 10.0873C55.2926 9.95787 55.0209 9.8867 54.7163 9.8867C54.0869 9.8867 53.6102 10.1002 53.292 10.5272C52.9738 10.9543 52.8153 11.5237 52.8153 12.2354C52.8153 12.5718 52.8548 12.8824 52.9408 13.1671C53.0269 13.4518 53.1464 13.6977 53.3185 13.9047C53.4841 14.1117 53.6827 14.2735 53.9148 14.3899C54.1465 14.5129 54.4181 14.5711 54.7228 14.5711C55.0674 14.5711 55.3521 14.4999 55.5907 14.3641C55.8293 14.2282 56.0215 14.047 56.1735 13.8335C56.3261 13.6135 56.4387 13.3676 56.5047 13.0895C56.5642 12.8112 56.5978 12.5265 56.5978 12.2354ZM59.2406 6.37988H60.7379V7.76449H59.2406V6.37988ZM59.2406 8.90971H60.7379V15.5481H59.2406V8.90971ZM62.0756 6.37988H63.5729V15.5481H62.0756V6.37988ZM68.1633 15.7293C67.6201 15.7293 67.1368 15.6387 66.7126 15.464C66.2889 15.2893 65.9312 15.0434 65.633 14.7393C65.3414 14.4288 65.1162 14.06 64.9642 13.633C64.8116 13.2059 64.732 12.7336 64.732 12.2224C64.732 11.7178 64.8116 11.2519 64.9642 10.8249C65.1162 10.3978 65.3414 10.0291 65.633 9.71847C65.9247 9.4079 66.2889 9.1685 66.7126 8.99384C67.1368 8.81914 67.6201 8.72852 68.1633 8.72852C68.7066 8.72852 69.1904 8.81914 69.6141 8.99384C70.0383 9.1685 70.396 9.41438 70.6942 9.71847C70.9853 10.0291 71.2104 10.3978 71.363 10.8249C71.5151 11.2519 71.5946 11.7178 71.5946 12.2224C71.5946 12.7336 71.5151 13.2059 71.363 13.633C71.2104 14.06 70.9853 14.4288 70.6942 14.7393C70.4025 15.0499 70.0383 15.2893 69.6141 15.464C69.1904 15.6387 68.7066 15.7293 68.1633 15.7293ZM68.1633 14.5711C68.4945 14.5711 68.7862 14.4999 69.0313 14.3641C69.2764 14.2282 69.475 14.047 69.6341 13.8271C69.7932 13.607 69.9058 13.3547 69.9853 13.0765C70.0578 12.7983 70.0979 12.5136 70.0979 12.2224C70.0979 11.9378 70.0578 11.6595 69.9853 11.3748C69.9123 11.0902 69.7932 10.8443 69.6341 10.6243C69.475 10.4043 69.2764 10.2296 69.0313 10.0937C68.7862 9.95787 68.4945 9.8867 68.1633 9.8867C67.8322 9.8867 67.541 9.95787 67.2959 10.0937C67.0508 10.2296 66.8517 10.4108 66.6931 10.6243C66.534 10.8443 66.4214 11.0902 66.3419 11.3748C66.2688 11.6595 66.2293 11.9378 66.2293 12.2224C66.2293 12.5136 66.2688 12.7983 66.3419 13.0765C66.4149 13.3547 66.534 13.607 66.6931 13.8271C66.8517 14.047 67.0508 14.2282 67.2959 14.3641C67.541 14.5064 67.8322 14.5711 68.1633 14.5711ZM72.0319 8.90971H73.165V6.9169H74.6618V8.90971H76.013V10.0032H74.6618V13.5488C74.6618 13.7041 74.6683 13.8335 74.6818 13.95C74.6948 14.06 74.7283 14.157 74.7743 14.2347C74.8208 14.3123 74.8939 14.3706 74.9929 14.4094C75.0925 14.4482 75.2186 14.4676 75.3906 14.4676C75.4967 14.4676 75.6028 14.4676 75.7083 14.4611C75.8144 14.4546 75.9204 14.4417 76.0265 14.4158V15.5481C75.8609 15.5675 75.6953 15.5805 75.5427 15.5998C75.3841 15.6193 75.2251 15.6258 75.0595 15.6258C74.6618 15.6258 74.3441 15.5869 74.1055 15.5158C73.8668 15.4446 73.6747 15.3346 73.5422 15.1922C73.4031 15.0499 73.3171 14.8752 73.264 14.6617C73.218 14.4482 73.1845 14.2023 73.178 13.9306V10.0161H72.0454V8.90971H72.0319Z" fill="white"/>
<path d="M18.9452 6.37956H12.0825L9.96276 0L7.83634 6.37956L0.973633 6.37313L6.53141 10.3199L4.40499 16.6931L9.96276 12.7527L15.5139 16.6931L13.3941 10.3199L18.9452 6.37956Z" fill="#00B67A"/>
<path d="M13.871 11.7627L13.394 10.3198L9.96265 12.7526L13.871 11.7627Z" fill="#0B6B4B"/>
<path d="M84.0264 0H102.026V18H84.0264V0ZM103.526 0H121.526V18H103.526V0ZM123.026 0H141.026V18H123.026V0ZM142.526 0H160.526V18H142.526V0Z" fill="#00B67A"/>
<path d="M180.026 0H162.026V18H180.026V0Z" fill="#E3E3E3"/>
<path d="M173.795 0H162.026V18H173.795V0Z" fill="#00B67A"/>
<path d="M93.0263 12.1313L95.7638 11.4376L96.9076 14.9626L93.0263 12.1313ZM99.3263 7.5751H94.5076L93.0263 3.0376L91.5451 7.5751H86.7263L90.6263 10.3876L89.1451 14.9251L93.0451 12.1126L95.4451 10.3876L99.3263 7.5751ZM112.526 12.1313L115.264 11.4376L116.408 14.9626L112.526 12.1313ZM118.826 7.5751H114.008L112.526 3.0376L111.045 7.5751H106.226L110.126 10.3876L108.645 14.9251L112.545 12.1126L114.945 10.3876L118.826 7.5751ZM132.026 12.1313L134.764 11.4376L135.908 14.9626L132.026 12.1313ZM138.326 7.5751H133.508L132.026 3.0376L130.545 7.5751H125.726L129.626 10.3876L128.145 14.9251L132.045 12.1126L134.445 10.3876L138.326 7.5751ZM151.526 12.1313L154.264 11.4376L155.408 14.9626L151.526 12.1313ZM157.826 7.5751H153.008L151.526 3.0376L150.045 7.5751H145.226L149.126 10.3876L147.645 14.9251L151.545 12.1126L153.945 10.3876L157.826 7.5751ZM171.026 12.1313L173.764 11.4376L174.908 14.9626L171.026 12.1313ZM177.326 7.5751H172.508L171.026 3.0376L169.545 7.5751H164.726L168.626 10.3876L167.145 14.9251L171.045 12.1126L173.445 10.3876L177.326 7.5751Z" fill="white"/>
</svg>
