<svg width="181" height="18" viewBox="0 0 181 18" fill="none" xmlns="http://www.w3.org/2000/svg">
<path d="M20.6941 6.37964H28.2921V7.76425H25.3046V15.5479H23.6618V7.76425H20.6875V6.37964H20.6941ZM27.9675 8.90946H29.3719V10.1905H29.3984C29.4448 10.0094 29.5309 9.83472 29.6567 9.66649C29.7826 9.49827 29.9349 9.33647 30.1138 9.2006C30.2927 9.0583 30.4914 8.94829 30.71 8.85773C30.9286 8.77359 31.1538 8.72828 31.379 8.72828C31.5513 8.72828 31.6771 8.73476 31.7434 8.74124C31.8096 8.74772 31.8758 8.76063 31.9487 8.76711V10.1776C31.8427 10.1582 31.7367 10.1453 31.6241 10.1323C31.5115 10.1194 31.4055 10.1129 31.2995 10.1129C31.0478 10.1129 30.8093 10.1647 30.5841 10.2617C30.3589 10.3588 30.1668 10.5076 30.0012 10.6952C29.8356 10.8894 29.7031 11.1223 29.6037 11.4069C29.5043 11.6916 29.458 12.0151 29.458 12.3839V15.5414H27.9609V8.90946H27.9675ZM38.8313 15.5479H37.3607V14.6226H37.3342C37.1488 14.9591 36.8771 15.2243 36.5128 15.425C36.1485 15.6255 35.7775 15.7291 35.3999 15.7291C34.5057 15.7291 33.8565 15.5155 33.459 15.082C33.0616 14.6485 32.8629 13.995 32.8629 13.1216V8.90946H34.3599V12.9792C34.3599 13.5615 34.4726 13.9756 34.7044 14.215C34.9296 14.4544 35.2542 14.5774 35.6649 14.5774C35.9829 14.5774 36.2412 14.5321 36.4532 14.435C36.6652 14.338 36.8374 14.215 36.9633 14.0532C37.0957 13.898 37.1885 13.7038 37.2481 13.4839C37.3077 13.2639 37.3342 13.0245 37.3342 12.7657V8.91594H38.8313V15.5479ZM41.3817 13.4192C41.4278 13.8462 41.5939 14.1438 41.8785 14.3185C42.1702 14.4867 42.5143 14.5774 42.9186 14.5774C43.0576 14.5774 43.2167 14.5644 43.3953 14.545C43.5744 14.5256 43.7465 14.4803 43.8991 14.422C44.0576 14.3638 44.1837 14.2733 44.2898 14.1568C44.3888 14.0403 44.4354 13.8915 44.4288 13.7038C44.4223 13.5162 44.3493 13.361 44.2167 13.2445C44.0842 13.1216 43.9186 13.031 43.7135 12.9533C43.5079 12.8822 43.2762 12.8175 43.0111 12.7657C42.7465 12.7139 42.4813 12.6557 42.2097 12.5975C41.9315 12.5392 41.6599 12.4616 41.4018 12.3775C41.1431 12.2934 40.9115 12.1769 40.7059 12.0281C40.5006 11.8857 40.335 11.6981 40.2158 11.4716C40.0899 11.2452 40.0303 10.967 40.0303 10.6305C40.0303 10.2682 40.123 9.97059 40.3019 9.72471C40.4807 9.47883 40.7126 9.28474 40.984 9.1359C41.2622 8.98712 41.5673 8.88359 41.905 8.8189C42.2427 8.76063 42.5674 8.72828 42.872 8.72828C43.2232 8.72828 43.5609 8.76711 43.8791 8.83829C44.1967 8.90946 44.4884 9.02595 44.7465 9.19417C45.0051 9.35591 45.2173 9.56945 45.3894 9.82823C45.5614 10.087 45.6675 10.4041 45.714 10.7729H44.1507C44.0777 10.4235 43.9186 10.1841 43.6604 10.0676C43.4018 9.94472 43.1041 9.88645 42.773 9.88645C42.6669 9.88645 42.5409 9.89293 42.3953 9.91232C42.2492 9.93176 42.1171 9.96411 41.9846 10.0094C41.8585 10.0547 41.7524 10.1259 41.6599 10.2164C41.5738 10.307 41.5273 10.4235 41.5273 10.5723C41.5273 10.7535 41.5939 10.8958 41.7194 11.0058C41.8455 11.1158 42.0111 11.2064 42.2162 11.284C42.4218 11.3552 42.6534 11.4199 42.9186 11.4716C43.1832 11.5234 43.4548 11.5816 43.7335 11.6399C44.0046 11.6981 44.2698 11.7757 44.5349 11.8599C44.7995 11.944 45.0317 12.0604 45.2368 12.2093C45.4424 12.3581 45.608 12.5392 45.7335 12.7592C45.8596 12.9792 45.9256 13.2574 45.9256 13.5809C45.9256 13.9756 45.8331 14.3056 45.6475 14.5838C45.4624 14.8555 45.2238 15.082 44.9321 15.2502C44.641 15.4185 44.3098 15.5479 43.9516 15.6255C43.5939 15.7031 43.2362 15.742 42.8855 15.742C42.4548 15.742 42.0571 15.6967 41.6929 15.5996C41.3287 15.5026 41.0105 15.3602 40.7457 15.1726C40.4807 14.9785 40.2688 14.7391 40.1164 14.4544C39.964 14.1697 39.8846 13.8268 39.8713 13.4321H41.3817V13.4192ZM46.3233 8.90946H47.4559V6.91666H48.9532V8.90946H50.3044V10.0029H48.9532V13.5486C48.9532 13.7038 48.9597 13.8333 48.9732 13.9497C48.9862 14.0597 49.0193 14.1568 49.0658 14.2344C49.1123 14.312 49.1849 14.3703 49.2844 14.4091C49.384 14.4479 49.5095 14.4674 49.6816 14.4674C49.7877 14.4674 49.8937 14.4674 49.9998 14.4609C50.1058 14.4544 50.2119 14.4415 50.3179 14.4156V15.5479C50.1524 15.5673 49.9868 15.5802 49.8342 15.5996C49.6751 15.619 49.516 15.6255 49.3504 15.6255C48.9532 15.6255 48.6351 15.5867 48.3969 15.5155C48.1583 15.4443 47.9662 15.3343 47.8336 15.192C47.6946 15.0497 47.6085 14.875 47.5555 14.6614C47.509 14.4479 47.476 14.2021 47.4694 13.9303V10.0158H46.3364V8.90946H46.3233ZM51.3645 8.90946H52.7817V9.80885H52.8083C53.0204 9.42061 53.312 9.14886 53.6897 8.98064C54.0669 8.81242 54.4711 8.72828 54.9149 8.72828C55.4516 8.72828 55.9154 8.8189 56.3126 9.00651C56.7103 9.18769 57.0415 9.44 57.3061 9.76354C57.5713 10.087 57.7634 10.4623 57.8959 10.8894C58.0285 11.3164 58.0945 11.7757 58.0945 12.261C58.0945 12.7075 58.035 13.141 57.9159 13.5551C57.7964 13.9756 57.6178 14.3444 57.3792 14.6679C57.1405 14.9914 56.8359 15.2438 56.4652 15.4379C56.094 15.632 55.6638 15.7291 55.16 15.7291C54.9414 15.7291 54.7228 15.7096 54.5042 15.6708C54.2855 15.632 54.0739 15.5673 53.8748 15.4832C53.6762 15.399 53.4841 15.2891 53.3185 15.1532C53.1464 15.0173 53.0074 14.862 52.8878 14.6873H52.8613V18H51.3645V8.90946ZM56.5978 12.2351C56.5978 11.9375 56.5577 11.6463 56.4782 11.3617C56.3986 11.077 56.2796 10.8311 56.1205 10.6111C55.9614 10.3911 55.7628 10.2164 55.5312 10.087C55.2926 9.95763 55.0209 9.88645 54.7163 9.88645C54.0869 9.88645 53.6102 10.1 53.292 10.527C52.9738 10.9541 52.8153 11.5234 52.8153 12.2351C52.8153 12.5716 52.8548 12.8822 52.9408 13.1668C53.0269 13.4515 53.1464 13.6974 53.3185 13.9044C53.4841 14.1115 53.6827 14.2733 53.9148 14.3897C54.1465 14.5126 54.4181 14.5709 54.7228 14.5709C55.0674 14.5709 55.3521 14.4997 55.5907 14.3638C55.8293 14.228 56.0215 14.0468 56.1735 13.8333C56.3261 13.6133 56.4387 13.3674 56.5047 13.0892C56.5642 12.811 56.5978 12.5263 56.5978 12.2351ZM59.2406 6.37964H60.7379V7.76425H59.2406V6.37964ZM59.2406 8.90946H60.7379V15.5479H59.2406V8.90946ZM62.0756 6.37964H63.5729V15.5479H62.0756V6.37964ZM68.1633 15.7291C67.6201 15.7291 67.1368 15.6384 66.7126 15.4637C66.2889 15.2891 65.9312 15.0432 65.633 14.7391C65.3414 14.4285 65.1162 14.0597 64.9642 13.6327C64.8116 13.2057 64.732 12.7333 64.732 12.2222C64.732 11.7175 64.8116 11.2517 64.9642 10.8246C65.1162 10.3976 65.3414 10.0288 65.633 9.71823C65.9247 9.40765 66.2889 9.16825 66.7126 8.9936C67.1368 8.8189 67.6201 8.72828 68.1633 8.72828C68.7066 8.72828 69.1904 8.8189 69.6141 8.9936C70.0383 9.16825 70.396 9.41413 70.6942 9.71823C70.9853 10.0288 71.2104 10.3976 71.363 10.8246C71.5151 11.2517 71.5946 11.7175 71.5946 12.2222C71.5946 12.7333 71.5151 13.2057 71.363 13.6327C71.2104 14.0597 70.9853 14.4285 70.6942 14.7391C70.4025 15.0497 70.0383 15.2891 69.6141 15.4637C69.1904 15.6384 68.7066 15.7291 68.1633 15.7291ZM68.1633 14.5709C68.4945 14.5709 68.7862 14.4997 69.0313 14.3638C69.2764 14.228 69.475 14.0468 69.6341 13.8268C69.7932 13.6068 69.9058 13.3545 69.9853 13.0763C70.0578 12.798 70.0979 12.5134 70.0979 12.2222C70.0979 11.9375 70.0578 11.6593 69.9853 11.3746C69.9123 11.0899 69.7932 10.8441 69.6341 10.624C69.475 10.4041 69.2764 10.2294 69.0313 10.0935C68.7862 9.95763 68.4945 9.88645 68.1633 9.88645C67.8322 9.88645 67.541 9.95763 67.2959 10.0935C67.0508 10.2294 66.8517 10.4106 66.6931 10.624C66.534 10.8441 66.4214 11.0899 66.3419 11.3746C66.2688 11.6593 66.2293 11.9375 66.2293 12.2222C66.2293 12.5134 66.2688 12.798 66.3419 13.0763C66.4149 13.3545 66.534 13.6068 66.6931 13.8268C66.8517 14.0468 67.0508 14.228 67.2959 14.3638C67.541 14.5062 67.8322 14.5709 68.1633 14.5709ZM72.0319 8.90946H73.165V6.91666H74.6618V8.90946H76.013V10.0029H74.6618V13.5486C74.6618 13.7038 74.6683 13.8333 74.6818 13.9497C74.6948 14.0597 74.7283 14.1568 74.7743 14.2344C74.8208 14.312 74.8939 14.3703 74.9929 14.4091C75.0925 14.4479 75.2186 14.4674 75.3906 14.4674C75.4967 14.4674 75.6028 14.4674 75.7083 14.4609C75.8144 14.4544 75.9204 14.4415 76.0265 14.4156V15.5479C75.8609 15.5673 75.6953 15.5802 75.5427 15.5996C75.3841 15.619 75.2251 15.6255 75.0595 15.6255C74.6618 15.6255 74.3441 15.5867 74.1055 15.5155C73.8668 15.4443 73.6747 15.3343 73.5422 15.192C73.4031 15.0497 73.3171 14.875 73.264 14.6614C73.218 14.4479 73.1845 14.2021 73.178 13.9303V10.0158H72.0454V8.90946H72.0319Z" fill="#1C1C28"/>
<path d="M18.9452 6.37956H12.0825L9.96276 0L7.83634 6.37956L0.973633 6.37313L6.53141 10.3199L4.40499 16.6931L9.96276 12.7527L15.5139 16.6931L13.3941 10.3199L18.9452 6.37956Z" fill="#00B67A"/>
<path d="M13.871 11.7627L13.394 10.3198L9.96265 12.7526L13.871 11.7627Z" fill="#0B6B4B"/>
<path d="M84.0264 0H102.026V18H84.0264V0ZM103.526 0H121.526V18H103.526V0ZM123.026 0H141.026V18H123.026V0ZM142.526 0H160.526V18H142.526V0Z" fill="#00B67A"/>
<path d="M180.026 0H162.026V18H180.026V0Z" fill="#E3E3E3"/>
<path d="M173.795 0H162.026V18H173.795V0Z" fill="#00B67A"/>
<path d="M93.0263 12.1313L95.7638 11.4376L96.9076 14.9626L93.0263 12.1313ZM99.3263 7.5751H94.5076L93.0263 3.0376L91.5451 7.5751H86.7263L90.6263 10.3876L89.1451 14.9251L93.0451 12.1126L95.4451 10.3876L99.3263 7.5751ZM112.526 12.1313L115.264 11.4376L116.408 14.9626L112.526 12.1313ZM118.826 7.5751H114.008L112.526 3.0376L111.045 7.5751H106.226L110.126 10.3876L108.645 14.9251L112.545 12.1126L114.945 10.3876L118.826 7.5751ZM132.026 12.1313L134.764 11.4376L135.908 14.9626L132.026 12.1313ZM138.326 7.5751H133.508L132.026 3.0376L130.545 7.5751H125.726L129.626 10.3876L128.145 14.9251L132.045 12.1126L134.445 10.3876L138.326 7.5751ZM151.526 12.1313L154.264 11.4376L155.408 14.9626L151.526 12.1313ZM157.826 7.5751H153.008L151.526 3.0376L150.045 7.5751H145.226L149.126 10.3876L147.645 14.9251L151.545 12.1126L153.945 10.3876L157.826 7.5751ZM171.026 12.1313L173.764 11.4376L174.908 14.9626L171.026 12.1313ZM177.326 7.5751H172.508L171.026 3.0376L169.545 7.5751H164.726L168.626 10.3876L167.145 14.9251L171.045 12.1126L173.445 10.3876L177.326 7.5751Z" fill="white"/>
</svg>
