<svg width="41" height="40" viewBox="0 0 41 40" fill="none" xmlns="http://www.w3.org/2000/svg">
<path d="M40.5 20C40.5 8.9543 31.5457 0 20.5 0C9.45432 0 0.5 8.9543 0.5 20C0.5 31.0457 9.45432 40 20.5 40C31.5457 40 40.5 31.0457 40.5 20Z" fill="#FF0209"/>
<path d="M28.9896 28.8579C28.3937 28.9226 27.7838 28.9338 27.1991 28.9324C22.6387 28.9282 18.0782 28.924 13.5191 28.9212C12.0842 28.9212 10.5214 28.8748 9.4126 27.9627C8.16321 26.9326 7.90322 25.1463 7.80204 23.5301C7.6615 21.3153 7.65025 19.0933 7.7655 16.8771C7.82874 15.66 7.93976 14.4134 8.46397 13.3116C8.84061 12.5204 9.46882 11.8092 10.2727 11.4354C11.2073 11.0012 12.1854 11.0784 13.1917 11.077C15.6005 11.0742 18.0093 11.0728 20.4182 11.07C22.9226 11.0672 25.4284 11.0658 27.9327 11.063C29.1161 11.063 30.3866 11.0869 31.3521 11.7713C32.5986 12.6539 32.9373 14.3333 33.0933 15.8525C33.3814 18.6507 33.3856 21.4783 33.1046 24.2764C32.9879 25.4302 32.794 26.6501 32.0336 27.5256C31.2804 28.3942 30.1631 28.7287 28.991 28.8565L28.9896 28.8579Z" fill="white"/>
<path d="M24.5782 19.9995L17.7817 16.0757V23.9233L24.5782 19.9995Z" fill="#FF0209"/>
</svg>
