<svg width="25" height="24" viewBox="0 0 25 24" fill="none" xmlns="http://www.w3.org/2000/svg">
<g clip-path="url(#clip0_0_4355)">
<path d="M21.3363 3.6001H3.66358C2.5791 3.6001 1.69995 4.47315 1.69995 5.5501V17.2501C1.69995 18.3271 2.5791 19.2001 3.66358 19.2001H21.3363C22.4208 19.2001 23.3 18.3271 23.3 17.2501V5.5501C23.3 4.47315 22.4208 3.6001 21.3363 3.6001Z" stroke="#8D8D8D" stroke-width="1.5" stroke-linecap="round" stroke-linejoin="round"/>
<path fill-rule="evenodd" clip-rule="evenodd" d="M5.7243 9.75H8.71364L8.19397 10.2697L5.19397 13.2697L5.7243 14.55H10.5243V13.05H7.53496L9.25463 11.3303L11.0546 9.53033L10.5243 8.25H5.7243V9.75ZM12.1743 8.4V14.4H13.6743V8.4H12.1743ZM15.1743 8.4V14.4H16.6743V13.35H17.7243C19.1326 13.35 20.2743 12.2083 20.2743 10.8C20.2743 9.39166 19.1326 8.25 17.7243 8.25H15.9243H15.1743L15.1743 8.4ZM17.7243 11.85H16.6743V9.75H17.7243C18.3042 9.75 18.7743 10.2201 18.7743 10.8C18.7743 11.3799 18.3042 11.85 17.7243 11.85Z" fill="#8D8D8D"/>
</g>
<defs>
<clipPath id="clip0_0_4355">
<rect width="24" height="24" fill="white" transform="translate(0.5)"/>
</clipPath>
</defs>
</svg>
